%TF.GenerationSoftware,KiCad,Pcbnew,(6.0.7)*%
%TF.CreationDate,2022-10-02T22:30:45-04:00*%
%TF.ProjectId,LiPo_Charger_1,4c69506f-5f43-4686-9172-6765725f312e,rev?*%
%TF.SameCoordinates,Original*%
%TF.FileFunction,Copper,L1,Top*%
%TF.FilePolarity,Positive*%
%FSLAX46Y46*%
G04 Gerber Fmt 4.6, Leading zero omitted, Abs format (unit mm)*
G04 Created by KiCad (PCBNEW (6.0.7)) date 2022-10-02 22:30:45*
%MOMM*%
%LPD*%
G01*
G04 APERTURE LIST*
G04 Aperture macros list*
%AMRoundRect*
0 Rectangle with rounded corners*
0 $1 Rounding radius*
0 $2 $3 $4 $5 $6 $7 $8 $9 X,Y pos of 4 corners*
0 Add a 4 corners polygon primitive as box body*
4,1,4,$2,$3,$4,$5,$6,$7,$8,$9,$2,$3,0*
0 Add four circle primitives for the rounded corners*
1,1,$1+$1,$2,$3*
1,1,$1+$1,$4,$5*
1,1,$1+$1,$6,$7*
1,1,$1+$1,$8,$9*
0 Add four rect primitives between the rounded corners*
20,1,$1+$1,$2,$3,$4,$5,0*
20,1,$1+$1,$4,$5,$6,$7,0*
20,1,$1+$1,$6,$7,$8,$9,0*
20,1,$1+$1,$8,$9,$2,$3,0*%
G04 Aperture macros list end*
%TA.AperFunction,SMDPad,CuDef*%
%ADD10RoundRect,0.250000X0.650000X-0.325000X0.650000X0.325000X-0.650000X0.325000X-0.650000X-0.325000X0*%
%TD*%
%TA.AperFunction,SMDPad,CuDef*%
%ADD11R,0.930000X0.980000*%
%TD*%
%TA.AperFunction,SMDPad,CuDef*%
%ADD12R,1.650000X0.400000*%
%TD*%
%TA.AperFunction,SMDPad,CuDef*%
%ADD13R,1.500000X2.000000*%
%TD*%
%TA.AperFunction,SMDPad,CuDef*%
%ADD14R,2.000000X1.350000*%
%TD*%
%TA.AperFunction,SMDPad,CuDef*%
%ADD15R,2.500000X1.430000*%
%TD*%
%TA.AperFunction,ComponentPad*%
%ADD16O,1.500000X1.100000*%
%TD*%
%TA.AperFunction,ComponentPad*%
%ADD17O,1.700000X1.350000*%
%TD*%
%TA.AperFunction,SMDPad,CuDef*%
%ADD18R,0.700000X1.825000*%
%TD*%
%TA.AperFunction,SMDPad,CuDef*%
%ADD19R,0.980000X0.930000*%
%TD*%
%TA.AperFunction,SMDPad,CuDef*%
%ADD20R,2.200000X1.600000*%
%TD*%
%TA.AperFunction,SMDPad,CuDef*%
%ADD21RoundRect,0.150000X0.150000X-0.512500X0.150000X0.512500X-0.150000X0.512500X-0.150000X-0.512500X0*%
%TD*%
%TA.AperFunction,SMDPad,CuDef*%
%ADD22R,1.800000X1.700000*%
%TD*%
%TA.AperFunction,SMDPad,CuDef*%
%ADD23RoundRect,0.150000X0.512500X0.150000X-0.512500X0.150000X-0.512500X-0.150000X0.512500X-0.150000X0*%
%TD*%
%TA.AperFunction,ComponentPad*%
%ADD24R,2.775000X2.775000*%
%TD*%
%TA.AperFunction,ComponentPad*%
%ADD25C,2.775000*%
%TD*%
%TA.AperFunction,SMDPad,CuDef*%
%ADD26RoundRect,0.150000X-0.150000X0.512500X-0.150000X-0.512500X0.150000X-0.512500X0.150000X0.512500X0*%
%TD*%
%TA.AperFunction,SMDPad,CuDef*%
%ADD27R,2.900000X4.000000*%
%TD*%
%TA.AperFunction,SMDPad,CuDef*%
%ADD28O,1.600000X0.600000*%
%TD*%
%TA.AperFunction,SMDPad,CuDef*%
%ADD29RoundRect,0.250000X-0.325000X-0.650000X0.325000X-0.650000X0.325000X0.650000X-0.325000X0.650000X0*%
%TD*%
%TA.AperFunction,SMDPad,CuDef*%
%ADD30R,0.400000X1.650000*%
%TD*%
%TA.AperFunction,ComponentPad*%
%ADD31O,1.350000X1.700000*%
%TD*%
%TA.AperFunction,ComponentPad*%
%ADD32O,1.100000X1.500000*%
%TD*%
%TA.AperFunction,SMDPad,CuDef*%
%ADD33R,2.000000X1.500000*%
%TD*%
%TA.AperFunction,SMDPad,CuDef*%
%ADD34R,1.350000X2.000000*%
%TD*%
%TA.AperFunction,SMDPad,CuDef*%
%ADD35R,1.430000X2.500000*%
%TD*%
%TA.AperFunction,SMDPad,CuDef*%
%ADD36R,1.825000X0.700000*%
%TD*%
%TA.AperFunction,ComponentPad*%
%ADD37R,0.850000X0.850000*%
%TD*%
%TA.AperFunction,ComponentPad*%
%ADD38O,0.850000X0.850000*%
%TD*%
%TA.AperFunction,ViaPad*%
%ADD39C,0.300000*%
%TD*%
%TA.AperFunction,Conductor*%
%ADD40C,0.250000*%
%TD*%
%TA.AperFunction,Conductor*%
%ADD41C,0.700000*%
%TD*%
%TA.AperFunction,Conductor*%
%ADD42C,0.400000*%
%TD*%
%TA.AperFunction,Conductor*%
%ADD43C,0.550000*%
%TD*%
%TA.AperFunction,Conductor*%
%ADD44C,0.600000*%
%TD*%
%TA.AperFunction,Conductor*%
%ADD45C,0.640000*%
%TD*%
%TA.AperFunction,Conductor*%
%ADD46C,0.650000*%
%TD*%
G04 APERTURE END LIST*
D10*
%TO.P,C4,1*%
%TO.N,/5V*%
X175800000Y-73775000D03*
%TO.P,C4,2*%
%TO.N,GND*%
X175800000Y-70825000D03*
%TD*%
D11*
%TO.P,R7,1*%
%TO.N,Net-(R7-Pad1)*%
X159000000Y-80575000D03*
%TO.P,R7,2*%
%TO.N,Net-(D3-Pad1)*%
X160540000Y-80575000D03*
%TD*%
D12*
%TO.P,J1,1,VBUS*%
%TO.N,/VBUS*%
X149350000Y-75740000D03*
%TO.P,J1,2,D-*%
%TO.N,unconnected-(J1-Pad2)*%
X149350000Y-76390000D03*
%TO.P,J1,3,D+*%
%TO.N,unconnected-(J1-Pad3)*%
X149350000Y-77040000D03*
%TO.P,J1,4,ID*%
%TO.N,unconnected-(J1-Pad4)*%
X149350000Y-77690000D03*
%TO.P,J1,5,GND*%
%TO.N,GND*%
X149350000Y-78340000D03*
D13*
%TO.P,J1,6,Shield*%
X149470000Y-79940000D03*
D14*
X147400000Y-79790000D03*
D15*
X146200000Y-76080000D03*
D13*
X149450000Y-74190000D03*
D16*
X149470000Y-79460000D03*
D17*
X146470000Y-74310000D03*
D14*
X147400000Y-74310000D03*
D18*
X148150000Y-80040000D03*
D16*
X149470000Y-74620000D03*
D17*
X146470000Y-79770000D03*
D18*
X148150000Y-74090000D03*
D15*
X146200000Y-78000000D03*
%TD*%
D19*
%TO.P,R2,1*%
%TO.N,Net-(C1-Pad1)*%
X158300000Y-56390000D03*
%TO.P,R2,2*%
%TO.N,/BAT+*%
X158300000Y-57930000D03*
%TD*%
D20*
%TO.P,L1,1,1*%
%TO.N,Net-(D1-PadA)*%
X164005000Y-71200000D03*
%TO.P,L1,2,2*%
%TO.N,Net-(C3-Pad1)*%
X164005000Y-64800000D03*
%TD*%
D21*
%TO.P,Q1,1,S*%
%TO.N,GND*%
X165850000Y-58687500D03*
%TO.P,Q1,2,D*%
%TO.N,unconnected-(Q1-Pad2)*%
X166800000Y-58687500D03*
%TO.P,Q1,3,S*%
%TO.N,/BAT-*%
X167750000Y-58687500D03*
%TO.P,Q1,4,G*%
%TO.N,/OD*%
X167750000Y-56412500D03*
%TO.P,Q1,5,D*%
%TO.N,unconnected-(Q1-Pad2)*%
X166800000Y-56412500D03*
%TO.P,Q1,6,G*%
%TO.N,Net-(IC1-Pad3)*%
X165850000Y-56412500D03*
%TD*%
D19*
%TO.P,R4,1*%
%TO.N,/5V*%
X172900000Y-73740000D03*
%TO.P,R4,2*%
%TO.N,Net-(R4-Pad2)*%
X172900000Y-72200000D03*
%TD*%
D22*
%TO.P,D1,A*%
%TO.N,Net-(D1-PadA)*%
X170373750Y-61000000D03*
%TO.P,D1,C*%
%TO.N,/5V*%
X175426250Y-61000000D03*
%TD*%
D23*
%TO.P,IC1,1,OD*%
%TO.N,/OD*%
X163237500Y-58150000D03*
%TO.P,IC1,2,CS*%
%TO.N,Net-(IC1-Pad2)*%
X163237500Y-57200000D03*
%TO.P,IC1,3,OC*%
%TO.N,Net-(IC1-Pad3)*%
X163237500Y-56250000D03*
%TO.P,IC1,4,TD*%
%TO.N,unconnected-(IC1-Pad4)*%
X160962500Y-56250000D03*
%TO.P,IC1,5,VCC*%
%TO.N,Net-(C1-Pad1)*%
X160962500Y-57200000D03*
%TO.P,IC1,6,GND*%
%TO.N,/BAT-*%
X160962500Y-58150000D03*
%TD*%
D24*
%TO.P,SW1,1*%
%TO.N,unconnected-(SW1-Pad1)*%
X155122500Y-68500000D03*
D25*
%TO.P,SW1,2*%
%TO.N,/BAT+*%
X155122500Y-63800000D03*
%TO.P,SW1,3*%
%TO.N,Net-(C3-Pad1)*%
X155122500Y-59100000D03*
%TO.P,SW1,S1*%
%TO.N,N/C*%
X145592500Y-70405000D03*
%TO.P,SW1,S2*%
X145592500Y-57195000D03*
%TD*%
D19*
%TO.P,R5,1*%
%TO.N,Net-(R4-Pad2)*%
X175600000Y-66770000D03*
%TO.P,R5,2*%
%TO.N,GND*%
X175600000Y-65230000D03*
%TD*%
D26*
%TO.P,U2,1,SW*%
%TO.N,Net-(D1-PadA)*%
X172306426Y-65282500D03*
%TO.P,U2,2,GND*%
%TO.N,GND*%
X171356426Y-65282500D03*
%TO.P,U2,3,FB*%
%TO.N,Net-(R4-Pad2)*%
X170406426Y-65282500D03*
%TO.P,U2,4,EN*%
%TO.N,Net-(C3-Pad1)*%
X170406426Y-67557500D03*
%TO.P,U2,5,IN*%
X171356426Y-67557500D03*
%TO.P,U2,6,NC*%
%TO.N,unconnected-(U2-Pad6)*%
X172306426Y-67557500D03*
%TD*%
D11*
%TO.P,C1,1*%
%TO.N,Net-(C1-Pad1)*%
X160890000Y-62200000D03*
%TO.P,C1,2*%
%TO.N,/BAT-*%
X162430000Y-62200000D03*
%TD*%
D27*
%TO.P,U1,0*%
%TO.N,N/C*%
X157400000Y-75830000D03*
D28*
%TO.P,U1,1,TEMP*%
%TO.N,GND*%
X154800000Y-73925000D03*
%TO.P,U1,2,PROG*%
%TO.N,Net-(R3-Pad2)*%
X154800000Y-75195000D03*
%TO.P,U1,3,GND*%
%TO.N,GND*%
X154800000Y-76465000D03*
%TO.P,U1,4,VCC*%
%TO.N,/VBUS*%
X154800000Y-77735000D03*
%TO.P,U1,5,BAT*%
%TO.N,/BAT+*%
X160000000Y-77735000D03*
%TO.P,U1,6,~{STDBY}*%
%TO.N,Net-(R7-Pad1)*%
X160000000Y-76465000D03*
%TO.P,U1,7,~{CHRG}*%
%TO.N,Net-(R6-Pad1)*%
X160000000Y-75195000D03*
%TO.P,U1,8,CE*%
%TO.N,/VBUS*%
X160000000Y-73925000D03*
%TD*%
D19*
%TO.P,D2,1,K*%
%TO.N,Net-(D2-Pad1)*%
X162900000Y-75901600D03*
%TO.P,D2,2,A*%
%TO.N,Net-(D2-Pad2)*%
X162900000Y-74361600D03*
%TD*%
D11*
%TO.P,R1,1*%
%TO.N,GND*%
X167480000Y-62200000D03*
%TO.P,R1,2*%
%TO.N,Net-(IC1-Pad2)*%
X165940000Y-62200000D03*
%TD*%
D19*
%TO.P,R3,1*%
%TO.N,GND*%
X152200000Y-76815000D03*
%TO.P,R3,2*%
%TO.N,Net-(R3-Pad2)*%
X152200000Y-75275000D03*
%TD*%
D29*
%TO.P,C3,1*%
%TO.N,Net-(C3-Pad1)*%
X167525000Y-73400000D03*
%TO.P,C3,2*%
%TO.N,GND*%
X170475000Y-73400000D03*
%TD*%
D11*
%TO.P,R6,1*%
%TO.N,Net-(R6-Pad1)*%
X154660000Y-80575000D03*
%TO.P,R6,2*%
%TO.N,Net-(D2-Pad1)*%
X156200000Y-80575000D03*
%TD*%
D30*
%TO.P,J3,1,VBUS*%
%TO.N,/5V*%
X169475000Y-77335000D03*
%TO.P,J3,2,D-*%
%TO.N,unconnected-(J3-Pad2)*%
X170125000Y-77335000D03*
%TO.P,J3,3,D+*%
%TO.N,unconnected-(J3-Pad3)*%
X170775000Y-77335000D03*
%TO.P,J3,4,ID*%
%TO.N,unconnected-(J3-Pad4)*%
X171425000Y-77335000D03*
%TO.P,J3,5,GND*%
%TO.N,GND*%
X172075000Y-77335000D03*
D31*
%TO.P,J3,6,Shield*%
X173505000Y-80215000D03*
D32*
X173195000Y-77215000D03*
D31*
X168045000Y-80215000D03*
D33*
X173675000Y-77215000D03*
D34*
X173525000Y-79285000D03*
D35*
X171735000Y-80485000D03*
D34*
X168045000Y-79285000D03*
D33*
X167925000Y-77235000D03*
D36*
X167825000Y-78535000D03*
D35*
X169815000Y-80485000D03*
D32*
X168355000Y-77215000D03*
D36*
X173775000Y-78535000D03*
%TD*%
D19*
%TO.P,D3,1,K*%
%TO.N,Net-(D3-Pad1)*%
X165300000Y-75901600D03*
%TO.P,D3,2,A*%
%TO.N,Net-(D2-Pad2)*%
X165300000Y-74361600D03*
%TD*%
D37*
%TO.P,J2,1,Pin_1*%
%TO.N,/BAT+*%
X173800000Y-56600000D03*
D38*
%TO.P,J2,2,Pin_2*%
%TO.N,/BAT-*%
X172800000Y-56600000D03*
%TD*%
D19*
%TO.P,C2,1*%
%TO.N,/VBUS*%
X152200000Y-79060000D03*
%TO.P,C2,2*%
%TO.N,GND*%
X152200000Y-80600000D03*
%TD*%
D39*
%TO.N,/BAT-*%
X162430000Y-60630000D03*
X168812500Y-58687500D03*
%TO.N,GND*%
X157100000Y-71800000D03*
X153400000Y-76600000D03*
X150900000Y-80700000D03*
X176900000Y-64700000D03*
X168800000Y-75100000D03*
X177400000Y-61800000D03*
X153700000Y-74000000D03*
%TO.N,Net-(C3-Pad1)*%
X164000000Y-66000000D03*
X157400000Y-62100000D03*
%TO.N,Net-(D1-PadA)*%
X168800000Y-66500000D03*
X165600000Y-71000000D03*
%TO.N,/OD*%
X167300000Y-57600000D03*
X164425500Y-58100000D03*
%TO.N,/BAT+*%
X161200000Y-77800000D03*
%TO.N,Net-(R4-Pad2)*%
X170400000Y-64000000D03*
X174400000Y-66800000D03*
%TO.N,Net-(R7-Pad1)*%
X161000000Y-76500000D03*
X157500000Y-80200000D03*
%TD*%
D40*
%TO.N,Net-(C1-Pad1)*%
X159600000Y-61700000D02*
X159600000Y-56800000D01*
X159600000Y-56800000D02*
X159450000Y-56650000D01*
X160890000Y-62200000D02*
X160100000Y-62200000D01*
X160100000Y-62200000D02*
X159600000Y-61700000D01*
X160000000Y-57200000D02*
X159450000Y-56650000D01*
X160962500Y-57200000D02*
X160000000Y-57200000D01*
X159450000Y-56650000D02*
X159190000Y-56390000D01*
X159190000Y-56390000D02*
X158300000Y-56390000D01*
D41*
%TO.N,/BAT-*%
X168812500Y-58687500D02*
X170900000Y-56600000D01*
X160962500Y-59162500D02*
X160962500Y-58150000D01*
X170900000Y-56600000D02*
X172800000Y-56600000D01*
X162430000Y-60630000D02*
X160962500Y-59162500D01*
X167750000Y-58687500D02*
X168812500Y-58687500D01*
X162430000Y-62200000D02*
X162430000Y-60630000D01*
D42*
%TO.N,/VBUS*%
X153765000Y-77735000D02*
X154800000Y-77735000D01*
X150900000Y-78400000D02*
X151560000Y-79060000D01*
X153500000Y-78000000D02*
X153765000Y-77735000D01*
D40*
X161075000Y-73925000D02*
X161200000Y-73800000D01*
D42*
X153040000Y-79060000D02*
X153500000Y-78600000D01*
X151560000Y-79060000D02*
X152200000Y-79060000D01*
D40*
X160900000Y-72400000D02*
X151600000Y-72400000D01*
D42*
X152200000Y-79060000D02*
X153040000Y-79060000D01*
D40*
X161200000Y-73800000D02*
X161200000Y-72700000D01*
X160000000Y-73925000D02*
X161075000Y-73925000D01*
X151600000Y-72400000D02*
X150900000Y-73100000D01*
D42*
X149350000Y-75740000D02*
X150525000Y-75740000D01*
D40*
X161200000Y-72700000D02*
X160900000Y-72400000D01*
D42*
X150900000Y-76115000D02*
X150900000Y-78400000D01*
X153500000Y-78600000D02*
X153500000Y-78000000D01*
X150525000Y-75740000D02*
X150900000Y-76115000D01*
D40*
X150900000Y-73100000D02*
X150900000Y-76115000D01*
D43*
%TO.N,GND*%
X176900000Y-64700000D02*
X176370000Y-65230000D01*
D44*
X173775000Y-78535000D02*
X173775000Y-77315000D01*
D45*
X168355000Y-77215000D02*
X168355000Y-75545000D01*
D44*
X167825000Y-77745000D02*
X168355000Y-77215000D01*
X171735000Y-80485000D02*
X173235000Y-80485000D01*
D43*
X175600000Y-65230000D02*
X174570000Y-65230000D01*
X167480000Y-60920000D02*
X168700000Y-59700000D01*
D44*
X149470000Y-79460000D02*
X149470000Y-79370000D01*
D43*
X168700000Y-59700000D02*
X169300000Y-59700000D01*
X152200000Y-80600000D02*
X152100000Y-80700000D01*
D40*
X165850000Y-59450000D02*
X165850000Y-58687500D01*
D43*
X169600000Y-59400000D02*
X176600000Y-59400000D01*
D40*
X157500000Y-64700000D02*
X157500000Y-71400000D01*
D43*
X149470000Y-79940000D02*
X150140000Y-79940000D01*
D45*
X170475000Y-73400000D02*
X170475000Y-73425000D01*
D44*
X169815000Y-80485000D02*
X168315000Y-80485000D01*
D40*
X152200000Y-76815000D02*
X153185000Y-76815000D01*
D44*
X173775000Y-77315000D02*
X173675000Y-77215000D01*
D40*
X166800000Y-63600000D02*
X158600000Y-63600000D01*
X158600000Y-63600000D02*
X157500000Y-64700000D01*
X153700000Y-74000000D02*
X154725000Y-74000000D01*
X153535000Y-76465000D02*
X153400000Y-76600000D01*
D45*
X170475000Y-73425000D02*
X168800000Y-75100000D01*
D40*
X167480000Y-62200000D02*
X167480000Y-62920000D01*
D44*
X173195000Y-77215000D02*
X172485000Y-77215000D01*
X146470000Y-79770000D02*
X146470000Y-78270000D01*
X172485000Y-77215000D02*
X172300000Y-77400000D01*
D43*
X176370000Y-65230000D02*
X175600000Y-65230000D01*
D40*
X166300000Y-59900000D02*
X165850000Y-59450000D01*
X167480000Y-62920000D02*
X166800000Y-63600000D01*
D44*
X147520000Y-74190000D02*
X147400000Y-74310000D01*
D43*
X167480000Y-62200000D02*
X167480000Y-60920000D01*
D45*
X175800000Y-70825000D02*
X176900000Y-69725000D01*
D44*
X173235000Y-80485000D02*
X173505000Y-80215000D01*
D43*
X173380000Y-66420000D02*
X171897543Y-66420000D01*
D45*
X176900000Y-69725000D02*
X176900000Y-64700000D01*
D40*
X167480000Y-62200000D02*
X167480000Y-60180000D01*
D44*
X149470000Y-79370000D02*
X149300000Y-79200000D01*
D43*
X176600000Y-59400000D02*
X177400000Y-60200000D01*
D44*
X168315000Y-80485000D02*
X168045000Y-80215000D01*
D40*
X167480000Y-60180000D02*
X167200000Y-59900000D01*
D45*
X168355000Y-75545000D02*
X168800000Y-75100000D01*
D43*
X169300000Y-59700000D02*
X169600000Y-59400000D01*
D40*
X154800000Y-76465000D02*
X153535000Y-76465000D01*
D44*
X149300000Y-79200000D02*
X149300000Y-78500000D01*
X146200000Y-76080000D02*
X146200000Y-74580000D01*
D43*
X174570000Y-65230000D02*
X173380000Y-66420000D01*
D44*
X167825000Y-78535000D02*
X167825000Y-77745000D01*
X146470000Y-78270000D02*
X146200000Y-78000000D01*
D40*
X153185000Y-76815000D02*
X153400000Y-76600000D01*
D43*
X171356426Y-65878883D02*
X171356426Y-65282500D01*
X150140000Y-79940000D02*
X150900000Y-80700000D01*
D44*
X146200000Y-74580000D02*
X146470000Y-74310000D01*
D40*
X154725000Y-74000000D02*
X154800000Y-73925000D01*
D44*
X149450000Y-74190000D02*
X147520000Y-74190000D01*
D43*
X152100000Y-80700000D02*
X150900000Y-80700000D01*
X177400000Y-60200000D02*
X177400000Y-61800000D01*
X171897543Y-66420000D02*
X171356426Y-65878883D01*
D40*
X157500000Y-71400000D02*
X157100000Y-71800000D01*
X167200000Y-59900000D02*
X166300000Y-59900000D01*
D41*
%TO.N,Net-(C3-Pad1)*%
X168600000Y-72325000D02*
X168600000Y-71200000D01*
X167600000Y-66500000D02*
X164500000Y-66500000D01*
X167525000Y-73400000D02*
X168600000Y-72325000D01*
X171356426Y-67557500D02*
X171356426Y-68443574D01*
X164000000Y-64805000D02*
X164000000Y-66000000D01*
X155122500Y-59100000D02*
X157400000Y-61377500D01*
X170406426Y-69393574D02*
X170406426Y-67557500D01*
X164500000Y-66500000D02*
X164000000Y-66000000D01*
X167600000Y-66500000D02*
X168600000Y-67500000D01*
X171356426Y-68443574D02*
X170406426Y-69393574D01*
X157400000Y-61377500D02*
X157400000Y-62100000D01*
X164005000Y-64800000D02*
X164000000Y-64805000D01*
X168600000Y-67500000D02*
X168600000Y-71200000D01*
X168600000Y-71200000D02*
X170406426Y-69393574D01*
D44*
%TO.N,/5V*%
X169425000Y-76300000D02*
X169425000Y-77335000D01*
X175000000Y-75600000D02*
X172000000Y-75600000D01*
X175800000Y-73775000D02*
X175800000Y-74800000D01*
X175800000Y-74800000D02*
X175000000Y-75600000D01*
X172000000Y-75600000D02*
X170125000Y-75600000D01*
D46*
X176800000Y-75600000D02*
X175000000Y-75600000D01*
X175426250Y-61000000D02*
X177900000Y-63473750D01*
X177900000Y-74500000D02*
X176800000Y-75600000D01*
D44*
X170125000Y-75600000D02*
X169425000Y-76300000D01*
X172900000Y-74700000D02*
X172000000Y-75600000D01*
D46*
X177900000Y-63473750D02*
X177900000Y-74500000D01*
D44*
X172900000Y-73740000D02*
X172900000Y-74700000D01*
D43*
%TO.N,Net-(D1-PadA)*%
X170373750Y-61000000D02*
X170373750Y-62173750D01*
X170373750Y-62173750D02*
X170373750Y-62273750D01*
X168800000Y-63900000D02*
X168800000Y-66500000D01*
X170373750Y-62326250D02*
X168800000Y-63900000D01*
X170373750Y-62273750D02*
X172306426Y-64206426D01*
X164205000Y-71000000D02*
X165600000Y-71000000D01*
X172306426Y-64206426D02*
X172306426Y-65282500D01*
X170373750Y-62173750D02*
X170373750Y-62326250D01*
X164005000Y-71200000D02*
X164205000Y-71000000D01*
D40*
%TO.N,Net-(D2-Pad1)*%
X162900000Y-78200000D02*
X162900000Y-75901600D01*
X156200000Y-80575000D02*
X156200000Y-79900000D01*
X156700000Y-79400000D02*
X161700000Y-79400000D01*
X156200000Y-79900000D02*
X156700000Y-79400000D01*
X161700000Y-79400000D02*
X162900000Y-78200000D01*
%TO.N,Net-(D2-Pad2)*%
X165300000Y-74361600D02*
X162900000Y-74361600D01*
%TO.N,Net-(D3-Pad1)*%
X163425000Y-80575000D02*
X165300000Y-78700000D01*
X160540000Y-80575000D02*
X163425000Y-80575000D01*
X165300000Y-78700000D02*
X165300000Y-75901600D01*
%TO.N,/OD*%
X167750000Y-57150000D02*
X167750000Y-56412500D01*
X163287500Y-58100000D02*
X164425500Y-58100000D01*
X167300000Y-57600000D02*
X167750000Y-57150000D01*
X163237500Y-58150000D02*
X163287500Y-58100000D01*
%TO.N,Net-(IC1-Pad2)*%
X165100000Y-62200000D02*
X164900000Y-62000000D01*
X164500000Y-57200000D02*
X163237500Y-57200000D01*
X164900000Y-57600000D02*
X164500000Y-57200000D01*
X165940000Y-62200000D02*
X165100000Y-62200000D01*
X164900000Y-62000000D02*
X164900000Y-57600000D01*
%TO.N,Net-(IC1-Pad3)*%
X163237500Y-56250000D02*
X165687500Y-56250000D01*
X165687500Y-56250000D02*
X165850000Y-56412500D01*
D41*
%TO.N,/BAT+*%
X157400000Y-63800000D02*
X158300000Y-62900000D01*
X160065000Y-77800000D02*
X161200000Y-77800000D01*
X158300000Y-62900000D02*
X158300000Y-57930000D01*
X155122500Y-63800000D02*
X157400000Y-63800000D01*
D40*
%TO.N,unconnected-(Q1-Pad2)*%
X166700000Y-58587500D02*
X166700000Y-56512500D01*
X166700000Y-56512500D02*
X166800000Y-56412500D01*
X166800000Y-58687500D02*
X166700000Y-58587500D01*
%TO.N,Net-(R3-Pad2)*%
X154720000Y-75275000D02*
X154800000Y-75195000D01*
X152200000Y-75275000D02*
X154720000Y-75275000D01*
D43*
%TO.N,Net-(R4-Pad2)*%
X170406426Y-65282500D02*
X170406426Y-64006426D01*
X170406426Y-64006426D02*
X170400000Y-64000000D01*
X175570000Y-66800000D02*
X174400000Y-66800000D01*
X175600000Y-66770000D02*
X175570000Y-66800000D01*
X172900000Y-70800000D02*
X175600000Y-68100000D01*
X175600000Y-68100000D02*
X175600000Y-66770000D01*
X172900000Y-72200000D02*
X172900000Y-70800000D01*
D40*
%TO.N,Net-(R6-Pad1)*%
X161050000Y-78950000D02*
X161875000Y-78125000D01*
X154660000Y-79540000D02*
X155250000Y-78950000D01*
X161875000Y-78125000D02*
X161875000Y-75975000D01*
X154660000Y-80575000D02*
X154660000Y-79540000D01*
X161095000Y-75195000D02*
X160000000Y-75195000D01*
X155250000Y-78950000D02*
X161050000Y-78950000D01*
X161875000Y-75975000D02*
X161095000Y-75195000D01*
%TO.N,Net-(R7-Pad1)*%
X159000000Y-80575000D02*
X157875000Y-80575000D01*
X160035000Y-76500000D02*
X160000000Y-76465000D01*
X157875000Y-80575000D02*
X157500000Y-80200000D01*
X161000000Y-76500000D02*
X160035000Y-76500000D01*
%TD*%
%TA.AperFunction,Conductor*%
%TO.N,GND*%
G36*
X173000320Y-79778328D02*
G01*
X173803023Y-80076017D01*
X173809589Y-80082107D01*
X173809758Y-80091481D01*
X173481141Y-80881419D01*
X173480980Y-80881805D01*
X173474638Y-80888127D01*
X173469531Y-80888993D01*
X173433722Y-80887009D01*
X173333009Y-80881428D01*
X173332647Y-80881402D01*
X173207071Y-80870532D01*
X173206748Y-80870500D01*
X173147528Y-80863714D01*
X173094419Y-80857628D01*
X173094294Y-80857613D01*
X173024140Y-80848227D01*
X172989624Y-80843609D01*
X172989565Y-80843601D01*
X172886991Y-80829343D01*
X172780950Y-80815713D01*
X172665895Y-80803594D01*
X172665884Y-80803593D01*
X172665846Y-80803589D01*
X172665812Y-80803586D01*
X172665785Y-80803584D01*
X172536137Y-80793850D01*
X172536112Y-80793849D01*
X172536064Y-80793845D01*
X172514522Y-80792914D01*
X172386066Y-80787360D01*
X172386042Y-80787359D01*
X172385987Y-80787357D01*
X172221542Y-80785155D01*
X172213317Y-80781618D01*
X172210000Y-80773456D01*
X172210000Y-80196322D01*
X172213427Y-80188049D01*
X172221315Y-80184628D01*
X172332634Y-80180963D01*
X172332636Y-80180963D01*
X172332874Y-80180955D01*
X172333115Y-80180927D01*
X172333118Y-80180927D01*
X172354385Y-80178476D01*
X172438363Y-80168800D01*
X172529269Y-80148499D01*
X172529607Y-80148377D01*
X172529615Y-80148375D01*
X172608025Y-80120153D01*
X172608027Y-80120152D01*
X172608394Y-80120020D01*
X172678541Y-80083328D01*
X172742512Y-80038390D01*
X172742741Y-80038189D01*
X172742746Y-80038185D01*
X172802926Y-79985334D01*
X172802932Y-79985329D01*
X172803110Y-79985172D01*
X172863137Y-79923639D01*
X172925396Y-79853759D01*
X172987383Y-79781670D01*
X172995375Y-79777631D01*
X173000320Y-79778328D01*
G37*
%TD.AperFunction*%
%TD*%
%TA.AperFunction,Conductor*%
%TO.N,/OD*%
G36*
X164362121Y-57967901D02*
G01*
X164365484Y-57970162D01*
X164372960Y-57977350D01*
X164491731Y-58091567D01*
X164495319Y-58099771D01*
X164491731Y-58108433D01*
X164370516Y-58225000D01*
X164365485Y-58229838D01*
X164357146Y-58233103D01*
X164353168Y-58232322D01*
X164347405Y-58230101D01*
X164347401Y-58230100D01*
X164347028Y-58229956D01*
X164338893Y-58228048D01*
X164332286Y-58226498D01*
X164332282Y-58226497D01*
X164332008Y-58226433D01*
X164331733Y-58226397D01*
X164331723Y-58226395D01*
X164315199Y-58224221D01*
X164315190Y-58224220D01*
X164314999Y-58224195D01*
X164314371Y-58224156D01*
X164296043Y-58223018D01*
X164296039Y-58223018D01*
X164295945Y-58223012D01*
X164295837Y-58223010D01*
X164295833Y-58223010D01*
X164289517Y-58222902D01*
X164274789Y-58222649D01*
X164274682Y-58222650D01*
X164274674Y-58222650D01*
X164269545Y-58222700D01*
X164251474Y-58222874D01*
X164251439Y-58222875D01*
X164251420Y-58222875D01*
X164242674Y-58223074D01*
X164225945Y-58223455D01*
X164198210Y-58224156D01*
X164198144Y-58224158D01*
X164168091Y-58224748D01*
X164167951Y-58224750D01*
X164147290Y-58224909D01*
X164138991Y-58221546D01*
X164135500Y-58213209D01*
X164135500Y-57986790D01*
X164138927Y-57978517D01*
X164147289Y-57975090D01*
X164155057Y-57975150D01*
X164167951Y-57975249D01*
X164168091Y-57975251D01*
X164198144Y-57975841D01*
X164198210Y-57975843D01*
X164225945Y-57976544D01*
X164242674Y-57976925D01*
X164251420Y-57977124D01*
X164251439Y-57977124D01*
X164251474Y-57977125D01*
X164269545Y-57977299D01*
X164274674Y-57977349D01*
X164274682Y-57977349D01*
X164274789Y-57977350D01*
X164289517Y-57977097D01*
X164295833Y-57976989D01*
X164295837Y-57976989D01*
X164295945Y-57976987D01*
X164296039Y-57976981D01*
X164296043Y-57976981D01*
X164314806Y-57975816D01*
X164314999Y-57975804D01*
X164315190Y-57975779D01*
X164315199Y-57975778D01*
X164331723Y-57973604D01*
X164331733Y-57973602D01*
X164332008Y-57973566D01*
X164332282Y-57973502D01*
X164332286Y-57973501D01*
X164339950Y-57971703D01*
X164347028Y-57970043D01*
X164347402Y-57969899D01*
X164347405Y-57969898D01*
X164353169Y-57967677D01*
X164362121Y-57967901D01*
G37*
%TD.AperFunction*%
%TD*%
%TA.AperFunction,Conductor*%
%TO.N,GND*%
G36*
X168671670Y-76128427D02*
G01*
X168675097Y-76136602D01*
X168676013Y-76246254D01*
X168679380Y-76351565D01*
X168685593Y-76443893D01*
X168685608Y-76444022D01*
X168695121Y-76526029D01*
X168695123Y-76526045D01*
X168695141Y-76526197D01*
X168708518Y-76601437D01*
X168726212Y-76672572D01*
X168726272Y-76672759D01*
X168726275Y-76672769D01*
X168748655Y-76742371D01*
X168748661Y-76742389D01*
X168748717Y-76742562D01*
X168776522Y-76814367D01*
X168810119Y-76890947D01*
X168810152Y-76891016D01*
X168846549Y-76967966D01*
X168846988Y-76976910D01*
X168844405Y-76981079D01*
X168677249Y-77154901D01*
X168355000Y-77490000D01*
X167865595Y-76981079D01*
X167862330Y-76972740D01*
X167863451Y-76967966D01*
X167899847Y-76891016D01*
X167899880Y-76890947D01*
X167933477Y-76814367D01*
X167961282Y-76742562D01*
X167961338Y-76742389D01*
X167961344Y-76742371D01*
X167983724Y-76672769D01*
X167983727Y-76672759D01*
X167983787Y-76672572D01*
X168001481Y-76601437D01*
X168014858Y-76526197D01*
X168014876Y-76526045D01*
X168014878Y-76526029D01*
X168024391Y-76444022D01*
X168024406Y-76443893D01*
X168030619Y-76351565D01*
X168033986Y-76246254D01*
X168034903Y-76136602D01*
X168038399Y-76128358D01*
X168046603Y-76125000D01*
X168663397Y-76125000D01*
X168671670Y-76128427D01*
G37*
%TD.AperFunction*%
%TD*%
%TA.AperFunction,Conductor*%
%TO.N,GND*%
G36*
X150010035Y-79423582D02*
G01*
X150011869Y-79424135D01*
X150018803Y-79429802D01*
X150020064Y-79433598D01*
X150028620Y-79490563D01*
X150048120Y-79541992D01*
X150076481Y-79583567D01*
X150096407Y-79602665D01*
X150112423Y-79618017D01*
X150112428Y-79618021D01*
X150112720Y-79618301D01*
X150113054Y-79618540D01*
X150113056Y-79618542D01*
X150155685Y-79649083D01*
X150155692Y-79649087D01*
X150155853Y-79649203D01*
X150156028Y-79649310D01*
X150156035Y-79649315D01*
X150204877Y-79679272D01*
X150204897Y-79679284D01*
X150258715Y-79711463D01*
X150259020Y-79711653D01*
X150293337Y-79733855D01*
X150316449Y-79748809D01*
X150317115Y-79749274D01*
X150377228Y-79794382D01*
X150378058Y-79795066D01*
X150431404Y-79843360D01*
X150435238Y-79851453D01*
X150431825Y-79860307D01*
X150059309Y-80232823D01*
X150051036Y-80236250D01*
X150043381Y-80233398D01*
X149953400Y-80155544D01*
X149953399Y-80155544D01*
X149953037Y-80155230D01*
X149859042Y-80097704D01*
X149858580Y-80097521D01*
X149858574Y-80097518D01*
X149769080Y-80062063D01*
X149768661Y-80061897D01*
X149680929Y-80041764D01*
X149594881Y-80031261D01*
X149594794Y-80031254D01*
X149594785Y-80031253D01*
X149546235Y-80027317D01*
X149509687Y-80024354D01*
X149509380Y-80024324D01*
X149424519Y-80015025D01*
X149423434Y-80014854D01*
X149338021Y-79997256D01*
X149336377Y-79996789D01*
X149249167Y-79965000D01*
X149247340Y-79964149D01*
X149163830Y-79916076D01*
X149158370Y-79908979D01*
X149158341Y-79903002D01*
X149224114Y-79649083D01*
X149335179Y-79220317D01*
X150010035Y-79423582D01*
G37*
%TD.AperFunction*%
%TD*%
%TA.AperFunction,Conductor*%
%TO.N,GND*%
G36*
X168558626Y-79778664D02*
G01*
X168562617Y-79781670D01*
X168624603Y-79853759D01*
X168686862Y-79923639D01*
X168746889Y-79985172D01*
X168747067Y-79985329D01*
X168747073Y-79985334D01*
X168807253Y-80038185D01*
X168807258Y-80038189D01*
X168807487Y-80038390D01*
X168871458Y-80083328D01*
X168941605Y-80120020D01*
X168941972Y-80120152D01*
X168941974Y-80120153D01*
X169020384Y-80148375D01*
X169020392Y-80148377D01*
X169020730Y-80148499D01*
X169111636Y-80168800D01*
X169195614Y-80178476D01*
X169216881Y-80180927D01*
X169216884Y-80180927D01*
X169217125Y-80180955D01*
X169217363Y-80180963D01*
X169217365Y-80180963D01*
X169328685Y-80184628D01*
X169336841Y-80188326D01*
X169340000Y-80196322D01*
X169340000Y-80773456D01*
X169336573Y-80781729D01*
X169328458Y-80785155D01*
X169164012Y-80787357D01*
X169163957Y-80787359D01*
X169163933Y-80787360D01*
X169035477Y-80792914D01*
X169013935Y-80793845D01*
X169013887Y-80793849D01*
X169013862Y-80793850D01*
X168884214Y-80803584D01*
X168884187Y-80803586D01*
X168884153Y-80803589D01*
X168884115Y-80803593D01*
X168884104Y-80803594D01*
X168769049Y-80815713D01*
X168663008Y-80829343D01*
X168560434Y-80843601D01*
X168560375Y-80843609D01*
X168525859Y-80848227D01*
X168455705Y-80857613D01*
X168455580Y-80857628D01*
X168402471Y-80863714D01*
X168343251Y-80870500D01*
X168342928Y-80870532D01*
X168217352Y-80881402D01*
X168216990Y-80881428D01*
X168116767Y-80886982D01*
X168080470Y-80888993D01*
X168072020Y-80886029D01*
X168069020Y-80881805D01*
X168068860Y-80881419D01*
X167740242Y-80091481D01*
X167740229Y-80082526D01*
X167746977Y-80076017D01*
X168549679Y-79778328D01*
X168558626Y-79778664D01*
G37*
%TD.AperFunction*%
%TD*%
%TA.AperFunction,Conductor*%
%TO.N,GND*%
G36*
X149596872Y-78503427D02*
G01*
X149600295Y-78511397D01*
X149602076Y-78580232D01*
X149608295Y-78652520D01*
X149618640Y-78717523D01*
X149633098Y-78775902D01*
X149633199Y-78776186D01*
X149651546Y-78828022D01*
X149651550Y-78828031D01*
X149651651Y-78828317D01*
X149674286Y-78875429D01*
X149700986Y-78917897D01*
X149731736Y-78956382D01*
X149766521Y-78991545D01*
X149766729Y-78991719D01*
X149799060Y-79018798D01*
X149803203Y-79026738D01*
X149802556Y-79031733D01*
X149696328Y-79326668D01*
X149696328Y-79326670D01*
X149553992Y-79721859D01*
X148950491Y-79305148D01*
X148945631Y-79297628D01*
X148945859Y-79292419D01*
X148962439Y-79232113D01*
X148962483Y-79231953D01*
X148976774Y-79165790D01*
X148987130Y-79100109D01*
X148994154Y-79033077D01*
X148998447Y-78962864D01*
X148998634Y-78956382D01*
X149000607Y-78887730D01*
X149000610Y-78887639D01*
X149000703Y-78875720D01*
X149001245Y-78805571D01*
X149001245Y-78805533D01*
X149000954Y-78714829D01*
X149000954Y-78714758D01*
X149000338Y-78613583D01*
X149000338Y-78613547D01*
X149000035Y-78511735D01*
X149003437Y-78503452D01*
X149011735Y-78500000D01*
X149588599Y-78500000D01*
X149596872Y-78503427D01*
G37*
%TD.AperFunction*%
%TD*%
%TA.AperFunction,Conductor*%
%TO.N,GND*%
G36*
X153772333Y-73867678D02*
G01*
X153778098Y-73869900D01*
X153778107Y-73869903D01*
X153778471Y-73870043D01*
X153778852Y-73870132D01*
X153778854Y-73870133D01*
X153793213Y-73873501D01*
X153793217Y-73873502D01*
X153793491Y-73873566D01*
X153793766Y-73873602D01*
X153793776Y-73873604D01*
X153810300Y-73875778D01*
X153810309Y-73875779D01*
X153810500Y-73875804D01*
X153810693Y-73875816D01*
X153829456Y-73876981D01*
X153829460Y-73876981D01*
X153829554Y-73876987D01*
X153829662Y-73876989D01*
X153829666Y-73876989D01*
X153835982Y-73877097D01*
X153850710Y-73877350D01*
X153850817Y-73877349D01*
X153850825Y-73877349D01*
X153855954Y-73877299D01*
X153874025Y-73877125D01*
X153874060Y-73877124D01*
X153874079Y-73877124D01*
X153882825Y-73876925D01*
X153899554Y-73876544D01*
X153927289Y-73875843D01*
X153927355Y-73875841D01*
X153957408Y-73875251D01*
X153957548Y-73875249D01*
X153970489Y-73875149D01*
X153978211Y-73875090D01*
X153986509Y-73878453D01*
X153990000Y-73886790D01*
X153990000Y-74113209D01*
X153986573Y-74121482D01*
X153978210Y-74124909D01*
X153957548Y-74124750D01*
X153957408Y-74124748D01*
X153927355Y-74124158D01*
X153927289Y-74124156D01*
X153899554Y-74123455D01*
X153882825Y-74123074D01*
X153874079Y-74122875D01*
X153874060Y-74122875D01*
X153874025Y-74122874D01*
X153855954Y-74122700D01*
X153850825Y-74122650D01*
X153850817Y-74122650D01*
X153850710Y-74122649D01*
X153835982Y-74122902D01*
X153829666Y-74123010D01*
X153829662Y-74123010D01*
X153829554Y-74123012D01*
X153829460Y-74123018D01*
X153829456Y-74123018D01*
X153811128Y-74124156D01*
X153810500Y-74124195D01*
X153810309Y-74124220D01*
X153810300Y-74124221D01*
X153793776Y-74126395D01*
X153793766Y-74126397D01*
X153793491Y-74126433D01*
X153793217Y-74126497D01*
X153793213Y-74126498D01*
X153786606Y-74128048D01*
X153778471Y-74129956D01*
X153772332Y-74132322D01*
X153763381Y-74132100D01*
X153760015Y-74129838D01*
X153754984Y-74125000D01*
X153633769Y-74008433D01*
X153630181Y-74000229D01*
X153633769Y-73991567D01*
X153751394Y-73878453D01*
X153760015Y-73870162D01*
X153768354Y-73866897D01*
X153772333Y-73867678D01*
G37*
%TD.AperFunction*%
%TD*%
%TA.AperFunction,Conductor*%
%TO.N,/OD*%
G36*
X167425008Y-57314889D02*
G01*
X167585111Y-57474992D01*
X167588538Y-57483265D01*
X167585047Y-57491601D01*
X167570280Y-57506143D01*
X167548557Y-57527029D01*
X167528401Y-57546190D01*
X167509939Y-57563831D01*
X167493294Y-57580158D01*
X167478591Y-57595373D01*
X167478486Y-57595492D01*
X167466094Y-57609525D01*
X167466087Y-57609534D01*
X167465955Y-57609683D01*
X167455510Y-57623292D01*
X167447380Y-57636405D01*
X167447218Y-57636771D01*
X167447216Y-57636774D01*
X167444712Y-57642419D01*
X167438224Y-57648591D01*
X167434248Y-57649372D01*
X167308323Y-57651833D01*
X167259132Y-57652795D01*
X167250793Y-57649530D01*
X167247205Y-57640868D01*
X167249431Y-57526983D01*
X167250628Y-57465752D01*
X167254216Y-57457549D01*
X167257580Y-57455288D01*
X167263227Y-57452782D01*
X167263229Y-57452781D01*
X167263594Y-57452619D01*
X167276707Y-57444489D01*
X167290316Y-57434044D01*
X167290465Y-57433912D01*
X167290474Y-57433905D01*
X167304507Y-57421513D01*
X167304626Y-57421408D01*
X167319841Y-57406705D01*
X167336168Y-57390060D01*
X167353809Y-57371598D01*
X167372970Y-57351442D01*
X167393796Y-57329782D01*
X167393894Y-57329681D01*
X167408399Y-57314952D01*
X167416645Y-57311462D01*
X167425008Y-57314889D01*
G37*
%TD.AperFunction*%
%TD*%
%TA.AperFunction,Conductor*%
%TO.N,Net-(R7-Pad1)*%
G36*
X157508323Y-80148167D02*
G01*
X157634247Y-80150628D01*
X157642450Y-80154216D01*
X157644712Y-80157581D01*
X157647380Y-80163594D01*
X157655510Y-80176707D01*
X157665955Y-80190316D01*
X157666087Y-80190465D01*
X157666094Y-80190474D01*
X157676839Y-80202642D01*
X157678591Y-80204626D01*
X157693294Y-80219841D01*
X157709939Y-80236168D01*
X157728401Y-80253809D01*
X157748557Y-80272970D01*
X157770280Y-80293856D01*
X157785049Y-80308400D01*
X157788539Y-80316644D01*
X157785112Y-80325007D01*
X157625007Y-80485112D01*
X157616734Y-80488539D01*
X157608400Y-80485049D01*
X157593856Y-80470280D01*
X157572970Y-80448557D01*
X157553809Y-80428401D01*
X157536168Y-80409939D01*
X157519841Y-80393294D01*
X157504626Y-80378591D01*
X157502642Y-80376839D01*
X157490474Y-80366094D01*
X157490465Y-80366087D01*
X157490316Y-80365955D01*
X157476707Y-80355510D01*
X157463594Y-80347380D01*
X157463228Y-80347218D01*
X157463225Y-80347216D01*
X157457581Y-80344712D01*
X157451408Y-80338224D01*
X157450628Y-80334246D01*
X157450448Y-80325007D01*
X157447553Y-80176935D01*
X157447205Y-80159132D01*
X157450470Y-80150793D01*
X157459132Y-80147205D01*
X157508323Y-80148167D01*
G37*
%TD.AperFunction*%
%TD*%
%TA.AperFunction,Conductor*%
%TO.N,/BAT-*%
G36*
X172616717Y-56220408D02*
G01*
X172620156Y-56222702D01*
X173003731Y-56591567D01*
X173007319Y-56599771D01*
X173003731Y-56608433D01*
X172620156Y-56977298D01*
X172611817Y-56980563D01*
X172607763Y-56979753D01*
X172573891Y-56966430D01*
X172528377Y-56955164D01*
X172515384Y-56953313D01*
X172478059Y-56947996D01*
X172478046Y-56947995D01*
X172477859Y-56947968D01*
X172421990Y-56944110D01*
X172421852Y-56944107D01*
X172421848Y-56944107D01*
X172360493Y-56942857D01*
X172360472Y-56942857D01*
X172360423Y-56942856D01*
X172292812Y-56943473D01*
X172218811Y-56945229D01*
X172138073Y-56947391D01*
X172138004Y-56947392D01*
X172050391Y-56949222D01*
X172050242Y-56949225D01*
X171966795Y-56949904D01*
X171958494Y-56946544D01*
X171955000Y-56938204D01*
X171955000Y-56261796D01*
X171958427Y-56253523D01*
X171966795Y-56250096D01*
X172050242Y-56250774D01*
X172050391Y-56250777D01*
X172138004Y-56252607D01*
X172138073Y-56252608D01*
X172218811Y-56254770D01*
X172292812Y-56256526D01*
X172360423Y-56257143D01*
X172360472Y-56257142D01*
X172360493Y-56257142D01*
X172421848Y-56255892D01*
X172421852Y-56255892D01*
X172421990Y-56255889D01*
X172477859Y-56252031D01*
X172478046Y-56252004D01*
X172478059Y-56252003D01*
X172515384Y-56246686D01*
X172528377Y-56244835D01*
X172573891Y-56233569D01*
X172575221Y-56233046D01*
X172607764Y-56220247D01*
X172616717Y-56220408D01*
G37*
%TD.AperFunction*%
%TD*%
%TA.AperFunction,Conductor*%
%TO.N,GND*%
G36*
X153639957Y-76343773D02*
G01*
X153644043Y-76351742D01*
X153644081Y-76352689D01*
X153644081Y-76579001D01*
X153640654Y-76587274D01*
X153633105Y-76590679D01*
X153629172Y-76590923D01*
X153627052Y-76591054D01*
X153611467Y-76594014D01*
X153597350Y-76598569D01*
X153592320Y-76600897D01*
X153585034Y-76604268D01*
X153585028Y-76604271D01*
X153584726Y-76604411D01*
X153573619Y-76611233D01*
X153564053Y-76618724D01*
X153556053Y-76626578D01*
X153555850Y-76626828D01*
X153555844Y-76626835D01*
X153549866Y-76634211D01*
X153549644Y-76634485D01*
X153544848Y-76642137D01*
X153544687Y-76642499D01*
X153544485Y-76642878D01*
X153544328Y-76642794D01*
X153538231Y-76648592D01*
X153534257Y-76649371D01*
X153500583Y-76650030D01*
X153450999Y-76650999D01*
X153346967Y-76653033D01*
X153398130Y-76457159D01*
X153403536Y-76450021D01*
X153407268Y-76448621D01*
X153411094Y-76447895D01*
X153416231Y-76446920D01*
X153433094Y-76438560D01*
X153437803Y-76435326D01*
X153450914Y-76426323D01*
X153450928Y-76426313D01*
X153451034Y-76426240D01*
X153470495Y-76411280D01*
X153491699Y-76395169D01*
X153492155Y-76394840D01*
X153515334Y-76379009D01*
X153516212Y-76378465D01*
X153520277Y-76376186D01*
X153541834Y-76364102D01*
X153543101Y-76363490D01*
X153571638Y-76351767D01*
X153573269Y-76351233D01*
X153605244Y-76343308D01*
X153607100Y-76343004D01*
X153631435Y-76341027D01*
X153639957Y-76343773D01*
G37*
%TD.AperFunction*%
%TD*%
%TA.AperFunction,Conductor*%
%TO.N,/BAT+*%
G36*
X155734931Y-62555701D02*
G01*
X155937743Y-62673950D01*
X155938901Y-62674720D01*
X156131095Y-62819870D01*
X156131706Y-62820365D01*
X156310355Y-62975184D01*
X156310485Y-62975298D01*
X156479458Y-63126394D01*
X156642426Y-63260111D01*
X156803334Y-63363028D01*
X156803944Y-63363248D01*
X156803946Y-63363249D01*
X156965232Y-63421421D01*
X156965233Y-63421421D01*
X156966167Y-63421758D01*
X156967159Y-63421765D01*
X156967160Y-63421765D01*
X157023244Y-63422149D01*
X157134910Y-63422914D01*
X157135943Y-63422510D01*
X157135945Y-63422510D01*
X157312722Y-63353433D01*
X157312723Y-63353432D01*
X157313548Y-63353110D01*
X157497888Y-63205508D01*
X157506488Y-63203012D01*
X157513474Y-63206368D01*
X157992312Y-63685206D01*
X157995739Y-63693479D01*
X157991857Y-63702182D01*
X157778638Y-63893700D01*
X157777555Y-63894563D01*
X157582180Y-64031819D01*
X157571696Y-64039185D01*
X157570473Y-64039936D01*
X157377360Y-64142852D01*
X157376241Y-64143374D01*
X157192378Y-64217592D01*
X157191686Y-64217846D01*
X157013550Y-64276296D01*
X156838171Y-64331757D01*
X156728189Y-64372674D01*
X156662959Y-64396942D01*
X156662954Y-64396944D01*
X156662691Y-64397042D01*
X156483907Y-64485079D01*
X156389299Y-64548245D01*
X156298940Y-64608574D01*
X156298937Y-64608577D01*
X156298614Y-64608792D01*
X156298315Y-64609056D01*
X156298314Y-64609057D01*
X156109960Y-64775499D01*
X156101492Y-64778410D01*
X156096299Y-64776827D01*
X154442088Y-63807813D01*
X154436682Y-63800675D01*
X154437907Y-63791804D01*
X154439892Y-63789285D01*
X154530468Y-63702183D01*
X155286458Y-62975184D01*
X155720928Y-62557375D01*
X155729267Y-62554110D01*
X155734931Y-62555701D01*
G37*
%TD.AperFunction*%
%TD*%
%TA.AperFunction,Conductor*%
%TO.N,GND*%
G36*
X148672061Y-73894049D02*
G01*
X148696552Y-73895020D01*
X148697548Y-73895103D01*
X148729817Y-73899175D01*
X148804957Y-73908657D01*
X148805954Y-73908827D01*
X148898699Y-73928788D01*
X148899553Y-73929006D01*
X148981667Y-73953274D01*
X148982226Y-73953454D01*
X149023485Y-73967935D01*
X149057827Y-73979989D01*
X149057902Y-73980015D01*
X149088325Y-73991137D01*
X149130648Y-74006610D01*
X149130664Y-74006616D01*
X149130731Y-74006640D01*
X149204477Y-74031119D01*
X149253085Y-74043599D01*
X149282732Y-74051211D01*
X149282738Y-74051212D01*
X149283002Y-74051280D01*
X149370208Y-74064960D01*
X149420863Y-74067518D01*
X149461147Y-74069553D01*
X149469237Y-74073393D01*
X149471966Y-74078642D01*
X149624087Y-74747486D01*
X149639908Y-74817049D01*
X149638401Y-74825876D01*
X149631094Y-74831053D01*
X149627078Y-74831257D01*
X149187402Y-74777459D01*
X148942436Y-74747486D01*
X148934641Y-74743080D01*
X148932616Y-74739114D01*
X148920840Y-74698234D01*
X148902861Y-74654872D01*
X148880464Y-74616492D01*
X148853291Y-74583125D01*
X148820986Y-74554803D01*
X148783193Y-74531559D01*
X148782778Y-74531386D01*
X148782771Y-74531383D01*
X148739932Y-74513582D01*
X148739931Y-74513582D01*
X148739554Y-74513425D01*
X148739164Y-74513323D01*
X148739160Y-74513322D01*
X148690047Y-74500519D01*
X148690046Y-74500519D01*
X148689713Y-74500432D01*
X148689371Y-74500385D01*
X148689368Y-74500384D01*
X148670014Y-74497701D01*
X148633314Y-74492613D01*
X148633041Y-74492602D01*
X148633033Y-74492601D01*
X148584540Y-74490600D01*
X148581218Y-74490463D01*
X148573093Y-74486698D01*
X148570000Y-74478773D01*
X148570000Y-73902174D01*
X148573427Y-73893901D01*
X148582164Y-73890483D01*
X148672061Y-73894049D01*
G37*
%TD.AperFunction*%
%TD*%
%TA.AperFunction,Conductor*%
%TO.N,GND*%
G36*
X146608983Y-74011977D02*
G01*
X146871802Y-74720652D01*
X146906672Y-74814678D01*
X146906336Y-74823626D01*
X146903330Y-74827617D01*
X146831240Y-74889603D01*
X146761360Y-74951862D01*
X146699827Y-75011889D01*
X146699670Y-75012067D01*
X146699665Y-75012073D01*
X146646814Y-75072253D01*
X146646810Y-75072258D01*
X146646609Y-75072487D01*
X146601671Y-75136458D01*
X146564979Y-75206605D01*
X146564847Y-75206972D01*
X146564846Y-75206974D01*
X146536624Y-75285384D01*
X146536622Y-75285392D01*
X146536500Y-75285730D01*
X146516199Y-75376636D01*
X146504044Y-75482125D01*
X146504036Y-75482363D01*
X146504036Y-75482365D01*
X146500372Y-75593685D01*
X146496675Y-75601841D01*
X146488678Y-75605000D01*
X145911544Y-75605000D01*
X145903271Y-75601573D01*
X145899845Y-75593457D01*
X145897643Y-75429087D01*
X145897642Y-75429012D01*
X145891154Y-75278935D01*
X145885752Y-75206974D01*
X145881415Y-75149214D01*
X145881413Y-75149187D01*
X145881410Y-75149153D01*
X145880041Y-75136150D01*
X145869286Y-75034049D01*
X145855656Y-74928008D01*
X145841395Y-74825414D01*
X145841387Y-74825355D01*
X145827391Y-74720745D01*
X145827364Y-74720525D01*
X145814499Y-74608251D01*
X145814467Y-74607928D01*
X145803597Y-74482352D01*
X145803571Y-74481990D01*
X145796007Y-74345470D01*
X145798971Y-74337020D01*
X145803194Y-74334021D01*
X146593519Y-74005242D01*
X146602474Y-74005229D01*
X146608983Y-74011977D01*
G37*
%TD.AperFunction*%
%TD*%
%TA.AperFunction,Conductor*%
%TO.N,GND*%
G36*
X172812745Y-76829989D02*
G01*
X173470000Y-77215000D01*
X173118565Y-77424129D01*
X172954612Y-77521693D01*
X172816961Y-77603605D01*
X172808099Y-77604891D01*
X172803650Y-77602671D01*
X172795227Y-77595903D01*
X172795220Y-77595898D01*
X172794895Y-77595637D01*
X172773961Y-77583248D01*
X172748147Y-77571738D01*
X172747842Y-77571641D01*
X172747835Y-77571638D01*
X172732238Y-77566662D01*
X172718421Y-77562254D01*
X172718095Y-77562191D01*
X172718087Y-77562189D01*
X172686129Y-77556017D01*
X172685751Y-77555944D01*
X172651106Y-77553954D01*
X172650655Y-77553998D01*
X172615965Y-77557381D01*
X172615964Y-77557381D01*
X172615453Y-77557431D01*
X172579761Y-77567521D01*
X172544998Y-77585373D01*
X172544524Y-77585759D01*
X172520323Y-77605463D01*
X172511744Y-77608029D01*
X172504663Y-77604663D01*
X172096664Y-77196664D01*
X172093237Y-77188391D01*
X172097186Y-77179627D01*
X172173691Y-77111963D01*
X172174797Y-77111097D01*
X172261093Y-77051550D01*
X172262177Y-77050886D01*
X172347985Y-77004528D01*
X172348947Y-77004064D01*
X172432756Y-76968235D01*
X172433510Y-76967943D01*
X172513829Y-76939992D01*
X172514269Y-76939849D01*
X172543691Y-76930972D01*
X172589500Y-76917152D01*
X172589588Y-76917125D01*
X172658169Y-76897021D01*
X172658228Y-76897001D01*
X172658245Y-76896996D01*
X172688789Y-76886771D01*
X172718181Y-76876931D01*
X172718458Y-76876805D01*
X172718462Y-76876803D01*
X172767471Y-76854432D01*
X172768023Y-76854180D01*
X172799887Y-76830670D01*
X172808578Y-76828516D01*
X172812745Y-76829989D01*
G37*
%TD.AperFunction*%
%TD*%
%TA.AperFunction,Conductor*%
%TO.N,GND*%
G36*
X173597008Y-77208701D02*
G01*
X173735126Y-77214580D01*
X173743246Y-77218355D01*
X173746236Y-77224806D01*
X173754240Y-77288302D01*
X173779320Y-77348739D01*
X173779709Y-77349280D01*
X173779711Y-77349283D01*
X173816024Y-77399743D01*
X173816028Y-77399747D01*
X173816280Y-77400098D01*
X173861160Y-77446166D01*
X173861285Y-77446280D01*
X173909908Y-77490647D01*
X173910121Y-77490847D01*
X173958405Y-77537164D01*
X173959229Y-77538040D01*
X174003069Y-77589736D01*
X174004226Y-77591364D01*
X174040038Y-77652194D01*
X174041073Y-77654482D01*
X174065359Y-77728492D01*
X174065886Y-77730994D01*
X174073735Y-77810732D01*
X174071135Y-77819301D01*
X174063237Y-77823522D01*
X174062091Y-77823578D01*
X173485788Y-77823578D01*
X173477515Y-77820151D01*
X173474126Y-77812825D01*
X173473456Y-77804582D01*
X173473416Y-77804085D01*
X173468903Y-77786668D01*
X173461812Y-77771448D01*
X173452499Y-77758545D01*
X173452087Y-77758159D01*
X173452084Y-77758156D01*
X173447183Y-77753569D01*
X173441316Y-77748078D01*
X173428618Y-77740168D01*
X173414758Y-77734934D01*
X173400091Y-77732499D01*
X173399520Y-77732517D01*
X173399518Y-77732517D01*
X173392990Y-77732725D01*
X173384969Y-77732980D01*
X173376900Y-77734846D01*
X173368068Y-77733371D01*
X173365148Y-77730781D01*
X173269741Y-77612132D01*
X173125968Y-77433335D01*
X173120023Y-77425942D01*
X173118565Y-77424129D01*
X172922240Y-77179979D01*
X173597008Y-77208701D01*
G37*
%TD.AperFunction*%
%TD*%
%TA.AperFunction,Conductor*%
%TO.N,GND*%
G36*
X146766827Y-78428427D02*
G01*
X146770251Y-78436443D01*
X146773327Y-78576537D01*
X146783196Y-78705706D01*
X146799439Y-78817025D01*
X146821888Y-78915007D01*
X146850375Y-79004171D01*
X146884732Y-79089032D01*
X146884799Y-79089174D01*
X146924757Y-79174036D01*
X146924772Y-79174067D01*
X146924791Y-79174107D01*
X146924825Y-79174175D01*
X146970384Y-79263911D01*
X146970417Y-79263976D01*
X147021318Y-79362915D01*
X147021388Y-79363053D01*
X147073826Y-79468394D01*
X147074445Y-79477327D01*
X147071785Y-79481718D01*
X146478433Y-80098731D01*
X146470229Y-80102319D01*
X146461567Y-80098731D01*
X145868215Y-79481718D01*
X145864950Y-79473379D01*
X145866174Y-79468394D01*
X145918611Y-79363053D01*
X145918681Y-79362915D01*
X145969582Y-79263976D01*
X145969615Y-79263911D01*
X146015174Y-79174175D01*
X146015208Y-79174107D01*
X146015227Y-79174067D01*
X146015242Y-79174036D01*
X146055200Y-79089174D01*
X146055267Y-79089032D01*
X146089624Y-79004171D01*
X146118111Y-78915007D01*
X146140560Y-78817025D01*
X146156803Y-78705706D01*
X146166672Y-78576537D01*
X146169749Y-78436443D01*
X146173357Y-78428247D01*
X146181446Y-78425000D01*
X146758554Y-78425000D01*
X146766827Y-78428427D01*
G37*
%TD.AperFunction*%
%TD*%
%TA.AperFunction,Conductor*%
%TO.N,GND*%
G36*
X153450999Y-76650999D02*
G01*
X153449553Y-76725008D01*
X153449372Y-76734246D01*
X153445784Y-76742450D01*
X153442419Y-76744712D01*
X153436774Y-76747216D01*
X153436771Y-76747218D01*
X153436405Y-76747380D01*
X153423292Y-76755510D01*
X153409683Y-76765955D01*
X153409534Y-76766087D01*
X153409525Y-76766094D01*
X153397357Y-76776839D01*
X153395373Y-76778591D01*
X153380158Y-76793294D01*
X153363831Y-76809939D01*
X153363797Y-76809975D01*
X153346190Y-76828401D01*
X153346173Y-76828419D01*
X153327075Y-76848509D01*
X153327029Y-76848557D01*
X153306204Y-76870217D01*
X153306107Y-76870317D01*
X153291602Y-76885047D01*
X153283355Y-76888538D01*
X153274992Y-76885111D01*
X153114889Y-76725008D01*
X153111462Y-76716735D01*
X153114952Y-76708399D01*
X153129681Y-76693894D01*
X153129782Y-76693796D01*
X153151394Y-76673016D01*
X153151442Y-76672970D01*
X153171598Y-76653809D01*
X153171602Y-76653805D01*
X153174586Y-76650954D01*
X153190060Y-76636168D01*
X153206705Y-76619841D01*
X153221408Y-76604626D01*
X153223160Y-76602642D01*
X153233905Y-76590474D01*
X153233912Y-76590465D01*
X153234044Y-76590316D01*
X153244489Y-76576707D01*
X153252619Y-76563594D01*
X153255288Y-76557580D01*
X153261776Y-76551408D01*
X153265750Y-76550629D01*
X153374270Y-76548507D01*
X153453033Y-76546967D01*
X153450999Y-76650999D01*
G37*
%TD.AperFunction*%
%TD*%
%TA.AperFunction,Conductor*%
%TO.N,Net-(R7-Pad1)*%
G36*
X160936621Y-76367901D02*
G01*
X160939984Y-76370162D01*
X160947460Y-76377350D01*
X161066231Y-76491567D01*
X161069819Y-76499771D01*
X161066231Y-76508433D01*
X160945016Y-76625000D01*
X160939985Y-76629838D01*
X160931646Y-76633103D01*
X160927668Y-76632322D01*
X160921905Y-76630101D01*
X160921901Y-76630100D01*
X160921528Y-76629956D01*
X160913393Y-76628048D01*
X160906786Y-76626498D01*
X160906782Y-76626497D01*
X160906508Y-76626433D01*
X160906233Y-76626397D01*
X160906223Y-76626395D01*
X160889699Y-76624221D01*
X160889690Y-76624220D01*
X160889499Y-76624195D01*
X160888871Y-76624156D01*
X160870543Y-76623018D01*
X160870539Y-76623018D01*
X160870445Y-76623012D01*
X160870337Y-76623010D01*
X160870333Y-76623010D01*
X160864017Y-76622902D01*
X160849289Y-76622649D01*
X160849182Y-76622650D01*
X160849174Y-76622650D01*
X160844045Y-76622700D01*
X160825974Y-76622874D01*
X160825939Y-76622875D01*
X160825920Y-76622875D01*
X160817174Y-76623074D01*
X160800445Y-76623455D01*
X160772710Y-76624156D01*
X160772644Y-76624158D01*
X160742591Y-76624748D01*
X160742451Y-76624750D01*
X160721790Y-76624909D01*
X160713491Y-76621546D01*
X160710000Y-76613209D01*
X160710000Y-76386790D01*
X160713427Y-76378517D01*
X160721789Y-76375090D01*
X160729557Y-76375150D01*
X160742451Y-76375249D01*
X160742591Y-76375251D01*
X160772644Y-76375841D01*
X160772710Y-76375843D01*
X160800445Y-76376544D01*
X160817174Y-76376925D01*
X160825920Y-76377124D01*
X160825939Y-76377124D01*
X160825974Y-76377125D01*
X160844045Y-76377299D01*
X160849174Y-76377349D01*
X160849182Y-76377349D01*
X160849289Y-76377350D01*
X160864017Y-76377097D01*
X160870333Y-76376989D01*
X160870337Y-76376989D01*
X160870445Y-76376987D01*
X160870539Y-76376981D01*
X160870543Y-76376981D01*
X160889306Y-76375816D01*
X160889499Y-76375804D01*
X160889690Y-76375779D01*
X160889699Y-76375778D01*
X160906223Y-76373604D01*
X160906233Y-76373602D01*
X160906508Y-76373566D01*
X160906782Y-76373502D01*
X160906786Y-76373501D01*
X160914450Y-76371703D01*
X160921528Y-76370043D01*
X160921902Y-76369899D01*
X160921905Y-76369898D01*
X160927669Y-76367677D01*
X160936621Y-76367901D01*
G37*
%TD.AperFunction*%
%TD*%
%TA.AperFunction,Conductor*%
%TO.N,Net-(C3-Pad1)*%
G36*
X156424696Y-58644492D02*
G01*
X156432900Y-58648080D01*
X156435648Y-58652744D01*
X156516605Y-58915394D01*
X156516806Y-58916130D01*
X156574387Y-59158005D01*
X156574497Y-59158518D01*
X156616506Y-59378269D01*
X156616517Y-59378326D01*
X156653096Y-59582136D01*
X156694357Y-59775866D01*
X156750472Y-59965689D01*
X156831613Y-60157782D01*
X156947951Y-60358320D01*
X156948160Y-60358598D01*
X157109485Y-60573249D01*
X157109492Y-60573257D01*
X157109657Y-60573477D01*
X157109847Y-60573683D01*
X157109850Y-60573687D01*
X157319300Y-60801171D01*
X157322383Y-60809579D01*
X157318966Y-60817369D01*
X156839869Y-61296466D01*
X156831596Y-61299893D01*
X156823671Y-61296800D01*
X156596187Y-61087350D01*
X156596183Y-61087347D01*
X156595977Y-61087157D01*
X156595757Y-61086992D01*
X156595749Y-61086985D01*
X156381098Y-60925660D01*
X156381099Y-60925660D01*
X156380820Y-60925451D01*
X156380524Y-60925279D01*
X156380519Y-60925276D01*
X156180603Y-60809299D01*
X156180600Y-60809298D01*
X156180282Y-60809113D01*
X156179947Y-60808971D01*
X156179944Y-60808970D01*
X155988494Y-60728101D01*
X155988189Y-60727972D01*
X155890932Y-60699221D01*
X155798597Y-60671925D01*
X155798590Y-60671923D01*
X155798366Y-60671857D01*
X155654441Y-60641204D01*
X155604768Y-60630624D01*
X155604761Y-60630623D01*
X155604636Y-60630596D01*
X155604530Y-60630577D01*
X155604520Y-60630575D01*
X155400899Y-60594030D01*
X155400769Y-60594006D01*
X155181018Y-60551997D01*
X155180505Y-60551887D01*
X154993068Y-60507266D01*
X154938626Y-60494305D01*
X154937894Y-60494105D01*
X154675243Y-60413147D01*
X154668347Y-60407436D01*
X154666992Y-60402196D01*
X154632183Y-58621610D01*
X154635448Y-58613271D01*
X154644110Y-58609683D01*
X156424696Y-58644492D01*
G37*
%TD.AperFunction*%
%TD*%
%TA.AperFunction,Conductor*%
%TO.N,GND*%
G36*
X168544121Y-77293337D02*
G01*
X168540535Y-77476774D01*
X168537790Y-77617224D01*
X168535659Y-77726226D01*
X168532071Y-77734430D01*
X168527592Y-77737119D01*
X168509600Y-77742993D01*
X168475109Y-77754252D01*
X168475029Y-77754277D01*
X168415478Y-77772702D01*
X168358025Y-77791697D01*
X168357852Y-77791766D01*
X168357848Y-77791767D01*
X168304294Y-77812983D01*
X168304286Y-77812987D01*
X168304010Y-77813096D01*
X168254734Y-77838748D01*
X168254372Y-77839014D01*
X168211976Y-77870151D01*
X168211974Y-77870153D01*
X168211500Y-77870501D01*
X168175608Y-77910201D01*
X168148360Y-77959697D01*
X168131056Y-78020836D01*
X168131010Y-78021398D01*
X168131010Y-78021400D01*
X168125873Y-78084712D01*
X168121788Y-78092681D01*
X168114211Y-78095466D01*
X167537444Y-78095466D01*
X167529171Y-78092039D01*
X167525766Y-78083046D01*
X167532792Y-77969070D01*
X167532994Y-77967512D01*
X167553967Y-77861870D01*
X167554376Y-77860352D01*
X167577941Y-77791643D01*
X167585264Y-77770291D01*
X167585768Y-77769058D01*
X167592805Y-77754292D01*
X167623376Y-77690136D01*
X167623775Y-77689373D01*
X167664942Y-77617224D01*
X167665052Y-77617035D01*
X167688449Y-77577748D01*
X167706440Y-77547541D01*
X167744519Y-77476774D01*
X167775880Y-77400586D01*
X167797160Y-77314739D01*
X167798842Y-77293337D01*
X167804348Y-77223299D01*
X167808413Y-77215320D01*
X167813055Y-77212896D01*
X168549454Y-77020546D01*
X168544121Y-77293337D01*
G37*
%TD.AperFunction*%
%TD*%
%TA.AperFunction,Conductor*%
%TO.N,GND*%
G36*
X157225008Y-71514889D02*
G01*
X157385111Y-71674992D01*
X157388538Y-71683265D01*
X157385047Y-71691601D01*
X157370280Y-71706143D01*
X157348557Y-71727029D01*
X157328401Y-71746190D01*
X157309939Y-71763831D01*
X157293294Y-71780158D01*
X157278591Y-71795373D01*
X157278486Y-71795492D01*
X157266094Y-71809525D01*
X157266087Y-71809534D01*
X157265955Y-71809683D01*
X157255510Y-71823292D01*
X157247380Y-71836405D01*
X157247218Y-71836771D01*
X157247216Y-71836774D01*
X157244712Y-71842419D01*
X157238224Y-71848591D01*
X157234248Y-71849372D01*
X157108323Y-71851833D01*
X157059132Y-71852795D01*
X157050793Y-71849530D01*
X157047205Y-71840868D01*
X157049431Y-71726983D01*
X157050628Y-71665752D01*
X157054216Y-71657549D01*
X157057580Y-71655288D01*
X157063227Y-71652782D01*
X157063229Y-71652781D01*
X157063594Y-71652619D01*
X157076707Y-71644489D01*
X157090316Y-71634044D01*
X157090465Y-71633912D01*
X157090474Y-71633905D01*
X157104507Y-71621513D01*
X157104626Y-71621408D01*
X157119841Y-71606705D01*
X157136168Y-71590060D01*
X157153809Y-71571598D01*
X157172970Y-71551442D01*
X157193796Y-71529782D01*
X157193894Y-71529681D01*
X157208399Y-71514952D01*
X157216645Y-71511462D01*
X157225008Y-71514889D01*
G37*
%TD.AperFunction*%
%TD*%
M02*
