%TF.GenerationSoftware,KiCad,Pcbnew,(6.0.7)*%
%TF.CreationDate,2022-10-02T22:30:45-04:00*%
%TF.ProjectId,LiPo_Charger_1,4c69506f-5f43-4686-9172-6765725f312e,rev?*%
%TF.SameCoordinates,Original*%
%TF.FileFunction,Copper,L2,Bot*%
%TF.FilePolarity,Positive*%
%FSLAX46Y46*%
G04 Gerber Fmt 4.6, Leading zero omitted, Abs format (unit mm)*
G04 Created by KiCad (PCBNEW (6.0.7)) date 2022-10-02 22:30:45*
%MOMM*%
%LPD*%
G01*
G04 APERTURE LIST*
%TA.AperFunction,ComponentPad*%
%ADD10O,1.500000X1.100000*%
%TD*%
%TA.AperFunction,ComponentPad*%
%ADD11O,1.700000X1.350000*%
%TD*%
%TA.AperFunction,ComponentPad*%
%ADD12R,2.775000X2.775000*%
%TD*%
%TA.AperFunction,ComponentPad*%
%ADD13C,2.775000*%
%TD*%
%TA.AperFunction,ComponentPad*%
%ADD14O,1.350000X1.700000*%
%TD*%
%TA.AperFunction,ComponentPad*%
%ADD15O,1.100000X1.500000*%
%TD*%
%TA.AperFunction,ComponentPad*%
%ADD16R,0.850000X0.850000*%
%TD*%
%TA.AperFunction,ComponentPad*%
%ADD17O,0.850000X0.850000*%
%TD*%
%TA.AperFunction,ViaPad*%
%ADD18C,0.300000*%
%TD*%
%TA.AperFunction,Conductor*%
%ADD19C,0.700000*%
%TD*%
%TA.AperFunction,Conductor*%
%ADD20C,0.250000*%
%TD*%
%TA.AperFunction,Conductor*%
%ADD21C,0.550000*%
%TD*%
G04 APERTURE END LIST*
D10*
%TO.P,J1,6,Shield*%
%TO.N,GND*%
X149470000Y-79460000D03*
D11*
X146470000Y-74310000D03*
D10*
X149470000Y-74620000D03*
D11*
X146470000Y-79770000D03*
%TD*%
D12*
%TO.P,SW1,1*%
%TO.N,unconnected-(SW1-Pad1)*%
X155122500Y-68500000D03*
D13*
%TO.P,SW1,2*%
%TO.N,/BAT+*%
X155122500Y-63800000D03*
%TO.P,SW1,3*%
%TO.N,Net-(C3-Pad1)*%
X155122500Y-59100000D03*
%TO.P,SW1,S1*%
%TO.N,N/C*%
X145592500Y-70405000D03*
%TO.P,SW1,S2*%
X145592500Y-57195000D03*
%TD*%
D14*
%TO.P,J3,6,Shield*%
%TO.N,GND*%
X173505000Y-80215000D03*
D15*
X173195000Y-77215000D03*
D14*
X168045000Y-80215000D03*
D15*
X168355000Y-77215000D03*
%TD*%
D16*
%TO.P,J2,1,Pin_1*%
%TO.N,/BAT+*%
X173800000Y-56600000D03*
D17*
%TO.P,J2,2,Pin_2*%
%TO.N,/BAT-*%
X172800000Y-56600000D03*
%TD*%
D18*
%TO.N,/BAT-*%
X162430000Y-60630000D03*
X168812500Y-58687500D03*
%TO.N,GND*%
X157100000Y-71800000D03*
X153400000Y-76600000D03*
X150900000Y-80700000D03*
X176900000Y-64700000D03*
X168800000Y-75100000D03*
X177400000Y-61800000D03*
X153700000Y-74000000D03*
%TO.N,Net-(C3-Pad1)*%
X164000000Y-66000000D03*
X157400000Y-62100000D03*
%TO.N,Net-(D1-PadA)*%
X168800000Y-66500000D03*
X165600000Y-71000000D03*
%TO.N,/OD*%
X167300000Y-57600000D03*
X164425500Y-58100000D03*
%TO.N,/BAT+*%
X161200000Y-77800000D03*
%TO.N,Net-(R4-Pad2)*%
X170400000Y-64000000D03*
X174400000Y-66800000D03*
%TO.N,Net-(R7-Pad1)*%
X161000000Y-76500000D03*
X157500000Y-80200000D03*
%TD*%
D19*
%TO.N,/BAT-*%
X163370000Y-60630000D02*
X162430000Y-60630000D01*
X165312500Y-58687500D02*
X163370000Y-60630000D01*
X168812500Y-58687500D02*
X165312500Y-58687500D01*
D20*
%TO.N,GND*%
X153700000Y-72600000D02*
X153700000Y-74000000D01*
X153400000Y-74300000D02*
X153400000Y-76600000D01*
X153100000Y-77900000D02*
X151300000Y-77900000D01*
D21*
X171500000Y-75100000D02*
X168800000Y-75100000D01*
D20*
X153700000Y-74000000D02*
X153400000Y-74300000D01*
D21*
X177400000Y-61800000D02*
X176900000Y-62300000D01*
X176900000Y-62300000D02*
X176900000Y-64700000D01*
D20*
X151300000Y-77900000D02*
X150900000Y-78300000D01*
D21*
X176900000Y-64700000D02*
X176900000Y-69700000D01*
D20*
X150900000Y-78300000D02*
X150900000Y-80700000D01*
X154500000Y-71800000D02*
X153700000Y-72600000D01*
X153400000Y-77600000D02*
X153100000Y-77900000D01*
X153400000Y-76600000D02*
X153400000Y-77600000D01*
X157100000Y-71800000D02*
X154500000Y-71800000D01*
D21*
X176900000Y-69700000D02*
X171500000Y-75100000D01*
D19*
%TO.N,Net-(C3-Pad1)*%
X158000000Y-63800000D02*
X157400000Y-63200000D01*
X163400000Y-66600000D02*
X162100000Y-66600000D01*
X162100000Y-66600000D02*
X159300000Y-63800000D01*
X157400000Y-63200000D02*
X157400000Y-62100000D01*
X159300000Y-63800000D02*
X158000000Y-63800000D01*
X164000000Y-66000000D02*
X163400000Y-66600000D01*
D21*
%TO.N,Net-(D1-PadA)*%
X167000000Y-71000000D02*
X168800000Y-69200000D01*
X168800000Y-69200000D02*
X168800000Y-66500000D01*
X165600000Y-71000000D02*
X167000000Y-71000000D01*
D20*
%TO.N,/OD*%
X167200000Y-57500000D02*
X165025500Y-57500000D01*
X165025500Y-57500000D02*
X164425500Y-58100000D01*
X167300000Y-57600000D02*
X167200000Y-57500000D01*
D19*
%TO.N,/BAT+*%
X173800000Y-56600000D02*
X173800000Y-58200000D01*
X158100000Y-65300000D02*
X156622500Y-65300000D01*
X161700000Y-68900000D02*
X158100000Y-65300000D01*
X161200000Y-77800000D02*
X161700000Y-77300000D01*
X161700000Y-77300000D02*
X161700000Y-70300000D01*
X173800000Y-58200000D02*
X161700000Y-70300000D01*
X161700000Y-70300000D02*
X161700000Y-68900000D01*
X156622500Y-65300000D02*
X155122500Y-63800000D01*
D21*
%TO.N,Net-(R4-Pad2)*%
X174400000Y-66800000D02*
X173900000Y-66300000D01*
X170400000Y-65900000D02*
X170400000Y-64000000D01*
X173900000Y-66300000D02*
X170800000Y-66300000D01*
X170800000Y-66300000D02*
X170400000Y-65900000D01*
D20*
%TO.N,Net-(R7-Pad1)*%
X159500000Y-79200000D02*
X157850000Y-79200000D01*
X160500000Y-78200000D02*
X159500000Y-79200000D01*
X157500000Y-79550000D02*
X157500000Y-80200000D01*
X161000000Y-76500000D02*
X161000000Y-77000000D01*
X160500000Y-77500000D02*
X160500000Y-78200000D01*
X157850000Y-79200000D02*
X157500000Y-79550000D01*
X161000000Y-77000000D02*
X160500000Y-77500000D01*
%TD*%
%TA.AperFunction,Conductor*%
%TO.N,Net-(R7-Pad1)*%
G36*
X157621482Y-79913427D02*
G01*
X157624909Y-79921790D01*
X157624750Y-79942451D01*
X157624748Y-79942591D01*
X157624158Y-79972644D01*
X157623455Y-80000445D01*
X157622874Y-80025974D01*
X157622649Y-80049289D01*
X157623012Y-80070445D01*
X157624195Y-80089499D01*
X157624220Y-80089690D01*
X157624221Y-80089699D01*
X157626395Y-80106223D01*
X157626397Y-80106233D01*
X157626433Y-80106508D01*
X157629956Y-80121528D01*
X157630100Y-80121901D01*
X157630101Y-80121905D01*
X157632322Y-80127668D01*
X157632100Y-80136620D01*
X157629838Y-80139985D01*
X157508433Y-80266231D01*
X157500229Y-80269819D01*
X157491567Y-80266231D01*
X157370162Y-80139985D01*
X157366897Y-80131646D01*
X157367677Y-80127669D01*
X157369898Y-80121905D01*
X157369899Y-80121902D01*
X157370043Y-80121528D01*
X157373566Y-80106508D01*
X157373602Y-80106233D01*
X157373604Y-80106223D01*
X157375778Y-80089699D01*
X157375779Y-80089690D01*
X157375804Y-80089499D01*
X157376987Y-80070445D01*
X157377350Y-80049289D01*
X157377125Y-80025974D01*
X157376544Y-80000445D01*
X157375841Y-79972644D01*
X157375251Y-79942591D01*
X157375249Y-79942451D01*
X157375090Y-79921790D01*
X157378453Y-79913491D01*
X157386790Y-79910000D01*
X157613209Y-79910000D01*
X157621482Y-79913427D01*
G37*
%TD.AperFunction*%
%TD*%
%TA.AperFunction,Conductor*%
%TO.N,Net-(R7-Pad1)*%
G36*
X161008433Y-76433769D02*
G01*
X161129838Y-76560015D01*
X161133103Y-76568354D01*
X161132322Y-76572331D01*
X161129956Y-76578471D01*
X161126433Y-76593491D01*
X161126397Y-76593766D01*
X161126395Y-76593776D01*
X161124221Y-76610300D01*
X161124195Y-76610500D01*
X161123012Y-76629554D01*
X161122649Y-76650710D01*
X161122650Y-76650827D01*
X161122650Y-76650860D01*
X161122874Y-76673985D01*
X161122875Y-76674079D01*
X161123452Y-76699430D01*
X161123453Y-76699460D01*
X161123455Y-76699554D01*
X161124156Y-76727289D01*
X161124158Y-76727355D01*
X161124748Y-76757408D01*
X161124750Y-76757548D01*
X161124909Y-76778210D01*
X161121546Y-76786509D01*
X161113209Y-76790000D01*
X160886790Y-76790000D01*
X160878517Y-76786573D01*
X160875090Y-76778210D01*
X160875249Y-76757548D01*
X160875251Y-76757408D01*
X160875841Y-76727355D01*
X160875843Y-76727289D01*
X160876544Y-76699554D01*
X160876546Y-76699460D01*
X160876547Y-76699430D01*
X160877124Y-76674079D01*
X160877125Y-76673985D01*
X160877349Y-76650860D01*
X160877349Y-76650827D01*
X160877350Y-76650710D01*
X160876987Y-76629554D01*
X160875804Y-76610500D01*
X160875778Y-76610300D01*
X160873604Y-76593776D01*
X160873602Y-76593766D01*
X160873566Y-76593491D01*
X160870043Y-76578471D01*
X160869900Y-76578099D01*
X160869900Y-76578098D01*
X160867678Y-76572333D01*
X160867900Y-76563381D01*
X160870162Y-76560015D01*
X160991567Y-76433769D01*
X160999771Y-76430181D01*
X161008433Y-76433769D01*
G37*
%TD.AperFunction*%
%TD*%
%TA.AperFunction,Conductor*%
%TO.N,/BAT+*%
G36*
X173808433Y-56396269D02*
G01*
X174177298Y-56779844D01*
X174180563Y-56788183D01*
X174179753Y-56792236D01*
X174166430Y-56826108D01*
X174155164Y-56871622D01*
X174147968Y-56922140D01*
X174144110Y-56978009D01*
X174142856Y-57039576D01*
X174142857Y-57039644D01*
X174143473Y-57107187D01*
X174145229Y-57181188D01*
X174147391Y-57261926D01*
X174147392Y-57261995D01*
X174149222Y-57349599D01*
X174149225Y-57349748D01*
X174149904Y-57433205D01*
X174146544Y-57441506D01*
X174138204Y-57445000D01*
X173461796Y-57445000D01*
X173453523Y-57441573D01*
X173450096Y-57433205D01*
X173450774Y-57349748D01*
X173450777Y-57349599D01*
X173452607Y-57261995D01*
X173452608Y-57261926D01*
X173454770Y-57181188D01*
X173456526Y-57107187D01*
X173457142Y-57039644D01*
X173457143Y-57039576D01*
X173455889Y-56978009D01*
X173452031Y-56922140D01*
X173444835Y-56871622D01*
X173433569Y-56826108D01*
X173420247Y-56792236D01*
X173420408Y-56783283D01*
X173422702Y-56779844D01*
X173791567Y-56396269D01*
X173799771Y-56392681D01*
X173808433Y-56396269D01*
G37*
%TD.AperFunction*%
%TD*%
%TA.AperFunction,Conductor*%
%TO.N,/OD*%
G36*
X164550508Y-57814889D02*
G01*
X164710611Y-57974992D01*
X164714038Y-57983265D01*
X164710547Y-57991601D01*
X164695780Y-58006143D01*
X164674057Y-58027029D01*
X164653901Y-58046190D01*
X164635439Y-58063831D01*
X164618794Y-58080158D01*
X164604091Y-58095373D01*
X164603986Y-58095492D01*
X164591594Y-58109525D01*
X164591587Y-58109534D01*
X164591455Y-58109683D01*
X164581010Y-58123292D01*
X164572880Y-58136405D01*
X164572718Y-58136771D01*
X164572716Y-58136774D01*
X164570212Y-58142419D01*
X164563724Y-58148591D01*
X164559748Y-58149372D01*
X164433823Y-58151833D01*
X164384632Y-58152795D01*
X164376293Y-58149530D01*
X164372705Y-58140868D01*
X164374931Y-58026983D01*
X164376128Y-57965752D01*
X164379716Y-57957549D01*
X164383080Y-57955288D01*
X164388727Y-57952782D01*
X164388729Y-57952781D01*
X164389094Y-57952619D01*
X164402207Y-57944489D01*
X164415816Y-57934044D01*
X164415965Y-57933912D01*
X164415974Y-57933905D01*
X164430007Y-57921513D01*
X164430126Y-57921408D01*
X164445341Y-57906705D01*
X164461668Y-57890060D01*
X164479309Y-57871598D01*
X164498470Y-57851442D01*
X164519296Y-57829782D01*
X164519394Y-57829681D01*
X164533899Y-57814952D01*
X164542145Y-57811462D01*
X164550508Y-57814889D01*
G37*
%TD.AperFunction*%
%TD*%
%TA.AperFunction,Conductor*%
%TO.N,GND*%
G36*
X145587648Y-55352060D02*
G01*
X145602666Y-55350500D01*
X177988518Y-55350500D01*
X178056639Y-55370502D01*
X178068451Y-55379101D01*
X178197514Y-55485020D01*
X178214979Y-55502485D01*
X178313765Y-55622856D01*
X178320899Y-55631549D01*
X178348653Y-55696896D01*
X178349500Y-55711482D01*
X178349500Y-82488518D01*
X178329498Y-82556639D01*
X178320899Y-82568451D01*
X178214980Y-82697514D01*
X178197514Y-82714980D01*
X178068451Y-82820899D01*
X178003104Y-82848653D01*
X177988518Y-82849500D01*
X144111482Y-82849500D01*
X144043361Y-82829498D01*
X144031549Y-82820899D01*
X143902486Y-82714980D01*
X143885020Y-82697514D01*
X143779101Y-82568451D01*
X143751347Y-82503104D01*
X143750500Y-82488518D01*
X143750500Y-80042722D01*
X145141439Y-80042722D01*
X145146435Y-80071798D01*
X145149415Y-80082918D01*
X145220669Y-80276060D01*
X145225619Y-80286438D01*
X145330877Y-80463361D01*
X145337643Y-80472673D01*
X145473381Y-80627453D01*
X145481724Y-80635370D01*
X145643394Y-80762820D01*
X145653050Y-80769091D01*
X145835229Y-80864940D01*
X145845863Y-80869345D01*
X146042470Y-80930393D01*
X146053724Y-80932785D01*
X146198012Y-80949863D01*
X146212431Y-80947421D01*
X146216000Y-80934679D01*
X146216000Y-80932694D01*
X146724000Y-80932694D01*
X146728271Y-80947239D01*
X146740405Y-80949302D01*
X146855754Y-80938703D01*
X146867068Y-80936606D01*
X147065206Y-80880725D01*
X147075945Y-80876603D01*
X147260583Y-80785549D01*
X147270392Y-80779538D01*
X147435349Y-80656360D01*
X147443889Y-80648671D01*
X147583639Y-80497490D01*
X147590640Y-80488365D01*
X147700495Y-80314255D01*
X147705716Y-80304008D01*
X147782003Y-80112793D01*
X147785270Y-80101767D01*
X147797203Y-80041770D01*
X147796051Y-80028894D01*
X147780898Y-80024000D01*
X146742115Y-80024000D01*
X146726876Y-80028475D01*
X146725671Y-80029865D01*
X146724000Y-80037548D01*
X146724000Y-80932694D01*
X146216000Y-80932694D01*
X146216000Y-80042115D01*
X146211525Y-80026876D01*
X146210135Y-80025671D01*
X146202452Y-80024000D01*
X145156337Y-80024000D01*
X145143375Y-80027806D01*
X145141439Y-80042722D01*
X143750500Y-80042722D01*
X143750500Y-79725768D01*
X148245302Y-79725768D01*
X148282554Y-79852342D01*
X148287147Y-79863710D01*
X148377566Y-80036666D01*
X148384282Y-80046928D01*
X148506568Y-80199020D01*
X148515152Y-80207786D01*
X148664656Y-80333236D01*
X148674767Y-80340160D01*
X148845798Y-80434184D01*
X148857062Y-80439012D01*
X149043095Y-80498025D01*
X149055084Y-80500573D01*
X149201357Y-80516980D01*
X149213124Y-80513525D01*
X149214329Y-80512135D01*
X149216000Y-80504452D01*
X149216000Y-80499709D01*
X149724000Y-80499709D01*
X149728236Y-80514136D01*
X149740589Y-80516197D01*
X149870361Y-80503473D01*
X149882396Y-80501090D01*
X150069223Y-80444683D01*
X150080565Y-80440008D01*
X150252879Y-80348388D01*
X150263095Y-80341601D01*
X150414335Y-80218253D01*
X150423039Y-80209609D01*
X150547438Y-80059237D01*
X150554297Y-80049069D01*
X150647121Y-79877393D01*
X150651871Y-79866093D01*
X150693595Y-79731307D01*
X150693801Y-79717205D01*
X150687045Y-79714000D01*
X149742115Y-79714000D01*
X149726876Y-79718475D01*
X149725671Y-79719865D01*
X149724000Y-79727548D01*
X149724000Y-80499709D01*
X149216000Y-80499709D01*
X149216000Y-79732115D01*
X149211525Y-79716876D01*
X149210135Y-79715671D01*
X149202452Y-79714000D01*
X148259953Y-79714000D01*
X148246422Y-79717973D01*
X148245302Y-79725768D01*
X143750500Y-79725768D01*
X143750500Y-79498230D01*
X145142797Y-79498230D01*
X145143949Y-79511106D01*
X145159102Y-79516000D01*
X146197885Y-79516000D01*
X146213124Y-79511525D01*
X146214329Y-79510135D01*
X146216000Y-79502452D01*
X146216000Y-79497885D01*
X146724000Y-79497885D01*
X146728475Y-79513124D01*
X146729865Y-79514329D01*
X146737548Y-79516000D01*
X147783663Y-79516000D01*
X147796625Y-79512194D01*
X147798561Y-79497278D01*
X147793565Y-79468202D01*
X147790585Y-79457082D01*
X147719331Y-79263940D01*
X147714381Y-79253562D01*
X147684178Y-79202795D01*
X148246199Y-79202795D01*
X148252955Y-79206000D01*
X149197885Y-79206000D01*
X149213124Y-79201525D01*
X149214329Y-79200135D01*
X149216000Y-79192452D01*
X149216000Y-79187885D01*
X149724000Y-79187885D01*
X149728475Y-79203124D01*
X149729865Y-79204329D01*
X149737548Y-79206000D01*
X150680047Y-79206000D01*
X150693578Y-79202027D01*
X150694698Y-79194232D01*
X150657446Y-79067658D01*
X150652853Y-79056290D01*
X150562434Y-78883334D01*
X150555718Y-78873072D01*
X150433432Y-78720980D01*
X150424848Y-78712214D01*
X150275344Y-78586764D01*
X150265233Y-78579840D01*
X150094202Y-78485816D01*
X150082938Y-78480988D01*
X149896905Y-78421975D01*
X149884916Y-78419427D01*
X149738643Y-78403020D01*
X149726876Y-78406475D01*
X149725671Y-78407865D01*
X149724000Y-78415548D01*
X149724000Y-79187885D01*
X149216000Y-79187885D01*
X149216000Y-78420291D01*
X149211764Y-78405864D01*
X149199411Y-78403803D01*
X149069639Y-78416527D01*
X149057604Y-78418910D01*
X148870777Y-78475317D01*
X148859435Y-78479992D01*
X148687121Y-78571612D01*
X148676905Y-78578399D01*
X148525665Y-78701747D01*
X148516961Y-78710391D01*
X148392562Y-78860763D01*
X148385703Y-78870931D01*
X148292879Y-79042607D01*
X148288129Y-79053907D01*
X148246405Y-79188693D01*
X148246199Y-79202795D01*
X147684178Y-79202795D01*
X147609123Y-79076639D01*
X147602357Y-79067327D01*
X147466619Y-78912547D01*
X147458276Y-78904630D01*
X147296606Y-78777180D01*
X147286950Y-78770909D01*
X147104771Y-78675060D01*
X147094137Y-78670655D01*
X146897530Y-78609607D01*
X146886276Y-78607215D01*
X146741988Y-78590137D01*
X146727569Y-78592579D01*
X146724000Y-78605321D01*
X146724000Y-79497885D01*
X146216000Y-79497885D01*
X146216000Y-78607306D01*
X146211729Y-78592761D01*
X146199595Y-78590698D01*
X146084246Y-78601297D01*
X146072932Y-78603394D01*
X145874794Y-78659275D01*
X145864055Y-78663397D01*
X145679417Y-78754451D01*
X145669608Y-78760462D01*
X145504651Y-78883640D01*
X145496111Y-78891329D01*
X145356361Y-79042510D01*
X145349360Y-79051635D01*
X145239505Y-79225745D01*
X145234284Y-79235992D01*
X145157997Y-79427207D01*
X145154730Y-79438233D01*
X145142797Y-79498230D01*
X143750500Y-79498230D01*
X143750500Y-74582722D01*
X145141439Y-74582722D01*
X145146435Y-74611798D01*
X145149415Y-74622918D01*
X145220669Y-74816060D01*
X145225619Y-74826438D01*
X145330877Y-75003361D01*
X145337643Y-75012673D01*
X145473381Y-75167453D01*
X145481724Y-75175370D01*
X145643394Y-75302820D01*
X145653050Y-75309091D01*
X145835229Y-75404940D01*
X145845863Y-75409345D01*
X146042470Y-75470393D01*
X146053724Y-75472785D01*
X146198012Y-75489863D01*
X146212431Y-75487421D01*
X146216000Y-75474679D01*
X146216000Y-75472694D01*
X146724000Y-75472694D01*
X146728271Y-75487239D01*
X146740405Y-75489302D01*
X146855754Y-75478703D01*
X146867068Y-75476606D01*
X147065206Y-75420725D01*
X147075945Y-75416603D01*
X147260583Y-75325549D01*
X147270392Y-75319538D01*
X147435349Y-75196360D01*
X147443889Y-75188671D01*
X147583639Y-75037490D01*
X147590640Y-75028365D01*
X147680612Y-74885768D01*
X148245302Y-74885768D01*
X148282554Y-75012342D01*
X148287147Y-75023710D01*
X148377566Y-75196666D01*
X148384282Y-75206928D01*
X148506568Y-75359020D01*
X148515152Y-75367786D01*
X148664656Y-75493236D01*
X148674767Y-75500160D01*
X148845798Y-75594184D01*
X148857062Y-75599012D01*
X149043095Y-75658025D01*
X149055084Y-75660573D01*
X149201357Y-75676980D01*
X149213124Y-75673525D01*
X149214329Y-75672135D01*
X149216000Y-75664452D01*
X149216000Y-75659709D01*
X149724000Y-75659709D01*
X149728236Y-75674136D01*
X149740589Y-75676197D01*
X149870361Y-75663473D01*
X149882396Y-75661090D01*
X150069223Y-75604683D01*
X150080565Y-75600008D01*
X150252879Y-75508388D01*
X150263095Y-75501601D01*
X150414335Y-75378253D01*
X150423039Y-75369609D01*
X150547438Y-75219237D01*
X150554297Y-75209069D01*
X150647121Y-75037393D01*
X150651871Y-75026093D01*
X150693595Y-74891307D01*
X150693801Y-74877205D01*
X150687045Y-74874000D01*
X149742115Y-74874000D01*
X149726876Y-74878475D01*
X149725671Y-74879865D01*
X149724000Y-74887548D01*
X149724000Y-75659709D01*
X149216000Y-75659709D01*
X149216000Y-74892115D01*
X149211525Y-74876876D01*
X149210135Y-74875671D01*
X149202452Y-74874000D01*
X148259953Y-74874000D01*
X148246422Y-74877973D01*
X148245302Y-74885768D01*
X147680612Y-74885768D01*
X147700495Y-74854255D01*
X147705716Y-74844008D01*
X147782003Y-74652793D01*
X147785270Y-74641767D01*
X147797203Y-74581770D01*
X147796051Y-74568894D01*
X147780898Y-74564000D01*
X146742115Y-74564000D01*
X146726876Y-74568475D01*
X146725671Y-74569865D01*
X146724000Y-74577548D01*
X146724000Y-75472694D01*
X146216000Y-75472694D01*
X146216000Y-74582115D01*
X146211525Y-74566876D01*
X146210135Y-74565671D01*
X146202452Y-74564000D01*
X145156337Y-74564000D01*
X145143375Y-74567806D01*
X145141439Y-74582722D01*
X143750500Y-74582722D01*
X143750500Y-74362795D01*
X148246199Y-74362795D01*
X148252955Y-74366000D01*
X149197885Y-74366000D01*
X149213124Y-74361525D01*
X149214329Y-74360135D01*
X149216000Y-74352452D01*
X149216000Y-74347885D01*
X149724000Y-74347885D01*
X149728475Y-74363124D01*
X149729865Y-74364329D01*
X149737548Y-74366000D01*
X150680047Y-74366000D01*
X150693578Y-74362027D01*
X150694698Y-74354232D01*
X150657446Y-74227658D01*
X150652853Y-74216290D01*
X150562434Y-74043334D01*
X150555718Y-74033072D01*
X150433432Y-73880980D01*
X150424848Y-73872214D01*
X150275344Y-73746764D01*
X150265233Y-73739840D01*
X150094202Y-73645816D01*
X150082938Y-73640988D01*
X149896905Y-73581975D01*
X149884916Y-73579427D01*
X149738643Y-73563020D01*
X149726876Y-73566475D01*
X149725671Y-73567865D01*
X149724000Y-73575548D01*
X149724000Y-74347885D01*
X149216000Y-74347885D01*
X149216000Y-73580291D01*
X149211764Y-73565864D01*
X149199411Y-73563803D01*
X149069639Y-73576527D01*
X149057604Y-73578910D01*
X148870777Y-73635317D01*
X148859435Y-73639992D01*
X148687121Y-73731612D01*
X148676905Y-73738399D01*
X148525665Y-73861747D01*
X148516961Y-73870391D01*
X148392562Y-74020763D01*
X148385703Y-74030931D01*
X148292879Y-74202607D01*
X148288129Y-74213907D01*
X148246405Y-74348693D01*
X148246199Y-74362795D01*
X143750500Y-74362795D01*
X143750500Y-74038230D01*
X145142797Y-74038230D01*
X145143949Y-74051106D01*
X145159102Y-74056000D01*
X146197885Y-74056000D01*
X146213124Y-74051525D01*
X146214329Y-74050135D01*
X146216000Y-74042452D01*
X146216000Y-74037885D01*
X146724000Y-74037885D01*
X146728475Y-74053124D01*
X146729865Y-74054329D01*
X146737548Y-74056000D01*
X147783663Y-74056000D01*
X147796625Y-74052194D01*
X147798561Y-74037278D01*
X147793565Y-74008202D01*
X147790585Y-73997082D01*
X147719331Y-73803940D01*
X147714381Y-73793562D01*
X147609123Y-73616639D01*
X147602357Y-73607327D01*
X147466619Y-73452547D01*
X147458276Y-73444630D01*
X147296606Y-73317180D01*
X147286950Y-73310909D01*
X147104771Y-73215060D01*
X147094137Y-73210655D01*
X146897530Y-73149607D01*
X146886276Y-73147215D01*
X146741988Y-73130137D01*
X146727569Y-73132579D01*
X146724000Y-73145321D01*
X146724000Y-74037885D01*
X146216000Y-74037885D01*
X146216000Y-73147306D01*
X146211729Y-73132761D01*
X146199595Y-73130698D01*
X146084246Y-73141297D01*
X146072932Y-73143394D01*
X145874794Y-73199275D01*
X145864055Y-73203397D01*
X145679417Y-73294451D01*
X145669608Y-73300462D01*
X145504651Y-73423640D01*
X145496111Y-73431329D01*
X145356361Y-73582510D01*
X145349360Y-73591635D01*
X145239505Y-73765745D01*
X145234284Y-73775992D01*
X145157997Y-73967207D01*
X145154730Y-73978233D01*
X145142797Y-74038230D01*
X143750500Y-74038230D01*
X143750500Y-70446932D01*
X143762453Y-70406225D01*
X143760032Y-70401715D01*
X143991150Y-70401715D01*
X143997396Y-70411434D01*
X144002112Y-70437046D01*
X144019201Y-70654186D01*
X144077553Y-70897236D01*
X144079443Y-70901799D01*
X144079445Y-70901805D01*
X144171312Y-71123592D01*
X144173207Y-71128166D01*
X144303809Y-71341289D01*
X144466143Y-71531357D01*
X144656211Y-71693691D01*
X144869334Y-71824293D01*
X144873904Y-71826186D01*
X144873908Y-71826188D01*
X145095695Y-71918055D01*
X145095701Y-71918057D01*
X145100264Y-71919947D01*
X145105064Y-71921099D01*
X145105069Y-71921101D01*
X145216332Y-71947813D01*
X145343314Y-71978299D01*
X145592500Y-71997910D01*
X145841686Y-71978299D01*
X145968668Y-71947813D01*
X146079931Y-71921101D01*
X146079936Y-71921099D01*
X146084736Y-71919947D01*
X146089299Y-71918057D01*
X146089305Y-71918055D01*
X146311092Y-71826188D01*
X146311096Y-71826186D01*
X146315666Y-71824293D01*
X146528789Y-71693691D01*
X146718857Y-71531357D01*
X146881191Y-71341289D01*
X147011793Y-71128166D01*
X147013688Y-71123592D01*
X147105555Y-70901805D01*
X147105557Y-70901799D01*
X147107447Y-70897236D01*
X147165799Y-70654186D01*
X147185410Y-70405000D01*
X147165799Y-70155814D01*
X147122640Y-69976047D01*
X147108601Y-69917569D01*
X147108599Y-69917564D01*
X147107447Y-69912764D01*
X147105557Y-69908201D01*
X147105555Y-69908195D01*
X147105163Y-69907248D01*
X153534500Y-69907248D01*
X153546133Y-69965731D01*
X153590448Y-70032052D01*
X153656769Y-70076367D01*
X153668938Y-70078788D01*
X153668939Y-70078788D01*
X153709184Y-70086793D01*
X153715252Y-70088000D01*
X156529748Y-70088000D01*
X156535816Y-70086793D01*
X156576061Y-70078788D01*
X156576062Y-70078788D01*
X156588231Y-70076367D01*
X156654552Y-70032052D01*
X156698867Y-69965731D01*
X156710500Y-69907248D01*
X156710500Y-67092752D01*
X156707030Y-67075305D01*
X156701288Y-67046439D01*
X156701288Y-67046438D01*
X156698867Y-67034269D01*
X156654552Y-66967948D01*
X156588231Y-66923633D01*
X156576062Y-66921212D01*
X156576061Y-66921212D01*
X156535816Y-66913207D01*
X156529748Y-66912000D01*
X153715252Y-66912000D01*
X153709184Y-66913207D01*
X153668939Y-66921212D01*
X153668938Y-66921212D01*
X153656769Y-66923633D01*
X153590448Y-66967948D01*
X153546133Y-67034269D01*
X153543712Y-67046438D01*
X153543712Y-67046439D01*
X153537970Y-67075305D01*
X153534500Y-67092752D01*
X153534500Y-69907248D01*
X147105163Y-69907248D01*
X147013688Y-69686408D01*
X147013686Y-69686404D01*
X147011793Y-69681834D01*
X146881191Y-69468711D01*
X146718857Y-69278643D01*
X146528789Y-69116309D01*
X146315666Y-68985707D01*
X146311096Y-68983814D01*
X146311092Y-68983812D01*
X146089305Y-68891945D01*
X146089299Y-68891943D01*
X146084736Y-68890053D01*
X146079936Y-68888901D01*
X146079931Y-68888899D01*
X145968668Y-68862187D01*
X145841686Y-68831701D01*
X145592500Y-68812090D01*
X145343314Y-68831701D01*
X145216332Y-68862187D01*
X145105069Y-68888899D01*
X145105064Y-68888901D01*
X145100264Y-68890053D01*
X145095701Y-68891943D01*
X145095695Y-68891945D01*
X144873908Y-68983812D01*
X144873904Y-68983814D01*
X144869334Y-68985707D01*
X144656211Y-69116309D01*
X144466143Y-69278643D01*
X144303809Y-69468711D01*
X144173207Y-69681834D01*
X144171314Y-69686404D01*
X144171312Y-69686408D01*
X144079445Y-69908195D01*
X144079443Y-69908201D01*
X144077553Y-69912764D01*
X144076401Y-69917564D01*
X144076399Y-69917569D01*
X144062360Y-69976047D01*
X144019201Y-70155814D01*
X144018813Y-70160745D01*
X144002112Y-70372954D01*
X143991150Y-70401715D01*
X143760032Y-70401715D01*
X143753191Y-70388972D01*
X143750500Y-70363068D01*
X143750500Y-63800000D01*
X153529590Y-63800000D01*
X153549201Y-64049186D01*
X153550356Y-64053995D01*
X153606362Y-64287274D01*
X153607553Y-64292236D01*
X153609443Y-64296799D01*
X153609445Y-64296805D01*
X153701312Y-64518592D01*
X153703207Y-64523166D01*
X153833809Y-64736289D01*
X153996143Y-64926357D01*
X154186211Y-65088691D01*
X154399334Y-65219293D01*
X154403904Y-65221186D01*
X154403908Y-65221188D01*
X154625695Y-65313055D01*
X154625701Y-65313057D01*
X154630264Y-65314947D01*
X154635064Y-65316099D01*
X154635069Y-65316101D01*
X154746332Y-65342813D01*
X154873314Y-65373299D01*
X155118713Y-65392612D01*
X155118570Y-65394424D01*
X155120905Y-65394181D01*
X155120955Y-65393174D01*
X155357288Y-65404824D01*
X155370736Y-65406213D01*
X155558397Y-65435864D01*
X155571321Y-65438608D01*
X155723136Y-65479270D01*
X155734684Y-65482363D01*
X155744597Y-65485461D01*
X155784364Y-65499715D01*
X155900799Y-65541450D01*
X155905644Y-65543301D01*
X156067983Y-65609153D01*
X156068141Y-65609216D01*
X156068160Y-65609224D01*
X156069630Y-65609813D01*
X156070014Y-65609966D01*
X156183915Y-65654990D01*
X156230343Y-65686880D01*
X156245205Y-65703042D01*
X156268299Y-65728156D01*
X156275599Y-65732682D01*
X156275600Y-65732683D01*
X156305283Y-65751087D01*
X156315053Y-65757801D01*
X156349716Y-65784112D01*
X156363693Y-65789646D01*
X156383702Y-65799709D01*
X156389188Y-65803111D01*
X156389192Y-65803113D01*
X156396486Y-65807635D01*
X156404728Y-65810029D01*
X156404731Y-65810031D01*
X156438284Y-65819779D01*
X156449497Y-65823618D01*
X156489953Y-65839635D01*
X156498496Y-65840533D01*
X156498497Y-65840533D01*
X156504902Y-65841206D01*
X156526880Y-65845518D01*
X156541325Y-65849715D01*
X156547908Y-65850198D01*
X156547911Y-65850199D01*
X156549708Y-65850331D01*
X156549719Y-65850331D01*
X156552015Y-65850500D01*
X156586719Y-65850500D01*
X156599890Y-65851190D01*
X156639954Y-65855401D01*
X156648419Y-65853969D01*
X156648428Y-65853969D01*
X156658500Y-65852265D01*
X156679513Y-65850500D01*
X157154771Y-65850500D01*
X157160160Y-65850615D01*
X157251168Y-65854511D01*
X157251170Y-65854511D01*
X157257691Y-65854790D01*
X157264130Y-65853723D01*
X157264140Y-65853722D01*
X157273338Y-65852197D01*
X157293945Y-65850500D01*
X157819785Y-65850500D01*
X157887906Y-65870502D01*
X157908880Y-65887405D01*
X161112595Y-69091119D01*
X161146621Y-69153431D01*
X161149500Y-69180214D01*
X161149500Y-70264217D01*
X161148810Y-70277387D01*
X161144599Y-70317454D01*
X161146031Y-70325919D01*
X161146031Y-70325928D01*
X161147735Y-70336000D01*
X161149500Y-70357013D01*
X161149500Y-76021282D01*
X161129498Y-76089403D01*
X161075842Y-76135896D01*
X161019711Y-76143558D01*
X161019711Y-76146682D01*
X161009792Y-76146682D01*
X161000000Y-76145131D01*
X160890339Y-76162500D01*
X160791413Y-76212905D01*
X160712905Y-76291413D01*
X160662500Y-76390339D01*
X160645131Y-76500000D01*
X160662500Y-76609661D01*
X160665976Y-76616483D01*
X160671804Y-76654473D01*
X160671656Y-76669762D01*
X160671630Y-76671401D01*
X160671102Y-76694668D01*
X160670409Y-76722098D01*
X160670383Y-76723251D01*
X160669791Y-76753370D01*
X160669757Y-76755818D01*
X160669596Y-76776620D01*
X160670780Y-76782755D01*
X160672041Y-76789293D01*
X160665305Y-76859969D01*
X160637417Y-76902257D01*
X160283785Y-77255889D01*
X160275681Y-77263316D01*
X160246806Y-77287545D01*
X160241293Y-77297094D01*
X160227961Y-77320185D01*
X160222055Y-77329456D01*
X160200446Y-77360316D01*
X160197592Y-77370966D01*
X160196115Y-77374134D01*
X160194923Y-77377410D01*
X160189412Y-77386955D01*
X160184010Y-77417592D01*
X160182870Y-77424058D01*
X160180492Y-77434785D01*
X160170736Y-77471193D01*
X160171697Y-77482178D01*
X160171697Y-77482180D01*
X160174020Y-77508728D01*
X160174500Y-77519710D01*
X160174500Y-78012984D01*
X160154498Y-78081105D01*
X160137595Y-78102079D01*
X159402079Y-78837595D01*
X159339767Y-78871621D01*
X159312984Y-78874500D01*
X157869710Y-78874500D01*
X157858728Y-78874020D01*
X157832180Y-78871697D01*
X157832178Y-78871697D01*
X157821193Y-78870736D01*
X157784785Y-78880492D01*
X157774058Y-78882870D01*
X157771427Y-78883334D01*
X157736955Y-78889412D01*
X157727410Y-78894923D01*
X157724134Y-78896115D01*
X157720966Y-78897592D01*
X157710316Y-78900446D01*
X157679456Y-78922055D01*
X157670185Y-78927961D01*
X157647094Y-78941293D01*
X157637545Y-78946806D01*
X157630459Y-78955251D01*
X157613315Y-78975682D01*
X157605889Y-78983785D01*
X157283785Y-79305889D01*
X157275681Y-79313316D01*
X157246806Y-79337545D01*
X157241293Y-79347094D01*
X157227961Y-79370185D01*
X157222055Y-79379456D01*
X157200446Y-79410316D01*
X157197592Y-79420966D01*
X157196115Y-79424134D01*
X157194923Y-79427410D01*
X157189412Y-79436955D01*
X157185577Y-79458707D01*
X157182870Y-79474058D01*
X157180492Y-79484785D01*
X157170736Y-79521193D01*
X157171697Y-79532178D01*
X157171697Y-79532180D01*
X157174020Y-79558728D01*
X157174500Y-79569710D01*
X157174500Y-79885762D01*
X157172265Y-79909391D01*
X157170766Y-79917245D01*
X157169596Y-79923371D01*
X157169755Y-79944032D01*
X157169788Y-79946480D01*
X157170380Y-79976673D01*
X157170407Y-79977839D01*
X157171097Y-80005121D01*
X157171565Y-80025671D01*
X157171629Y-80028500D01*
X157171656Y-80030155D01*
X157171804Y-80045534D01*
X157165976Y-80083516D01*
X157162500Y-80090339D01*
X157145131Y-80200000D01*
X157162500Y-80309661D01*
X157212905Y-80408587D01*
X157291413Y-80487095D01*
X157390339Y-80537500D01*
X157500000Y-80554869D01*
X157509792Y-80553318D01*
X157599869Y-80539051D01*
X157609661Y-80537500D01*
X157708587Y-80487095D01*
X157710277Y-80485405D01*
X166865698Y-80485405D01*
X166876297Y-80600754D01*
X166878394Y-80612068D01*
X166934275Y-80810206D01*
X166938397Y-80820945D01*
X167029451Y-81005583D01*
X167035462Y-81015392D01*
X167158640Y-81180349D01*
X167166329Y-81188889D01*
X167317510Y-81328639D01*
X167326635Y-81335640D01*
X167500745Y-81445495D01*
X167510992Y-81450716D01*
X167702207Y-81527003D01*
X167713233Y-81530270D01*
X167773230Y-81542203D01*
X167786106Y-81541051D01*
X167790107Y-81528663D01*
X168299000Y-81528663D01*
X168302806Y-81541625D01*
X168317722Y-81543561D01*
X168346798Y-81538565D01*
X168357918Y-81535585D01*
X168551060Y-81464331D01*
X168561438Y-81459381D01*
X168738361Y-81354123D01*
X168747673Y-81347357D01*
X168902453Y-81211619D01*
X168910370Y-81203276D01*
X169037820Y-81041606D01*
X169044091Y-81031950D01*
X169139940Y-80849771D01*
X169144345Y-80839137D01*
X169205393Y-80642530D01*
X169207785Y-80631276D01*
X169224863Y-80486988D01*
X169224595Y-80485405D01*
X172325698Y-80485405D01*
X172336297Y-80600754D01*
X172338394Y-80612068D01*
X172394275Y-80810206D01*
X172398397Y-80820945D01*
X172489451Y-81005583D01*
X172495462Y-81015392D01*
X172618640Y-81180349D01*
X172626329Y-81188889D01*
X172777510Y-81328639D01*
X172786635Y-81335640D01*
X172960745Y-81445495D01*
X172970992Y-81450716D01*
X173162207Y-81527003D01*
X173173233Y-81530270D01*
X173233230Y-81542203D01*
X173246106Y-81541051D01*
X173250107Y-81528663D01*
X173759000Y-81528663D01*
X173762806Y-81541625D01*
X173777722Y-81543561D01*
X173806798Y-81538565D01*
X173817918Y-81535585D01*
X174011060Y-81464331D01*
X174021438Y-81459381D01*
X174198361Y-81354123D01*
X174207673Y-81347357D01*
X174362453Y-81211619D01*
X174370370Y-81203276D01*
X174497820Y-81041606D01*
X174504091Y-81031950D01*
X174599940Y-80849771D01*
X174604345Y-80839137D01*
X174665393Y-80642530D01*
X174667785Y-80631276D01*
X174684863Y-80486988D01*
X174682421Y-80472569D01*
X174669679Y-80469000D01*
X173777115Y-80469000D01*
X173761876Y-80473475D01*
X173760671Y-80474865D01*
X173759000Y-80482548D01*
X173759000Y-81528663D01*
X173250107Y-81528663D01*
X173251000Y-81525898D01*
X173251000Y-80487115D01*
X173246525Y-80471876D01*
X173245135Y-80470671D01*
X173237452Y-80469000D01*
X172342306Y-80469000D01*
X172327761Y-80473271D01*
X172325698Y-80485405D01*
X169224595Y-80485405D01*
X169222421Y-80472569D01*
X169209679Y-80469000D01*
X168317115Y-80469000D01*
X168301876Y-80473475D01*
X168300671Y-80474865D01*
X168299000Y-80482548D01*
X168299000Y-81528663D01*
X167790107Y-81528663D01*
X167791000Y-81525898D01*
X167791000Y-80487115D01*
X167786525Y-80471876D01*
X167785135Y-80470671D01*
X167777452Y-80469000D01*
X166882306Y-80469000D01*
X166867761Y-80473271D01*
X166865698Y-80485405D01*
X157710277Y-80485405D01*
X157787095Y-80408587D01*
X157837500Y-80309661D01*
X157854869Y-80200000D01*
X157837500Y-80090339D01*
X157834023Y-80083516D01*
X157828195Y-80045533D01*
X157828343Y-80030155D01*
X157828370Y-80028500D01*
X157828435Y-80025671D01*
X157828902Y-80005121D01*
X157829592Y-79977839D01*
X157829618Y-79976678D01*
X157830208Y-79946625D01*
X157830242Y-79944182D01*
X157830251Y-79943012D01*
X166865137Y-79943012D01*
X166867579Y-79957431D01*
X166880321Y-79961000D01*
X167772885Y-79961000D01*
X167788124Y-79956525D01*
X167789329Y-79955135D01*
X167791000Y-79947452D01*
X167791000Y-79942885D01*
X168299000Y-79942885D01*
X168303475Y-79958124D01*
X168304865Y-79959329D01*
X168312548Y-79961000D01*
X169207694Y-79961000D01*
X169222239Y-79956729D01*
X169224302Y-79944595D01*
X169224157Y-79943012D01*
X172325137Y-79943012D01*
X172327579Y-79957431D01*
X172340321Y-79961000D01*
X173232885Y-79961000D01*
X173248124Y-79956525D01*
X173249329Y-79955135D01*
X173251000Y-79947452D01*
X173251000Y-79942885D01*
X173759000Y-79942885D01*
X173763475Y-79958124D01*
X173764865Y-79959329D01*
X173772548Y-79961000D01*
X174667694Y-79961000D01*
X174682239Y-79956729D01*
X174684302Y-79944595D01*
X174673703Y-79829246D01*
X174671606Y-79817932D01*
X174615725Y-79619794D01*
X174611603Y-79609055D01*
X174520549Y-79424417D01*
X174514538Y-79414608D01*
X174391360Y-79249651D01*
X174383671Y-79241111D01*
X174232490Y-79101361D01*
X174223365Y-79094360D01*
X174049255Y-78984505D01*
X174039008Y-78979284D01*
X173847793Y-78902997D01*
X173836767Y-78899730D01*
X173776770Y-78887797D01*
X173763894Y-78888949D01*
X173759000Y-78904102D01*
X173759000Y-79942885D01*
X173251000Y-79942885D01*
X173251000Y-78901337D01*
X173247194Y-78888375D01*
X173232278Y-78886439D01*
X173203202Y-78891435D01*
X173192082Y-78894415D01*
X172998940Y-78965669D01*
X172988562Y-78970619D01*
X172811639Y-79075877D01*
X172802327Y-79082643D01*
X172647547Y-79218381D01*
X172639630Y-79226724D01*
X172512180Y-79388394D01*
X172505909Y-79398050D01*
X172410060Y-79580229D01*
X172405655Y-79590863D01*
X172344607Y-79787470D01*
X172342215Y-79798724D01*
X172325137Y-79943012D01*
X169224157Y-79943012D01*
X169213703Y-79829246D01*
X169211606Y-79817932D01*
X169155725Y-79619794D01*
X169151603Y-79609055D01*
X169060549Y-79424417D01*
X169054538Y-79414608D01*
X168931360Y-79249651D01*
X168923671Y-79241111D01*
X168772490Y-79101361D01*
X168763365Y-79094360D01*
X168589255Y-78984505D01*
X168579008Y-78979284D01*
X168387793Y-78902997D01*
X168376767Y-78899730D01*
X168316770Y-78887797D01*
X168303894Y-78888949D01*
X168299000Y-78904102D01*
X168299000Y-79942885D01*
X167791000Y-79942885D01*
X167791000Y-78901337D01*
X167787194Y-78888375D01*
X167772278Y-78886439D01*
X167743202Y-78891435D01*
X167732082Y-78894415D01*
X167538940Y-78965669D01*
X167528562Y-78970619D01*
X167351639Y-79075877D01*
X167342327Y-79082643D01*
X167187547Y-79218381D01*
X167179630Y-79226724D01*
X167052180Y-79388394D01*
X167045909Y-79398050D01*
X166950060Y-79580229D01*
X166945655Y-79590863D01*
X166884607Y-79787470D01*
X166882215Y-79798724D01*
X166865137Y-79943012D01*
X157830251Y-79943012D01*
X157830403Y-79923381D01*
X157827781Y-79909790D01*
X157825500Y-79885922D01*
X157825500Y-79737016D01*
X157845502Y-79668895D01*
X157862405Y-79647921D01*
X157947921Y-79562405D01*
X158010233Y-79528379D01*
X158037016Y-79525500D01*
X159480290Y-79525500D01*
X159491272Y-79525980D01*
X159517820Y-79528303D01*
X159517822Y-79528303D01*
X159528807Y-79529264D01*
X159565215Y-79519508D01*
X159575942Y-79517130D01*
X159582350Y-79516000D01*
X159613045Y-79510588D01*
X159622590Y-79505077D01*
X159625866Y-79503885D01*
X159629034Y-79502408D01*
X159639684Y-79499554D01*
X159670544Y-79477945D01*
X159679815Y-79472039D01*
X159702906Y-79458707D01*
X159712455Y-79453194D01*
X159736685Y-79424317D01*
X159744111Y-79416215D01*
X160716215Y-78444111D01*
X160724319Y-78436684D01*
X160744749Y-78419541D01*
X160753194Y-78412455D01*
X160764934Y-78392121D01*
X160772039Y-78379815D01*
X160777945Y-78370544D01*
X160790335Y-78352850D01*
X160799444Y-78339841D01*
X160854901Y-78295514D01*
X160925520Y-78288205D01*
X160954008Y-78297531D01*
X160958153Y-78300285D01*
X161101598Y-78346894D01*
X161110182Y-78347254D01*
X161110183Y-78347254D01*
X161176946Y-78350052D01*
X161252294Y-78353210D01*
X161399136Y-78318768D01*
X161531308Y-78246107D01*
X161539422Y-78239103D01*
X162078655Y-77699869D01*
X162082465Y-77696216D01*
X162121833Y-77660015D01*
X162128156Y-77654201D01*
X162151099Y-77617198D01*
X162157800Y-77607448D01*
X162184112Y-77572783D01*
X162189646Y-77558804D01*
X162199707Y-77538801D01*
X162207635Y-77526014D01*
X162219380Y-77485589D01*
X167298803Y-77485589D01*
X167311527Y-77615361D01*
X167313910Y-77627396D01*
X167370317Y-77814223D01*
X167374992Y-77825565D01*
X167466612Y-77997879D01*
X167473399Y-78008095D01*
X167596747Y-78159335D01*
X167605391Y-78168039D01*
X167755763Y-78292438D01*
X167765931Y-78299297D01*
X167937607Y-78392121D01*
X167948907Y-78396871D01*
X168083693Y-78438595D01*
X168097795Y-78438801D01*
X168101000Y-78432045D01*
X168101000Y-78425047D01*
X168609000Y-78425047D01*
X168612973Y-78438578D01*
X168620768Y-78439698D01*
X168747342Y-78402446D01*
X168758710Y-78397853D01*
X168931666Y-78307434D01*
X168941928Y-78300718D01*
X169094020Y-78178432D01*
X169102786Y-78169848D01*
X169228236Y-78020344D01*
X169235160Y-78010233D01*
X169329184Y-77839202D01*
X169334012Y-77827938D01*
X169393025Y-77641905D01*
X169395573Y-77629916D01*
X169411762Y-77485589D01*
X172138803Y-77485589D01*
X172151527Y-77615361D01*
X172153910Y-77627396D01*
X172210317Y-77814223D01*
X172214992Y-77825565D01*
X172306612Y-77997879D01*
X172313399Y-78008095D01*
X172436747Y-78159335D01*
X172445391Y-78168039D01*
X172595763Y-78292438D01*
X172605931Y-78299297D01*
X172777607Y-78392121D01*
X172788907Y-78396871D01*
X172923693Y-78438595D01*
X172937795Y-78438801D01*
X172941000Y-78432045D01*
X172941000Y-78425047D01*
X173449000Y-78425047D01*
X173452973Y-78438578D01*
X173460768Y-78439698D01*
X173587342Y-78402446D01*
X173598710Y-78397853D01*
X173771666Y-78307434D01*
X173781928Y-78300718D01*
X173934020Y-78178432D01*
X173942786Y-78169848D01*
X174068236Y-78020344D01*
X174075160Y-78010233D01*
X174169184Y-77839202D01*
X174174012Y-77827938D01*
X174233025Y-77641905D01*
X174235573Y-77629916D01*
X174251980Y-77483643D01*
X174248525Y-77471876D01*
X174247135Y-77470671D01*
X174239452Y-77469000D01*
X173467115Y-77469000D01*
X173451876Y-77473475D01*
X173450671Y-77474865D01*
X173449000Y-77482548D01*
X173449000Y-78425047D01*
X172941000Y-78425047D01*
X172941000Y-77487115D01*
X172936525Y-77471876D01*
X172935135Y-77470671D01*
X172927452Y-77469000D01*
X172155291Y-77469000D01*
X172140864Y-77473236D01*
X172138803Y-77485589D01*
X169411762Y-77485589D01*
X169411980Y-77483643D01*
X169408525Y-77471876D01*
X169407135Y-77470671D01*
X169399452Y-77469000D01*
X168627115Y-77469000D01*
X168611876Y-77473475D01*
X168610671Y-77474865D01*
X168609000Y-77482548D01*
X168609000Y-78425047D01*
X168101000Y-78425047D01*
X168101000Y-77487115D01*
X168096525Y-77471876D01*
X168095135Y-77470671D01*
X168087452Y-77469000D01*
X167315291Y-77469000D01*
X167300864Y-77473236D01*
X167298803Y-77485589D01*
X162219380Y-77485589D01*
X162219775Y-77484228D01*
X162223621Y-77472995D01*
X162224064Y-77471876D01*
X162239636Y-77432547D01*
X162241208Y-77417592D01*
X162245520Y-77395617D01*
X162249715Y-77381175D01*
X162250500Y-77370485D01*
X162250500Y-77335783D01*
X162251190Y-77322613D01*
X162254503Y-77291088D01*
X162255401Y-77282546D01*
X162253969Y-77274081D01*
X162253969Y-77274072D01*
X162252265Y-77264000D01*
X162250500Y-77242987D01*
X162250500Y-76946357D01*
X167298020Y-76946357D01*
X167301475Y-76958124D01*
X167302865Y-76959329D01*
X167310548Y-76961000D01*
X168082885Y-76961000D01*
X168098124Y-76956525D01*
X168099329Y-76955135D01*
X168101000Y-76947452D01*
X168101000Y-76942885D01*
X168609000Y-76942885D01*
X168613475Y-76958124D01*
X168614865Y-76959329D01*
X168622548Y-76961000D01*
X169394709Y-76961000D01*
X169409136Y-76956764D01*
X169410872Y-76946357D01*
X172138020Y-76946357D01*
X172141475Y-76958124D01*
X172142865Y-76959329D01*
X172150548Y-76961000D01*
X172922885Y-76961000D01*
X172938124Y-76956525D01*
X172939329Y-76955135D01*
X172941000Y-76947452D01*
X172941000Y-76942885D01*
X173449000Y-76942885D01*
X173453475Y-76958124D01*
X173454865Y-76959329D01*
X173462548Y-76961000D01*
X174234709Y-76961000D01*
X174249136Y-76956764D01*
X174251197Y-76944411D01*
X174238473Y-76814639D01*
X174236090Y-76802604D01*
X174179683Y-76615777D01*
X174175008Y-76604435D01*
X174083388Y-76432121D01*
X174076601Y-76421905D01*
X173953253Y-76270665D01*
X173944609Y-76261961D01*
X173794237Y-76137562D01*
X173784069Y-76130703D01*
X173612393Y-76037879D01*
X173601093Y-76033129D01*
X173466307Y-75991405D01*
X173452205Y-75991199D01*
X173449000Y-75997955D01*
X173449000Y-76942885D01*
X172941000Y-76942885D01*
X172941000Y-76004953D01*
X172937027Y-75991422D01*
X172929232Y-75990302D01*
X172802658Y-76027554D01*
X172791290Y-76032147D01*
X172618334Y-76122566D01*
X172608072Y-76129282D01*
X172455980Y-76251568D01*
X172447214Y-76260152D01*
X172321764Y-76409656D01*
X172314840Y-76419767D01*
X172220816Y-76590798D01*
X172215988Y-76602062D01*
X172156975Y-76788095D01*
X172154427Y-76800084D01*
X172138020Y-76946357D01*
X169410872Y-76946357D01*
X169411197Y-76944411D01*
X169398473Y-76814639D01*
X169396090Y-76802604D01*
X169339683Y-76615777D01*
X169335008Y-76604435D01*
X169243388Y-76432121D01*
X169236601Y-76421905D01*
X169113253Y-76270665D01*
X169104609Y-76261961D01*
X168954237Y-76137562D01*
X168944069Y-76130703D01*
X168772393Y-76037879D01*
X168761093Y-76033129D01*
X168626307Y-75991405D01*
X168612205Y-75991199D01*
X168609000Y-75997955D01*
X168609000Y-76942885D01*
X168101000Y-76942885D01*
X168101000Y-76004953D01*
X168097027Y-75991422D01*
X168089232Y-75990302D01*
X167962658Y-76027554D01*
X167951290Y-76032147D01*
X167778334Y-76122566D01*
X167768072Y-76129282D01*
X167615980Y-76251568D01*
X167607214Y-76260152D01*
X167481764Y-76409656D01*
X167474840Y-76419767D01*
X167380816Y-76590798D01*
X167375988Y-76602062D01*
X167316975Y-76788095D01*
X167314427Y-76800084D01*
X167298020Y-76946357D01*
X162250500Y-76946357D01*
X162250500Y-71065196D01*
X165124055Y-71065196D01*
X165126522Y-71073828D01*
X165140745Y-71123592D01*
X165161484Y-71196158D01*
X165166273Y-71203748D01*
X165227994Y-71301569D01*
X165234165Y-71311350D01*
X165240894Y-71317293D01*
X165240895Y-71317294D01*
X165273426Y-71346024D01*
X165336255Y-71401513D01*
X165344378Y-71405327D01*
X165344380Y-71405328D01*
X165403607Y-71433135D01*
X165459548Y-71459399D01*
X165468412Y-71460779D01*
X165468415Y-71460780D01*
X165530253Y-71470408D01*
X165562956Y-71475500D01*
X166932627Y-71475500D01*
X166943723Y-71476739D01*
X166943771Y-71476141D01*
X166952717Y-71476861D01*
X166961473Y-71478842D01*
X167011441Y-71475742D01*
X167019242Y-71475500D01*
X167034145Y-71475500D01*
X167043514Y-71474158D01*
X167053566Y-71473129D01*
X167097417Y-71470408D01*
X167105862Y-71467359D01*
X167112098Y-71466068D01*
X167119849Y-71464135D01*
X167125938Y-71462354D01*
X167134829Y-71461081D01*
X167146917Y-71455585D01*
X167174836Y-71442892D01*
X167184201Y-71439080D01*
X167217083Y-71427209D01*
X167217086Y-71427207D01*
X167225530Y-71424159D01*
X167232777Y-71418864D01*
X167238407Y-71415871D01*
X167245257Y-71411868D01*
X167250644Y-71408423D01*
X167258820Y-71404706D01*
X167292113Y-71376019D01*
X167300029Y-71369734D01*
X167306101Y-71365298D01*
X167306108Y-71365292D01*
X167310035Y-71362423D01*
X167320076Y-71352382D01*
X167326923Y-71346024D01*
X167355202Y-71321657D01*
X167362004Y-71315796D01*
X167366888Y-71308261D01*
X167372787Y-71301499D01*
X167372867Y-71301569D01*
X167381252Y-71291206D01*
X169088586Y-69583872D01*
X169097312Y-69576900D01*
X169096923Y-69576442D01*
X169103757Y-69570626D01*
X169111350Y-69565835D01*
X169144506Y-69528293D01*
X169149852Y-69522606D01*
X169160373Y-69512085D01*
X169166048Y-69504513D01*
X169172424Y-69496682D01*
X169195570Y-69470474D01*
X169201513Y-69463745D01*
X169205329Y-69455618D01*
X169208834Y-69450281D01*
X169212936Y-69443454D01*
X169215991Y-69437875D01*
X169221372Y-69430695D01*
X169224521Y-69422294D01*
X169224523Y-69422291D01*
X169236798Y-69389545D01*
X169240727Y-69380222D01*
X169255585Y-69348577D01*
X169255586Y-69348572D01*
X169259399Y-69340452D01*
X169260780Y-69331584D01*
X169262633Y-69325523D01*
X169264667Y-69317771D01*
X169266032Y-69311564D01*
X169269183Y-69303157D01*
X169272439Y-69259339D01*
X169273593Y-69249291D01*
X169274750Y-69241858D01*
X169275500Y-69237044D01*
X169275500Y-69222834D01*
X169275846Y-69213496D01*
X169278612Y-69176274D01*
X169279277Y-69167326D01*
X169277404Y-69158550D01*
X169276793Y-69149593D01*
X169276899Y-69149586D01*
X169275500Y-69136333D01*
X169275500Y-66465855D01*
X169261081Y-66365171D01*
X169204706Y-66241180D01*
X169115796Y-66137996D01*
X169102494Y-66129374D01*
X169009032Y-66068794D01*
X169009030Y-66068793D01*
X169001501Y-66063913D01*
X168992904Y-66061342D01*
X168992902Y-66061341D01*
X168886424Y-66029498D01*
X168871006Y-66024887D01*
X168862030Y-66024832D01*
X168862029Y-66024832D01*
X168805036Y-66024484D01*
X168734804Y-66024055D01*
X168726172Y-66026522D01*
X168612473Y-66059017D01*
X168612471Y-66059018D01*
X168603842Y-66061484D01*
X168596252Y-66066273D01*
X168502336Y-66125530D01*
X168488650Y-66134165D01*
X168398487Y-66236255D01*
X168394673Y-66244378D01*
X168394672Y-66244380D01*
X168381335Y-66272787D01*
X168340601Y-66359548D01*
X168324500Y-66462956D01*
X168324500Y-68950851D01*
X168304498Y-69018972D01*
X168287595Y-69039946D01*
X166839947Y-70487595D01*
X166777635Y-70521620D01*
X166750852Y-70524500D01*
X165565855Y-70524500D01*
X165526411Y-70530149D01*
X165474057Y-70537646D01*
X165474054Y-70537647D01*
X165465171Y-70538919D01*
X165341180Y-70595294D01*
X165237996Y-70684204D01*
X165163913Y-70798499D01*
X165124887Y-70928994D01*
X165124055Y-71065196D01*
X162250500Y-71065196D01*
X162250500Y-70580215D01*
X162270502Y-70512094D01*
X162287405Y-70491120D01*
X166917052Y-65861473D01*
X169921158Y-65861473D01*
X169923000Y-65891166D01*
X169924258Y-65911440D01*
X169924500Y-65919242D01*
X169924500Y-65934145D01*
X169925285Y-65939627D01*
X169925841Y-65943508D01*
X169926871Y-65953566D01*
X169929592Y-65997417D01*
X169932641Y-66005862D01*
X169933932Y-66012098D01*
X169935865Y-66019849D01*
X169937646Y-66025938D01*
X169938919Y-66034829D01*
X169942636Y-66043004D01*
X169957108Y-66074836D01*
X169960920Y-66084201D01*
X169972791Y-66117083D01*
X169972793Y-66117086D01*
X169975841Y-66125530D01*
X169981136Y-66132777D01*
X169984129Y-66138407D01*
X169988132Y-66145257D01*
X169991577Y-66150644D01*
X169995294Y-66158820D01*
X170001154Y-66165620D01*
X170001154Y-66165621D01*
X170023981Y-66192113D01*
X170030266Y-66200029D01*
X170034702Y-66206101D01*
X170034708Y-66206108D01*
X170037577Y-66210035D01*
X170047618Y-66220076D01*
X170053976Y-66226923D01*
X170084204Y-66262004D01*
X170091739Y-66266888D01*
X170098501Y-66272787D01*
X170098431Y-66272867D01*
X170108794Y-66281252D01*
X170416128Y-66588586D01*
X170423100Y-66597312D01*
X170423558Y-66596923D01*
X170429374Y-66603757D01*
X170434165Y-66611350D01*
X170440894Y-66617292D01*
X170440894Y-66617293D01*
X170471707Y-66644506D01*
X170477394Y-66649852D01*
X170487915Y-66660373D01*
X170495487Y-66666048D01*
X170503318Y-66672424D01*
X170536255Y-66701513D01*
X170544382Y-66705329D01*
X170549719Y-66708834D01*
X170556546Y-66712936D01*
X170562125Y-66715991D01*
X170569305Y-66721372D01*
X170577706Y-66724521D01*
X170577709Y-66724523D01*
X170610455Y-66736798D01*
X170619778Y-66740727D01*
X170651423Y-66755585D01*
X170651428Y-66755586D01*
X170659548Y-66759399D01*
X170668416Y-66760780D01*
X170674477Y-66762633D01*
X170682229Y-66764667D01*
X170688436Y-66766032D01*
X170696843Y-66769183D01*
X170740660Y-66772439D01*
X170750709Y-66773593D01*
X170762956Y-66775500D01*
X170777166Y-66775500D01*
X170786504Y-66775846D01*
X170832674Y-66779277D01*
X170841449Y-66777404D01*
X170850409Y-66776793D01*
X170850416Y-66776899D01*
X170863668Y-66775500D01*
X173650851Y-66775500D01*
X173718972Y-66795502D01*
X173739947Y-66812405D01*
X174087915Y-67160374D01*
X174169305Y-67221372D01*
X174296843Y-67269184D01*
X174432674Y-67279277D01*
X174441448Y-67277404D01*
X174441450Y-67277404D01*
X174557100Y-67252717D01*
X174557101Y-67252716D01*
X174565878Y-67250843D01*
X174573774Y-67246582D01*
X174573778Y-67246581D01*
X174677847Y-67190428D01*
X174677849Y-67190427D01*
X174685747Y-67186165D01*
X174782645Y-67090444D01*
X174796308Y-67065847D01*
X174844422Y-66979223D01*
X174844422Y-66979222D01*
X174848782Y-66971373D01*
X174851117Y-66961057D01*
X174876861Y-66847282D01*
X174878842Y-66838527D01*
X174870409Y-66702583D01*
X174854026Y-66657203D01*
X174827206Y-66582911D01*
X174824159Y-66574471D01*
X174818868Y-66567228D01*
X174818866Y-66567225D01*
X174765297Y-66493899D01*
X174762423Y-66489965D01*
X174283872Y-66011414D01*
X174276900Y-66002688D01*
X174276442Y-66003077D01*
X174270626Y-65996243D01*
X174265835Y-65988650D01*
X174228293Y-65955494D01*
X174222606Y-65950148D01*
X174212085Y-65939627D01*
X174204513Y-65933952D01*
X174196682Y-65927576D01*
X174194255Y-65925433D01*
X174163745Y-65898487D01*
X174155618Y-65894671D01*
X174150281Y-65891166D01*
X174143463Y-65887070D01*
X174137880Y-65884013D01*
X174130695Y-65878628D01*
X174122290Y-65875477D01*
X174122288Y-65875476D01*
X174089546Y-65863202D01*
X174080226Y-65859275D01*
X174077010Y-65857765D01*
X174040452Y-65840601D01*
X174031582Y-65839220D01*
X174025502Y-65837361D01*
X174017781Y-65835335D01*
X174011568Y-65833969D01*
X174003157Y-65830816D01*
X173976120Y-65828807D01*
X173959324Y-65827559D01*
X173949277Y-65826405D01*
X173941855Y-65825249D01*
X173941853Y-65825249D01*
X173937044Y-65824500D01*
X173922838Y-65824500D01*
X173913501Y-65824154D01*
X173899329Y-65823101D01*
X173867326Y-65820723D01*
X173858550Y-65822596D01*
X173849593Y-65823207D01*
X173849586Y-65823101D01*
X173836333Y-65824500D01*
X171049150Y-65824500D01*
X170981029Y-65804498D01*
X170960055Y-65787596D01*
X170912405Y-65739947D01*
X170878380Y-65677636D01*
X170875500Y-65650851D01*
X170875500Y-63965855D01*
X170861081Y-63865171D01*
X170804706Y-63741180D01*
X170715796Y-63637996D01*
X170702494Y-63629374D01*
X170609032Y-63568794D01*
X170609030Y-63568793D01*
X170601501Y-63563913D01*
X170592904Y-63561342D01*
X170592902Y-63561341D01*
X170509209Y-63536312D01*
X170471006Y-63524887D01*
X170462030Y-63524832D01*
X170462029Y-63524832D01*
X170405036Y-63524484D01*
X170334804Y-63524055D01*
X170326172Y-63526522D01*
X170212473Y-63559017D01*
X170212471Y-63559018D01*
X170203842Y-63561484D01*
X170196252Y-63566273D01*
X170117494Y-63615966D01*
X170088650Y-63634165D01*
X169998487Y-63736255D01*
X169994673Y-63744378D01*
X169994672Y-63744380D01*
X169980932Y-63773645D01*
X169940601Y-63859548D01*
X169924500Y-63962956D01*
X169924500Y-65832627D01*
X169923261Y-65843723D01*
X169923859Y-65843771D01*
X169923139Y-65852717D01*
X169921158Y-65861473D01*
X166917052Y-65861473D01*
X174178642Y-58599882D01*
X174182451Y-58596229D01*
X174221833Y-58560015D01*
X174228156Y-58554201D01*
X174251099Y-58517198D01*
X174257800Y-58507448D01*
X174284112Y-58472783D01*
X174289646Y-58458804D01*
X174299707Y-58438801D01*
X174307635Y-58426014D01*
X174319775Y-58384228D01*
X174323621Y-58372995D01*
X174336473Y-58340535D01*
X174339636Y-58332547D01*
X174341208Y-58317592D01*
X174345520Y-58295617D01*
X174349715Y-58281175D01*
X174350500Y-58270485D01*
X174350500Y-58235783D01*
X174351190Y-58222613D01*
X174354503Y-58191088D01*
X174355401Y-58182546D01*
X174353969Y-58174081D01*
X174353969Y-58174072D01*
X174352265Y-58164000D01*
X174350500Y-58142987D01*
X174350500Y-57469133D01*
X174352726Y-57445556D01*
X174354239Y-57437615D01*
X174354240Y-57437609D01*
X174355397Y-57431533D01*
X174355143Y-57400245D01*
X174354718Y-57348076D01*
X174354680Y-57345456D01*
X174352847Y-57257703D01*
X174352818Y-57256496D01*
X174352816Y-57256411D01*
X174352297Y-57237038D01*
X174373487Y-57163663D01*
X174406974Y-57113547D01*
X174413867Y-57103231D01*
X174425500Y-57044748D01*
X174425500Y-56155252D01*
X174413867Y-56096769D01*
X174369552Y-56030448D01*
X174303231Y-55986133D01*
X174291062Y-55983712D01*
X174291061Y-55983712D01*
X174250816Y-55975707D01*
X174244748Y-55974500D01*
X173355252Y-55974500D01*
X173349184Y-55975707D01*
X173308939Y-55983712D01*
X173308938Y-55983712D01*
X173296769Y-55986133D01*
X173230448Y-56030448D01*
X173230029Y-56029822D01*
X173177558Y-56058474D01*
X173106743Y-56053409D01*
X173091816Y-56046707D01*
X173032520Y-56015312D01*
X173032517Y-56015311D01*
X173025805Y-56011757D01*
X172878972Y-55974874D01*
X172871374Y-55974834D01*
X172871372Y-55974834D01*
X172806775Y-55974496D01*
X172727579Y-55974082D01*
X172720200Y-55975854D01*
X172720196Y-55975854D01*
X172587746Y-56007652D01*
X172587742Y-56007653D01*
X172580367Y-56009424D01*
X172445835Y-56078861D01*
X172440113Y-56083853D01*
X172440111Y-56083854D01*
X172337474Y-56173390D01*
X172337471Y-56173393D01*
X172331749Y-56178385D01*
X172244696Y-56302249D01*
X172189702Y-56443302D01*
X172169941Y-56593402D01*
X172186554Y-56743883D01*
X172238582Y-56886057D01*
X172242819Y-56892363D01*
X172242821Y-56892366D01*
X172275506Y-56941005D01*
X172323022Y-57011716D01*
X172434998Y-57113607D01*
X172441675Y-57117232D01*
X172441676Y-57117233D01*
X172561370Y-57182222D01*
X172561372Y-57182223D01*
X172568047Y-57185847D01*
X172575396Y-57187775D01*
X172707136Y-57222336D01*
X172707138Y-57222336D01*
X172714486Y-57224264D01*
X172794562Y-57225522D01*
X172858266Y-57226523D01*
X172858269Y-57226523D01*
X172865863Y-57226642D01*
X173013437Y-57192843D01*
X173064045Y-57167390D01*
X173133890Y-57154652D01*
X173199533Y-57181696D01*
X173240135Y-57239937D01*
X173246632Y-57282585D01*
X173245322Y-57345308D01*
X173245284Y-57347925D01*
X173244603Y-57431531D01*
X173247041Y-57444186D01*
X173247226Y-57445148D01*
X173249500Y-57468979D01*
X173249500Y-57919785D01*
X173229498Y-57987906D01*
X173212595Y-58008880D01*
X167752647Y-63468829D01*
X162437496Y-68783980D01*
X162375184Y-68818006D01*
X162304369Y-68812941D01*
X162247533Y-68770394D01*
X162232762Y-68744921D01*
X162229233Y-68736765D01*
X162222201Y-68715501D01*
X162220729Y-68709225D01*
X162218768Y-68700864D01*
X162214631Y-68693339D01*
X162214630Y-68693336D01*
X162197805Y-68662732D01*
X162192589Y-68652087D01*
X162175305Y-68612145D01*
X162165842Y-68600459D01*
X162153354Y-68581874D01*
X162149290Y-68574482D01*
X162146107Y-68568692D01*
X162139103Y-68560578D01*
X162114567Y-68536042D01*
X162105742Y-68526241D01*
X162085794Y-68501608D01*
X162085793Y-68501607D01*
X162080386Y-68494930D01*
X162073388Y-68489957D01*
X162073383Y-68489952D01*
X162065052Y-68484032D01*
X162048946Y-68470421D01*
X158499882Y-64921358D01*
X158496229Y-64917549D01*
X158460015Y-64878167D01*
X158454201Y-64871844D01*
X158417198Y-64848901D01*
X158407448Y-64842200D01*
X158372783Y-64815888D01*
X158358804Y-64810354D01*
X158338801Y-64800293D01*
X158326014Y-64792365D01*
X158317763Y-64789968D01*
X158317761Y-64789967D01*
X158284228Y-64780225D01*
X158272995Y-64776379D01*
X158232547Y-64760364D01*
X158224006Y-64759466D01*
X158224005Y-64759466D01*
X158217592Y-64758792D01*
X158195617Y-64754480D01*
X158181175Y-64750285D01*
X158173692Y-64749736D01*
X158172792Y-64749669D01*
X158172781Y-64749669D01*
X158170485Y-64749500D01*
X158135783Y-64749500D01*
X158122613Y-64748810D01*
X158112384Y-64747735D01*
X158082546Y-64744599D01*
X158074081Y-64746031D01*
X158074072Y-64746031D01*
X158064000Y-64747735D01*
X158042987Y-64749500D01*
X157323673Y-64749500D01*
X157298293Y-64746917D01*
X157295570Y-64746357D01*
X157289665Y-64744524D01*
X157283518Y-64743878D01*
X157283516Y-64743878D01*
X157171132Y-64732075D01*
X157109602Y-64725613D01*
X157075379Y-64717052D01*
X156998705Y-64685929D01*
X156961569Y-64662620D01*
X156922749Y-64627498D01*
X156897408Y-64595737D01*
X156860941Y-64530767D01*
X156849956Y-64504715D01*
X156815491Y-64387775D01*
X156811960Y-64372228D01*
X156785180Y-64206271D01*
X156784299Y-64199727D01*
X156762375Y-63996722D01*
X156762270Y-63995775D01*
X156748553Y-63874057D01*
X156737276Y-63773983D01*
X156736620Y-63768760D01*
X156736534Y-63768140D01*
X156735651Y-63762376D01*
X156733467Y-63749354D01*
X156707413Y-63594049D01*
X156715870Y-63523558D01*
X156761094Y-63468829D01*
X156828728Y-63447238D01*
X156897298Y-63465640D01*
X156929599Y-63493911D01*
X156934153Y-63499535D01*
X156946645Y-63518125D01*
X156953893Y-63531308D01*
X156960897Y-63539422D01*
X156985433Y-63563958D01*
X156994258Y-63573759D01*
X157010689Y-63594049D01*
X157019614Y-63605070D01*
X157026613Y-63610044D01*
X157026614Y-63610045D01*
X157034946Y-63615966D01*
X157051051Y-63629577D01*
X157600130Y-64178656D01*
X157603782Y-64182464D01*
X157633692Y-64214989D01*
X157645799Y-64228156D01*
X157653099Y-64232682D01*
X157653100Y-64232683D01*
X157682783Y-64251087D01*
X157692553Y-64257801D01*
X157727216Y-64284112D01*
X157741201Y-64289649D01*
X157761209Y-64299713D01*
X157773986Y-64307635D01*
X157782232Y-64310031D01*
X157782235Y-64310032D01*
X157815765Y-64319773D01*
X157826985Y-64323613D01*
X157867453Y-64339636D01*
X157875994Y-64340534D01*
X157875995Y-64340534D01*
X157882408Y-64341208D01*
X157904383Y-64345520D01*
X157918825Y-64349715D01*
X157926308Y-64350264D01*
X157927208Y-64350331D01*
X157927219Y-64350331D01*
X157929515Y-64350500D01*
X157964217Y-64350500D01*
X157977387Y-64351190D01*
X158017454Y-64355401D01*
X158025919Y-64353969D01*
X158025928Y-64353969D01*
X158036000Y-64352265D01*
X158057013Y-64350500D01*
X159019785Y-64350500D01*
X159087906Y-64370502D01*
X159108880Y-64387405D01*
X161700118Y-66978642D01*
X161703771Y-66982451D01*
X161745799Y-67028156D01*
X161782802Y-67051099D01*
X161792552Y-67057800D01*
X161827217Y-67084112D01*
X161841195Y-67089646D01*
X161861199Y-67099707D01*
X161873986Y-67107635D01*
X161882237Y-67110032D01*
X161882239Y-67110033D01*
X161915772Y-67119775D01*
X161927002Y-67123620D01*
X161967453Y-67139636D01*
X161975994Y-67140534D01*
X161975995Y-67140534D01*
X161982408Y-67141208D01*
X162004383Y-67145520D01*
X162018825Y-67149715D01*
X162026308Y-67150264D01*
X162027208Y-67150331D01*
X162027219Y-67150331D01*
X162029515Y-67150500D01*
X162064217Y-67150500D01*
X162077387Y-67151190D01*
X162117454Y-67155401D01*
X162125919Y-67153969D01*
X162125928Y-67153969D01*
X162136000Y-67152265D01*
X162157013Y-67150500D01*
X163385007Y-67150500D01*
X163390284Y-67150611D01*
X163452294Y-67153210D01*
X163463848Y-67150500D01*
X163494662Y-67143273D01*
X163506333Y-67141110D01*
X163521229Y-67139069D01*
X163549432Y-67135206D01*
X163563230Y-67129235D01*
X163584499Y-67122201D01*
X163590775Y-67120729D01*
X163599136Y-67118768D01*
X163606661Y-67114631D01*
X163606664Y-67114630D01*
X163637268Y-67097805D01*
X163647913Y-67092589D01*
X163687855Y-67075305D01*
X163699541Y-67065842D01*
X163718126Y-67053354D01*
X163731308Y-67046107D01*
X163739422Y-67039103D01*
X163763958Y-67014567D01*
X163773759Y-67005742D01*
X163798392Y-66985794D01*
X163798393Y-66985793D01*
X163805070Y-66980386D01*
X163811476Y-66971373D01*
X163815966Y-66965054D01*
X163829576Y-66948949D01*
X164412953Y-66365571D01*
X164415980Y-66362544D01*
X164484112Y-66272784D01*
X164539636Y-66132547D01*
X164555401Y-65982546D01*
X164550390Y-65952916D01*
X164531680Y-65842294D01*
X164531679Y-65842291D01*
X164530248Y-65833830D01*
X164525249Y-65823207D01*
X164469688Y-65705133D01*
X164469687Y-65705131D01*
X164466029Y-65697358D01*
X164367476Y-65583181D01*
X164360320Y-65578426D01*
X164360318Y-65578425D01*
X164248999Y-65504467D01*
X164241847Y-65499715D01*
X164233685Y-65497063D01*
X164233681Y-65497061D01*
X164151268Y-65470283D01*
X164098402Y-65453106D01*
X164089818Y-65452746D01*
X164089817Y-65452746D01*
X164023054Y-65449948D01*
X163947706Y-65446790D01*
X163800864Y-65481232D01*
X163668692Y-65553893D01*
X163660578Y-65560897D01*
X163416978Y-65804498D01*
X163208881Y-66012595D01*
X163146568Y-66046620D01*
X163119785Y-66049500D01*
X162380215Y-66049500D01*
X162312094Y-66029498D01*
X162291120Y-66012595D01*
X159699882Y-63421358D01*
X159696229Y-63417549D01*
X159660015Y-63378167D01*
X159654201Y-63371844D01*
X159617198Y-63348901D01*
X159607448Y-63342200D01*
X159572783Y-63315888D01*
X159558804Y-63310354D01*
X159538801Y-63300293D01*
X159526014Y-63292365D01*
X159517763Y-63289968D01*
X159517761Y-63289967D01*
X159484228Y-63280225D01*
X159472995Y-63276379D01*
X159432547Y-63260364D01*
X159424006Y-63259466D01*
X159424005Y-63259466D01*
X159417592Y-63258792D01*
X159395617Y-63254480D01*
X159381175Y-63250285D01*
X159373692Y-63249736D01*
X159372792Y-63249669D01*
X159372781Y-63249669D01*
X159370485Y-63249500D01*
X159335783Y-63249500D01*
X159322613Y-63248810D01*
X159312384Y-63247735D01*
X159282546Y-63244599D01*
X159274081Y-63246031D01*
X159274072Y-63246031D01*
X159264000Y-63247735D01*
X159242987Y-63249500D01*
X158280216Y-63249500D01*
X158212095Y-63229498D01*
X158191121Y-63212596D01*
X157987405Y-63008881D01*
X157953380Y-62946569D01*
X157950500Y-62919785D01*
X157950500Y-62062215D01*
X157946339Y-62031834D01*
X157936372Y-61959082D01*
X157935206Y-61950568D01*
X157902066Y-61873986D01*
X157878717Y-61820029D01*
X157878716Y-61820027D01*
X157875305Y-61812145D01*
X157780386Y-61694930D01*
X157657442Y-61607558D01*
X157515532Y-61556467D01*
X157506970Y-61555838D01*
X157506969Y-61555838D01*
X157440321Y-61550944D01*
X157365109Y-61545420D01*
X157356694Y-61547117D01*
X157356691Y-61547117D01*
X157310323Y-61556467D01*
X157217257Y-61575233D01*
X157082868Y-61643707D01*
X156971844Y-61745799D01*
X156934848Y-61805467D01*
X156896890Y-61866687D01*
X156896889Y-61866690D01*
X156892365Y-61873986D01*
X156850285Y-62018825D01*
X156849500Y-62029515D01*
X156849500Y-63185007D01*
X156849388Y-63190317D01*
X156849340Y-63191455D01*
X156826485Y-63258672D01*
X156770918Y-63302863D01*
X156700280Y-63309996D01*
X156637000Y-63277808D01*
X156607043Y-63234363D01*
X156586600Y-63185007D01*
X156541793Y-63076834D01*
X156411191Y-62863711D01*
X156248857Y-62673643D01*
X156058789Y-62511309D01*
X155845666Y-62380707D01*
X155841096Y-62378814D01*
X155841092Y-62378812D01*
X155619305Y-62286945D01*
X155619299Y-62286943D01*
X155614736Y-62285053D01*
X155609936Y-62283901D01*
X155609931Y-62283899D01*
X155498668Y-62257187D01*
X155371686Y-62226701D01*
X155122500Y-62207090D01*
X154873314Y-62226701D01*
X154746332Y-62257187D01*
X154635069Y-62283899D01*
X154635064Y-62283901D01*
X154630264Y-62285053D01*
X154625701Y-62286943D01*
X154625695Y-62286945D01*
X154403908Y-62378812D01*
X154403904Y-62378814D01*
X154399334Y-62380707D01*
X154186211Y-62511309D01*
X153996143Y-62673643D01*
X153833809Y-62863711D01*
X153703207Y-63076834D01*
X153701314Y-63081404D01*
X153701312Y-63081408D01*
X153609445Y-63303195D01*
X153609443Y-63303201D01*
X153607553Y-63307764D01*
X153606401Y-63312564D01*
X153606399Y-63312569D01*
X153591759Y-63373550D01*
X153549201Y-63550814D01*
X153529590Y-63800000D01*
X143750500Y-63800000D01*
X143750500Y-59100000D01*
X153529590Y-59100000D01*
X153549201Y-59349186D01*
X153607553Y-59592236D01*
X153609443Y-59596799D01*
X153609445Y-59596805D01*
X153701312Y-59818592D01*
X153703207Y-59823166D01*
X153833809Y-60036289D01*
X153996143Y-60226357D01*
X154186211Y-60388691D01*
X154399334Y-60519293D01*
X154403904Y-60521186D01*
X154403908Y-60521188D01*
X154625695Y-60613055D01*
X154625701Y-60613057D01*
X154630264Y-60614947D01*
X154635064Y-60616099D01*
X154635069Y-60616101D01*
X154746332Y-60642813D01*
X154873314Y-60673299D01*
X155122500Y-60692910D01*
X155371686Y-60673299D01*
X155406707Y-60664891D01*
X161875420Y-60664891D01*
X161877117Y-60673306D01*
X161877117Y-60673309D01*
X161890326Y-60738817D01*
X161905233Y-60812743D01*
X161973707Y-60947132D01*
X162075799Y-61058156D01*
X162125175Y-61088770D01*
X162196687Y-61133110D01*
X162196690Y-61133111D01*
X162203986Y-61137635D01*
X162348825Y-61179715D01*
X162355803Y-61180227D01*
X162357208Y-61180331D01*
X162357219Y-61180331D01*
X162359515Y-61180500D01*
X163355007Y-61180500D01*
X163360284Y-61180611D01*
X163422294Y-61183210D01*
X163433848Y-61180500D01*
X163464662Y-61173273D01*
X163476333Y-61171110D01*
X163491229Y-61169069D01*
X163519432Y-61165206D01*
X163533230Y-61159235D01*
X163554499Y-61152201D01*
X163560775Y-61150729D01*
X163569136Y-61148768D01*
X163576661Y-61144631D01*
X163576664Y-61144630D01*
X163607268Y-61127805D01*
X163617913Y-61122589D01*
X163657855Y-61105305D01*
X163669541Y-61095842D01*
X163688126Y-61083354D01*
X163695518Y-61079290D01*
X163701308Y-61076107D01*
X163709422Y-61069103D01*
X163733958Y-61044567D01*
X163743759Y-61035742D01*
X163768392Y-61015794D01*
X163768393Y-61015793D01*
X163775070Y-61010386D01*
X163780043Y-61003388D01*
X163780048Y-61003383D01*
X163785968Y-60995052D01*
X163799579Y-60978946D01*
X165503619Y-59274905D01*
X165565931Y-59240880D01*
X165592714Y-59238000D01*
X168850285Y-59238000D01*
X168854530Y-59237418D01*
X168854537Y-59237418D01*
X168915022Y-59229132D01*
X168961932Y-59222706D01*
X168969817Y-59219294D01*
X169092471Y-59166217D01*
X169092473Y-59166216D01*
X169100355Y-59162805D01*
X169217570Y-59067886D01*
X169304942Y-58944942D01*
X169356033Y-58803032D01*
X169367080Y-58652609D01*
X169359007Y-58612569D01*
X169338964Y-58513175D01*
X169337267Y-58504757D01*
X169268793Y-58370368D01*
X169166701Y-58259344D01*
X169086570Y-58209661D01*
X169045813Y-58184390D01*
X169045810Y-58184389D01*
X169038514Y-58179865D01*
X168893675Y-58137785D01*
X168886697Y-58137273D01*
X168885292Y-58137169D01*
X168885281Y-58137169D01*
X168882985Y-58137000D01*
X167542949Y-58137000D01*
X167474828Y-58116998D01*
X167428335Y-58063342D01*
X167418231Y-57993068D01*
X167447725Y-57928488D01*
X167485746Y-57898733D01*
X167499755Y-57891595D01*
X167508587Y-57887095D01*
X167587095Y-57808587D01*
X167637500Y-57709661D01*
X167654869Y-57600000D01*
X167637500Y-57490339D01*
X167587095Y-57391413D01*
X167508587Y-57312905D01*
X167460388Y-57288347D01*
X167421066Y-57257068D01*
X167419542Y-57255252D01*
X167419541Y-57255251D01*
X167412455Y-57246806D01*
X167402910Y-57241295D01*
X167402906Y-57241292D01*
X167379815Y-57227961D01*
X167370544Y-57222055D01*
X167339684Y-57200446D01*
X167329034Y-57197592D01*
X167325866Y-57196115D01*
X167322590Y-57194923D01*
X167313045Y-57189412D01*
X167279301Y-57183462D01*
X167275942Y-57182870D01*
X167265215Y-57180492D01*
X167228807Y-57170736D01*
X167217822Y-57171697D01*
X167217820Y-57171697D01*
X167191272Y-57174020D01*
X167180290Y-57174500D01*
X167113210Y-57174500D01*
X167096910Y-57173441D01*
X167092877Y-57172915D01*
X167092878Y-57172915D01*
X167092034Y-57172805D01*
X167090837Y-57172680D01*
X167090048Y-57172618D01*
X167090035Y-57172617D01*
X167085854Y-57172290D01*
X167080244Y-57171850D01*
X167079390Y-57171805D01*
X167079386Y-57171805D01*
X167077324Y-57171697D01*
X167053063Y-57170426D01*
X167046543Y-57171459D01*
X167046541Y-57171459D01*
X167037143Y-57172948D01*
X167017428Y-57174500D01*
X165045213Y-57174500D01*
X165034232Y-57174021D01*
X165007670Y-57171697D01*
X165007668Y-57171697D01*
X164996693Y-57170737D01*
X164960283Y-57180492D01*
X164949576Y-57182866D01*
X164912455Y-57189412D01*
X164902912Y-57194921D01*
X164899640Y-57196112D01*
X164896467Y-57197592D01*
X164885816Y-57200446D01*
X164854956Y-57222055D01*
X164845685Y-57227961D01*
X164829964Y-57237038D01*
X164813045Y-57246806D01*
X164803901Y-57257703D01*
X164788815Y-57275682D01*
X164781389Y-57283785D01*
X164417543Y-57647631D01*
X164399251Y-57662761D01*
X164392603Y-57667277D01*
X164392595Y-57667283D01*
X164387479Y-57670759D01*
X164372974Y-57685488D01*
X164371263Y-57687247D01*
X164350339Y-57709008D01*
X164349530Y-57709854D01*
X164341317Y-57718494D01*
X164330602Y-57729765D01*
X164330380Y-57729998D01*
X164314576Y-57746538D01*
X164313513Y-57747636D01*
X164301728Y-57759650D01*
X164299358Y-57762002D01*
X164297688Y-57763615D01*
X164273082Y-57781800D01*
X164273189Y-57781975D01*
X164271206Y-57783186D01*
X164271095Y-57783268D01*
X164270850Y-57783403D01*
X164270833Y-57783413D01*
X164268446Y-57784732D01*
X164265082Y-57786993D01*
X164265050Y-57786945D01*
X164263829Y-57787691D01*
X164263820Y-57787677D01*
X164250344Y-57795870D01*
X164216913Y-57812905D01*
X164138405Y-57891413D01*
X164088000Y-57990339D01*
X164070631Y-58100000D01*
X164072182Y-58109792D01*
X164081390Y-58167925D01*
X164088000Y-58209661D01*
X164138405Y-58308587D01*
X164216913Y-58387095D01*
X164315839Y-58437500D01*
X164425500Y-58454869D01*
X164447786Y-58451339D01*
X164518196Y-58460438D01*
X164572511Y-58506159D01*
X164593484Y-58573987D01*
X164574458Y-58642387D01*
X164556592Y-58664883D01*
X163178881Y-60042595D01*
X163116569Y-60076620D01*
X163089786Y-60079500D01*
X162392215Y-60079500D01*
X162387970Y-60080082D01*
X162387963Y-60080082D01*
X162327478Y-60088368D01*
X162280568Y-60094794D01*
X162272684Y-60098206D01*
X162272683Y-60098206D01*
X162150029Y-60151283D01*
X162150027Y-60151284D01*
X162142145Y-60154695D01*
X162024930Y-60249614D01*
X161937558Y-60372558D01*
X161886467Y-60514468D01*
X161875420Y-60664891D01*
X155406707Y-60664891D01*
X155498668Y-60642813D01*
X155609931Y-60616101D01*
X155609936Y-60616099D01*
X155614736Y-60614947D01*
X155619299Y-60613057D01*
X155619305Y-60613055D01*
X155841092Y-60521188D01*
X155841096Y-60521186D01*
X155845666Y-60519293D01*
X156058789Y-60388691D01*
X156248857Y-60226357D01*
X156411191Y-60036289D01*
X156541793Y-59823166D01*
X156543688Y-59818592D01*
X156635555Y-59596805D01*
X156635557Y-59596799D01*
X156637447Y-59592236D01*
X156695799Y-59349186D01*
X156715410Y-59100000D01*
X156695799Y-58850814D01*
X156651160Y-58664883D01*
X156638601Y-58612569D01*
X156638599Y-58612564D01*
X156637447Y-58607764D01*
X156635557Y-58603201D01*
X156635555Y-58603195D01*
X156543688Y-58381408D01*
X156543686Y-58381404D01*
X156541793Y-58376834D01*
X156411191Y-58163711D01*
X156248857Y-57973643D01*
X156058789Y-57811309D01*
X155845666Y-57680707D01*
X155841096Y-57678814D01*
X155841092Y-57678812D01*
X155619305Y-57586945D01*
X155619299Y-57586943D01*
X155614736Y-57585053D01*
X155609936Y-57583901D01*
X155609931Y-57583899D01*
X155498668Y-57557187D01*
X155371686Y-57526701D01*
X155122500Y-57507090D01*
X154873314Y-57526701D01*
X154746332Y-57557187D01*
X154635069Y-57583899D01*
X154635064Y-57583901D01*
X154630264Y-57585053D01*
X154625701Y-57586943D01*
X154625695Y-57586945D01*
X154403908Y-57678812D01*
X154403904Y-57678814D01*
X154399334Y-57680707D01*
X154186211Y-57811309D01*
X153996143Y-57973643D01*
X153833809Y-58163711D01*
X153703207Y-58376834D01*
X153701314Y-58381404D01*
X153701312Y-58381408D01*
X153609445Y-58603195D01*
X153609443Y-58603201D01*
X153607553Y-58607764D01*
X153606401Y-58612564D01*
X153606399Y-58612569D01*
X153593840Y-58664883D01*
X153549201Y-58850814D01*
X153529590Y-59100000D01*
X143750500Y-59100000D01*
X143750500Y-57236932D01*
X143762453Y-57196225D01*
X143760032Y-57191715D01*
X143991150Y-57191715D01*
X143997396Y-57201434D01*
X144002112Y-57227046D01*
X144019201Y-57444186D01*
X144039289Y-57527856D01*
X144075986Y-57680707D01*
X144077553Y-57687236D01*
X144079443Y-57691799D01*
X144079445Y-57691805D01*
X144165784Y-57900245D01*
X144173207Y-57918166D01*
X144303809Y-58131289D01*
X144466143Y-58321357D01*
X144656211Y-58483691D01*
X144869334Y-58614293D01*
X144873904Y-58616186D01*
X144873908Y-58616188D01*
X145095695Y-58708055D01*
X145095701Y-58708057D01*
X145100264Y-58709947D01*
X145105064Y-58711099D01*
X145105069Y-58711101D01*
X145216332Y-58737813D01*
X145343314Y-58768299D01*
X145592500Y-58787910D01*
X145841686Y-58768299D01*
X145968668Y-58737813D01*
X146079931Y-58711101D01*
X146079936Y-58711099D01*
X146084736Y-58709947D01*
X146089299Y-58708057D01*
X146089305Y-58708055D01*
X146311092Y-58616188D01*
X146311096Y-58616186D01*
X146315666Y-58614293D01*
X146528789Y-58483691D01*
X146718857Y-58321357D01*
X146881191Y-58131289D01*
X147011793Y-57918166D01*
X147019216Y-57900245D01*
X147105555Y-57691805D01*
X147105557Y-57691799D01*
X147107447Y-57687236D01*
X147109015Y-57680707D01*
X147145711Y-57527856D01*
X147165799Y-57444186D01*
X147185410Y-57195000D01*
X147165799Y-56945814D01*
X147107447Y-56702764D01*
X147105557Y-56698201D01*
X147105555Y-56698195D01*
X147013688Y-56476408D01*
X147013686Y-56476404D01*
X147011793Y-56471834D01*
X146881191Y-56258711D01*
X146718857Y-56068643D01*
X146528789Y-55906309D01*
X146315666Y-55775707D01*
X146311096Y-55773814D01*
X146311092Y-55773812D01*
X146089305Y-55681945D01*
X146089299Y-55681943D01*
X146084736Y-55680053D01*
X146079936Y-55678901D01*
X146079931Y-55678899D01*
X145931905Y-55643361D01*
X145841686Y-55621701D01*
X145592780Y-55602112D01*
X145592598Y-55602042D01*
X145592220Y-55602112D01*
X145343314Y-55621701D01*
X145253095Y-55643361D01*
X145105069Y-55678899D01*
X145105064Y-55678901D01*
X145100264Y-55680053D01*
X145095701Y-55681943D01*
X145095695Y-55681945D01*
X144873908Y-55773812D01*
X144873904Y-55773814D01*
X144869334Y-55775707D01*
X144656211Y-55906309D01*
X144466143Y-56068643D01*
X144303809Y-56258711D01*
X144173207Y-56471834D01*
X144171314Y-56476404D01*
X144171312Y-56476408D01*
X144079445Y-56698195D01*
X144079443Y-56698201D01*
X144077553Y-56702764D01*
X144019201Y-56945814D01*
X144013612Y-57016828D01*
X144002112Y-57162954D01*
X143991150Y-57191715D01*
X143760032Y-57191715D01*
X143753191Y-57178972D01*
X143750500Y-57153068D01*
X143750500Y-55711482D01*
X143770502Y-55643361D01*
X143779101Y-55631549D01*
X143786235Y-55622856D01*
X143885021Y-55502485D01*
X143902486Y-55485020D01*
X144031549Y-55379101D01*
X144096896Y-55351347D01*
X144111482Y-55350500D01*
X145582334Y-55350500D01*
X145587648Y-55352060D01*
G37*
%TD.AperFunction*%
%TD*%
%TA.AperFunction,Conductor*%
%TO.N,/BAT+*%
G36*
X156424415Y-63344486D02*
G01*
X156432619Y-63348074D01*
X156435469Y-63353087D01*
X156494851Y-63569433D01*
X156495103Y-63570574D01*
X156532983Y-63796375D01*
X156533069Y-63796995D01*
X156558063Y-64018787D01*
X156580920Y-64230432D01*
X156612431Y-64425709D01*
X156663421Y-64598715D01*
X156744715Y-64743550D01*
X156867139Y-64854309D01*
X156868088Y-64854694D01*
X156868091Y-64854696D01*
X157040758Y-64924785D01*
X157040761Y-64924786D01*
X157041518Y-64925093D01*
X157042332Y-64925178D01*
X157042334Y-64925179D01*
X157268201Y-64948900D01*
X157276071Y-64953172D01*
X157278679Y-64960536D01*
X157278679Y-65637789D01*
X157275252Y-65646062D01*
X157266480Y-65649478D01*
X156976716Y-65637074D01*
X156975614Y-65636974D01*
X156723295Y-65601979D01*
X156722170Y-65601766D01*
X156507707Y-65550218D01*
X156506742Y-65549942D01*
X156318766Y-65487302D01*
X156318164Y-65487083D01*
X156145326Y-65418763D01*
X156145229Y-65418724D01*
X155976657Y-65350344D01*
X155976549Y-65350300D01*
X155801064Y-65287399D01*
X155757235Y-65275660D01*
X155607964Y-65235678D01*
X155607956Y-65235676D01*
X155607671Y-65235600D01*
X155385204Y-65200450D01*
X155131073Y-65187923D01*
X155122980Y-65184093D01*
X155120330Y-65179194D01*
X155061293Y-64953172D01*
X154759133Y-63796375D01*
X154635852Y-63324402D01*
X154637077Y-63315531D01*
X154644215Y-63310125D01*
X154647400Y-63309747D01*
X156424415Y-63344486D01*
G37*
%TD.AperFunction*%
%TD*%
%TA.AperFunction,Conductor*%
%TO.N,/OD*%
G36*
X167069493Y-57377069D02*
G01*
X167070690Y-57377194D01*
X167096106Y-57381172D01*
X167105958Y-57382715D01*
X167107023Y-57382933D01*
X167124302Y-57387329D01*
X167139067Y-57391086D01*
X167139958Y-57391351D01*
X167169093Y-57401286D01*
X167169748Y-57401532D01*
X167196350Y-57412428D01*
X167196697Y-57412578D01*
X167221100Y-57423600D01*
X167243445Y-57433799D01*
X167263849Y-57442200D01*
X167264123Y-57442283D01*
X167264125Y-57442284D01*
X167282109Y-57447750D01*
X167282114Y-57447751D01*
X167282604Y-57447900D01*
X167289496Y-57448732D01*
X167292328Y-57449074D01*
X167300130Y-57453468D01*
X167302159Y-57457421D01*
X167352594Y-57630751D01*
X167353569Y-57634103D01*
X167352590Y-57643004D01*
X167345604Y-57648606D01*
X167343166Y-57649042D01*
X167170238Y-57661361D01*
X167161743Y-57658531D01*
X167159591Y-57656057D01*
X167158708Y-57654694D01*
X167151738Y-57648339D01*
X167151256Y-57648046D01*
X167151252Y-57648043D01*
X167142943Y-57642992D01*
X167142586Y-57642775D01*
X167131401Y-57637990D01*
X167118334Y-57633973D01*
X167103534Y-57630712D01*
X167087151Y-57628195D01*
X167087014Y-57628181D01*
X167087004Y-57628180D01*
X167069458Y-57626424D01*
X167069445Y-57626423D01*
X167069335Y-57626412D01*
X167050234Y-57625351D01*
X167050158Y-57625350D01*
X167050140Y-57625349D01*
X167041496Y-57625199D01*
X167033284Y-57621629D01*
X167030000Y-57613501D01*
X167030000Y-57387329D01*
X167033427Y-57379056D01*
X167042312Y-57375645D01*
X167069493Y-57377069D01*
G37*
%TD.AperFunction*%
%TD*%
M02*
