%TF.GenerationSoftware,KiCad,Pcbnew,(6.0.8)*%
%TF.CreationDate,2022-10-25T00:07:16-04:00*%
%TF.ProjectId,403_charger_v2,3430335f-6368-4617-9267-65725f76322e,rev?*%
%TF.SameCoordinates,Original*%
%TF.FileFunction,Paste,Top*%
%TF.FilePolarity,Positive*%
%FSLAX46Y46*%
G04 Gerber Fmt 4.6, Leading zero omitted, Abs format (unit mm)*
G04 Created by KiCad (PCBNEW (6.0.8)) date 2022-10-25 00:07:16*
%MOMM*%
%LPD*%
G01*
G04 APERTURE LIST*
G04 Aperture macros list*
%AMRoundRect*
0 Rectangle with rounded corners*
0 $1 Rounding radius*
0 $2 $3 $4 $5 $6 $7 $8 $9 X,Y pos of 4 corners*
0 Add a 4 corners polygon primitive as box body*
4,1,4,$2,$3,$4,$5,$6,$7,$8,$9,$2,$3,0*
0 Add four circle primitives for the rounded corners*
1,1,$1+$1,$2,$3*
1,1,$1+$1,$4,$5*
1,1,$1+$1,$6,$7*
1,1,$1+$1,$8,$9*
0 Add four rect primitives between the rounded corners*
20,1,$1+$1,$2,$3,$4,$5,0*
20,1,$1+$1,$4,$5,$6,$7,0*
20,1,$1+$1,$6,$7,$8,$9,0*
20,1,$1+$1,$8,$9,$2,$3,0*%
G04 Aperture macros list end*
%ADD10RoundRect,0.250000X0.650000X-0.325000X0.650000X0.325000X-0.650000X0.325000X-0.650000X-0.325000X0*%
%ADD11R,0.930000X0.980000*%
%ADD12R,1.650000X0.400000*%
%ADD13R,1.500000X2.000000*%
%ADD14R,2.000000X1.350000*%
%ADD15R,2.500000X1.430000*%
%ADD16R,0.700000X1.825000*%
%ADD17R,0.980000X0.930000*%
%ADD18R,1.600000X2.200000*%
%ADD19RoundRect,0.150000X0.150000X-0.512500X0.150000X0.512500X-0.150000X0.512500X-0.150000X-0.512500X0*%
%ADD20R,1.800000X1.700000*%
%ADD21RoundRect,0.150000X0.512500X0.150000X-0.512500X0.150000X-0.512500X-0.150000X0.512500X-0.150000X0*%
%ADD22RoundRect,0.150000X-0.150000X0.512500X-0.150000X-0.512500X0.150000X-0.512500X0.150000X0.512500X0*%
%ADD23R,2.900000X4.000000*%
%ADD24O,1.600000X0.600000*%
%ADD25RoundRect,0.250000X-0.650000X0.325000X-0.650000X-0.325000X0.650000X-0.325000X0.650000X0.325000X0*%
G04 APERTURE END LIST*
D10*
%TO.C,C4*%
X174315000Y-77400000D03*
X174315000Y-74450000D03*
%TD*%
D11*
%TO.C,R7*%
X159930000Y-84825000D03*
X161470000Y-84825000D03*
%TD*%
D12*
%TO.C,J1*%
X143750000Y-79600000D03*
X143750000Y-80250000D03*
X143750000Y-80900000D03*
X143750000Y-81550000D03*
X143750000Y-82200000D03*
D13*
X143870000Y-83800000D03*
D14*
X141800000Y-83650000D03*
D15*
X140600000Y-79940000D03*
D13*
X143850000Y-78050000D03*
D14*
X141800000Y-78170000D03*
D16*
X142550000Y-83900000D03*
X142550000Y-77950000D03*
D15*
X140600000Y-81860000D03*
%TD*%
D17*
%TO.C,R2*%
X154300000Y-59215000D03*
X154300000Y-60755000D03*
%TD*%
D18*
%TO.C,L1*%
X162600000Y-71625000D03*
X156200000Y-71625000D03*
%TD*%
D19*
%TO.C,Q1*%
X162850000Y-61512500D03*
X163800000Y-61512500D03*
X164750000Y-61512500D03*
X164750000Y-59237500D03*
X163800000Y-59237500D03*
X162850000Y-59237500D03*
%TD*%
D17*
%TO.C,R4*%
X169800000Y-77385000D03*
X169800000Y-75845000D03*
%TD*%
D20*
%TO.C,D1*%
X169537500Y-64425000D03*
X174590000Y-64425000D03*
%TD*%
D21*
%TO.C,IC1*%
X159637500Y-60975000D03*
X159637500Y-60025000D03*
X159637500Y-59075000D03*
X157362500Y-59075000D03*
X157362500Y-60025000D03*
X157362500Y-60975000D03*
%TD*%
D17*
%TO.C,R5*%
X174600000Y-70395000D03*
X174600000Y-68855000D03*
%TD*%
D22*
%TO.C,U2*%
X169100000Y-68750000D03*
X168150000Y-68750000D03*
X167200000Y-68750000D03*
X167200000Y-71025000D03*
X168150000Y-71025000D03*
X169100000Y-71025000D03*
%TD*%
D11*
%TO.C,C1*%
X155290000Y-65825000D03*
X156830000Y-65825000D03*
%TD*%
D23*
%TO.C,U1*%
X152880000Y-79455000D03*
D24*
X150280000Y-77550000D03*
X150280000Y-78820000D03*
X150280000Y-80090000D03*
X150280000Y-81360000D03*
X155480000Y-81360000D03*
X155480000Y-80090000D03*
X155480000Y-78820000D03*
X155480000Y-77550000D03*
%TD*%
D17*
%TO.C,D2*%
X158549000Y-79526600D03*
X158549000Y-77986600D03*
%TD*%
D11*
%TO.C,R1*%
X161880000Y-65825000D03*
X160340000Y-65825000D03*
%TD*%
D17*
%TO.C,R3*%
X147100000Y-80440000D03*
X147100000Y-78900000D03*
%TD*%
D25*
%TO.C,C3*%
X165200000Y-74450000D03*
X165200000Y-77400000D03*
%TD*%
D11*
%TO.C,R6*%
X152530000Y-84825000D03*
X154070000Y-84825000D03*
%TD*%
D17*
%TO.C,D3*%
X161349000Y-79526600D03*
X161349000Y-77986600D03*
%TD*%
%TO.C,C2*%
X147100000Y-82685000D03*
X147100000Y-84225000D03*
%TD*%
M02*
