M48
; DRILL file {KiCad (6.0.8)} date Tue Oct 25 00:07:32 2022
; FORMAT={-:-/ absolute / inch / decimal}
; #@! TF.CreationDate,2022-10-25T00:07:32-04:00
; #@! TF.GenerationSoftware,Kicad,Pcbnew,(6.0.8)
; #@! TF.FileFunction,Plated,1,2,PTH
FMAT,2
INCH
; #@! TA.AperFunction,Plated,PTH,ViaDrill
T1C0.0039
; #@! TA.AperFunction,Plated,PTH,ComponentDrill
T2C0.0256
; #@! TA.AperFunction,Plated,PTH,ComponentDrill
T3C0.0276
; #@! TA.AperFunction,Plated,PTH,ComponentDrill
T4C0.0689
; #@! TA.AperFunction,Plated,PTH,ComponentDrill
T5C0.0728
%
G90
G05
T1
X6.126Y-3.2451
X6.1732Y-3.1506
X6.1929Y-2.438
X6.2441Y-3.3435
X6.5827Y-2.6585
X6.685Y-2.8593
X6.874Y-2.5994
T4
X6.5984Y-3.3071
X6.6476Y-2.3711
X6.811Y-3.3071
X6.8602Y-2.3711
T5
X5.5115Y-2.3748
X5.5115Y-2.8949
X5.8867Y-2.4498
X5.8867Y-2.6348
X5.8867Y-2.8199
T2
G00X5.6563Y-3.0898
M15
G01X5.672Y-3.0898
M16
G05
G00X5.6563Y-3.2803
M15
G01X5.672Y-3.2803
M16
G05
T3
G00X5.5362Y-3.0776
M15
G01X5.5559Y-3.0776
M16
G05
G00X5.5362Y-3.2925
M15
G01X5.5559Y-3.2925
M16
G05
T0
M30
