M48
; DRILL file {KiCad (6.0.7)} date Sun Oct  2 22:31:13 2022
; FORMAT={-:-/ absolute / metric / decimal}
; #@! TF.CreationDate,2022-10-02T22:31:13-04:00
; #@! TF.GenerationSoftware,Kicad,Pcbnew,(6.0.7)
; #@! TF.FileFunction,MixedPlating,1,2
FMAT,2
METRIC
; #@! TA.AperFunction,Plated,PTH,ViaDrill
T1C0.100
; #@! TA.AperFunction,Plated,PTH,ComponentDrill
T2C0.500
; #@! TA.AperFunction,Plated,PTH,ComponentDrill
T3C0.650
; #@! TA.AperFunction,Plated,PTH,ComponentDrill
T4C0.700
; #@! TA.AperFunction,Plated,PTH,ComponentDrill
T5C1.850
%
G90
G05
T1
X150.9Y-80.7
X153.4Y-76.6
X153.7Y-74.0
X157.1Y-71.8
X157.4Y-62.1
X157.5Y-80.2
X161.0Y-76.5
X161.2Y-77.8
X162.43Y-60.63
X164.0Y-66.0
X164.425Y-58.1
X165.6Y-71.0
X167.3Y-57.6
X168.8Y-66.5
X168.8Y-75.1
X168.812Y-58.688
X170.4Y-64.0
X174.4Y-66.8
X176.9Y-64.7
X177.4Y-61.8
T2
X172.8Y-56.6
X173.8Y-56.6
T5
X145.593Y-57.195
X145.593Y-70.405
X155.123Y-59.1
X155.123Y-63.8
X155.123Y-68.5
T3
G00X149.27Y-74.62
M15
G01X149.67Y-74.62
M16
G05
G00X149.27Y-79.46
M15
G01X149.67Y-79.46
M16
G05
G00X168.355Y-77.415
M15
G01X168.355Y-77.015
M16
G05
G00X173.195Y-77.415
M15
G01X173.195Y-77.015
M16
G05
T4
G00X146.22Y-74.31
M15
G01X146.72Y-74.31
M16
G05
G00X146.22Y-79.77
M15
G01X146.72Y-79.77
M16
G05
G00X168.045Y-80.465
M15
G01X168.045Y-79.965
M16
G05
G00X173.505Y-80.465
M15
G01X173.505Y-79.965
M16
G05
T0
M30
