%TF.GenerationSoftware,KiCad,Pcbnew,(6.0.7)*%
%TF.CreationDate,2022-10-02T22:30:45-04:00*%
%TF.ProjectId,LiPo_Charger_1,4c69506f-5f43-4686-9172-6765725f312e,rev?*%
%TF.SameCoordinates,Original*%
%TF.FileFunction,Legend,Bot*%
%TF.FilePolarity,Positive*%
%FSLAX46Y46*%
G04 Gerber Fmt 4.6, Leading zero omitted, Abs format (unit mm)*
G04 Created by KiCad (PCBNEW (6.0.7)) date 2022-10-02 22:30:45*
%MOMM*%
%LPD*%
G01*
G04 APERTURE LIST*
%ADD10C,0.150000*%
%ADD11O,1.500000X1.100000*%
%ADD12O,1.700000X1.350000*%
%ADD13R,2.775000X2.775000*%
%ADD14C,2.775000*%
%ADD15O,1.350000X1.700000*%
%ADD16O,1.100000X1.500000*%
%ADD17R,0.850000X0.850000*%
%ADD18O,0.850000X0.850000*%
G04 APERTURE END LIST*
D10*
X156383333Y-86102380D02*
X157002380Y-86102380D01*
X156669047Y-86483333D01*
X156811904Y-86483333D01*
X156907142Y-86530952D01*
X156954761Y-86578571D01*
X157002380Y-86673809D01*
X157002380Y-86911904D01*
X156954761Y-87007142D01*
X156907142Y-87054761D01*
X156811904Y-87102380D01*
X156526190Y-87102380D01*
X156430952Y-87054761D01*
X156383333Y-87007142D01*
X157907142Y-86102380D02*
X157430952Y-86102380D01*
X157383333Y-86578571D01*
X157430952Y-86530952D01*
X157526190Y-86483333D01*
X157764285Y-86483333D01*
X157859523Y-86530952D01*
X157907142Y-86578571D01*
X157954761Y-86673809D01*
X157954761Y-86911904D01*
X157907142Y-87007142D01*
X157859523Y-87054761D01*
X157764285Y-87102380D01*
X157526190Y-87102380D01*
X157430952Y-87054761D01*
X157383333Y-87007142D01*
X158383333Y-87007142D02*
X158430952Y-87054761D01*
X158383333Y-87102380D01*
X158335714Y-87054761D01*
X158383333Y-87007142D01*
X158383333Y-87102380D01*
X159335714Y-86102380D02*
X158859523Y-86102380D01*
X158811904Y-86578571D01*
X158859523Y-86530952D01*
X158954761Y-86483333D01*
X159192857Y-86483333D01*
X159288095Y-86530952D01*
X159335714Y-86578571D01*
X159383333Y-86673809D01*
X159383333Y-86911904D01*
X159335714Y-87007142D01*
X159288095Y-87054761D01*
X159192857Y-87102380D01*
X158954761Y-87102380D01*
X158859523Y-87054761D01*
X158811904Y-87007142D01*
X160002380Y-86102380D02*
X160097619Y-86102380D01*
X160192857Y-86150000D01*
X160240476Y-86197619D01*
X160288095Y-86292857D01*
X160335714Y-86483333D01*
X160335714Y-86721428D01*
X160288095Y-86911904D01*
X160240476Y-87007142D01*
X160192857Y-87054761D01*
X160097619Y-87102380D01*
X160002380Y-87102380D01*
X159907142Y-87054761D01*
X159859523Y-87007142D01*
X159811904Y-86911904D01*
X159764285Y-86721428D01*
X159764285Y-86483333D01*
X159811904Y-86292857D01*
X159859523Y-86197619D01*
X159907142Y-86150000D01*
X160002380Y-86102380D01*
X160954761Y-86102380D02*
X161050000Y-86102380D01*
X161145238Y-86150000D01*
X161192857Y-86197619D01*
X161240476Y-86292857D01*
X161288095Y-86483333D01*
X161288095Y-86721428D01*
X161240476Y-86911904D01*
X161192857Y-87007142D01*
X161145238Y-87054761D01*
X161050000Y-87102380D01*
X160954761Y-87102380D01*
X160859523Y-87054761D01*
X160811904Y-87007142D01*
X160764285Y-86911904D01*
X160716666Y-86721428D01*
X160716666Y-86483333D01*
X160764285Y-86292857D01*
X160811904Y-86197619D01*
X160859523Y-86150000D01*
X160954761Y-86102380D01*
X161907142Y-86102380D02*
X162002380Y-86102380D01*
X162097619Y-86150000D01*
X162145238Y-86197619D01*
X162192857Y-86292857D01*
X162240476Y-86483333D01*
X162240476Y-86721428D01*
X162192857Y-86911904D01*
X162145238Y-87007142D01*
X162097619Y-87054761D01*
X162002380Y-87102380D01*
X161907142Y-87102380D01*
X161811904Y-87054761D01*
X161764285Y-87007142D01*
X161716666Y-86911904D01*
X161669047Y-86721428D01*
X161669047Y-86483333D01*
X161716666Y-86292857D01*
X161764285Y-86197619D01*
X161811904Y-86150000D01*
X161907142Y-86102380D01*
X163430952Y-87102380D02*
X163430952Y-86435714D01*
X163430952Y-86530952D02*
X163478571Y-86483333D01*
X163573809Y-86435714D01*
X163716666Y-86435714D01*
X163811904Y-86483333D01*
X163859523Y-86578571D01*
X163859523Y-87102380D01*
X163859523Y-86578571D02*
X163907142Y-86483333D01*
X164002380Y-86435714D01*
X164145238Y-86435714D01*
X164240476Y-86483333D01*
X164288095Y-86578571D01*
X164288095Y-87102380D01*
X164764285Y-87102380D02*
X164764285Y-86435714D01*
X164764285Y-86530952D02*
X164811904Y-86483333D01*
X164907142Y-86435714D01*
X165050000Y-86435714D01*
X165145238Y-86483333D01*
X165192857Y-86578571D01*
X165192857Y-87102380D01*
X165192857Y-86578571D02*
X165240476Y-86483333D01*
X165335714Y-86435714D01*
X165478571Y-86435714D01*
X165573809Y-86483333D01*
X165621428Y-86578571D01*
X165621428Y-87102380D01*
X143300000Y-83800000D02*
X143300000Y-88386420D01*
X178800000Y-83800000D02*
X178800000Y-88386420D01*
X143300000Y-87800000D02*
X178800000Y-87800000D01*
X143300000Y-87800000D02*
X178800000Y-87800000D01*
X143300000Y-87800000D02*
X144426504Y-88386421D01*
X143300000Y-87800000D02*
X144426504Y-87213579D01*
X178800000Y-87800000D02*
X177673496Y-87213579D01*
X178800000Y-87800000D02*
X177673496Y-88386421D01*
X182297619Y-73719047D02*
X182250000Y-73671428D01*
X182202380Y-73576190D01*
X182202380Y-73338095D01*
X182250000Y-73242857D01*
X182297619Y-73195238D01*
X182392857Y-73147619D01*
X182488095Y-73147619D01*
X182630952Y-73195238D01*
X183202380Y-73766666D01*
X183202380Y-73147619D01*
X182630952Y-72576190D02*
X182583333Y-72671428D01*
X182535714Y-72719047D01*
X182440476Y-72766666D01*
X182392857Y-72766666D01*
X182297619Y-72719047D01*
X182250000Y-72671428D01*
X182202380Y-72576190D01*
X182202380Y-72385714D01*
X182250000Y-72290476D01*
X182297619Y-72242857D01*
X182392857Y-72195238D01*
X182440476Y-72195238D01*
X182535714Y-72242857D01*
X182583333Y-72290476D01*
X182630952Y-72385714D01*
X182630952Y-72576190D01*
X182678571Y-72671428D01*
X182726190Y-72719047D01*
X182821428Y-72766666D01*
X183011904Y-72766666D01*
X183107142Y-72719047D01*
X183154761Y-72671428D01*
X183202380Y-72576190D01*
X183202380Y-72385714D01*
X183154761Y-72290476D01*
X183107142Y-72242857D01*
X183011904Y-72195238D01*
X182821428Y-72195238D01*
X182726190Y-72242857D01*
X182678571Y-72290476D01*
X182630952Y-72385714D01*
X183107142Y-71766666D02*
X183154761Y-71719047D01*
X183202380Y-71766666D01*
X183154761Y-71814285D01*
X183107142Y-71766666D01*
X183202380Y-71766666D01*
X182535714Y-70861904D02*
X183202380Y-70861904D01*
X182154761Y-71100000D02*
X182869047Y-71338095D01*
X182869047Y-70719047D01*
X182202380Y-70147619D02*
X182202380Y-70052380D01*
X182250000Y-69957142D01*
X182297619Y-69909523D01*
X182392857Y-69861904D01*
X182583333Y-69814285D01*
X182821428Y-69814285D01*
X183011904Y-69861904D01*
X183107142Y-69909523D01*
X183154761Y-69957142D01*
X183202380Y-70052380D01*
X183202380Y-70147619D01*
X183154761Y-70242857D01*
X183107142Y-70290476D01*
X183011904Y-70338095D01*
X182821428Y-70385714D01*
X182583333Y-70385714D01*
X182392857Y-70338095D01*
X182297619Y-70290476D01*
X182250000Y-70242857D01*
X182202380Y-70147619D01*
X182202380Y-69195238D02*
X182202380Y-69100000D01*
X182250000Y-69004761D01*
X182297619Y-68957142D01*
X182392857Y-68909523D01*
X182583333Y-68861904D01*
X182821428Y-68861904D01*
X183011904Y-68909523D01*
X183107142Y-68957142D01*
X183154761Y-69004761D01*
X183202380Y-69100000D01*
X183202380Y-69195238D01*
X183154761Y-69290476D01*
X183107142Y-69338095D01*
X183011904Y-69385714D01*
X182821428Y-69433333D01*
X182583333Y-69433333D01*
X182392857Y-69385714D01*
X182297619Y-69338095D01*
X182250000Y-69290476D01*
X182202380Y-69195238D01*
X182202380Y-68242857D02*
X182202380Y-68147619D01*
X182250000Y-68052380D01*
X182297619Y-68004761D01*
X182392857Y-67957142D01*
X182583333Y-67909523D01*
X182821428Y-67909523D01*
X183011904Y-67957142D01*
X183107142Y-68004761D01*
X183154761Y-68052380D01*
X183202380Y-68147619D01*
X183202380Y-68242857D01*
X183154761Y-68338095D01*
X183107142Y-68385714D01*
X183011904Y-68433333D01*
X182821428Y-68480952D01*
X182583333Y-68480952D01*
X182392857Y-68433333D01*
X182297619Y-68385714D01*
X182250000Y-68338095D01*
X182202380Y-68242857D01*
X183202380Y-66719047D02*
X182535714Y-66719047D01*
X182630952Y-66719047D02*
X182583333Y-66671428D01*
X182535714Y-66576190D01*
X182535714Y-66433333D01*
X182583333Y-66338095D01*
X182678571Y-66290476D01*
X183202380Y-66290476D01*
X182678571Y-66290476D02*
X182583333Y-66242857D01*
X182535714Y-66147619D01*
X182535714Y-66004761D01*
X182583333Y-65909523D01*
X182678571Y-65861904D01*
X183202380Y-65861904D01*
X183202380Y-65385714D02*
X182535714Y-65385714D01*
X182630952Y-65385714D02*
X182583333Y-65338095D01*
X182535714Y-65242857D01*
X182535714Y-65100000D01*
X182583333Y-65004761D01*
X182678571Y-64957142D01*
X183202380Y-64957142D01*
X182678571Y-64957142D02*
X182583333Y-64909523D01*
X182535714Y-64814285D01*
X182535714Y-64671428D01*
X182583333Y-64576190D01*
X182678571Y-64528571D01*
X183202380Y-64528571D01*
X179300000Y-83300000D02*
X184486420Y-83300000D01*
X179300000Y-54900000D02*
X184486420Y-54900000D01*
X183900000Y-83300000D02*
X183900000Y-54900000D01*
X183900000Y-83300000D02*
X183900000Y-54900000D01*
X183900000Y-83300000D02*
X184486421Y-82173496D01*
X183900000Y-83300000D02*
X183313579Y-82173496D01*
X183900000Y-54900000D02*
X183313579Y-56026504D01*
X183900000Y-54900000D02*
X184486421Y-56026504D01*
%LPC*%
D11*
%TO.C,J1*%
X149470000Y-79460000D03*
D12*
X146470000Y-74310000D03*
D11*
X149470000Y-74620000D03*
D12*
X146470000Y-79770000D03*
%TD*%
D13*
%TO.C,SW1*%
X155122500Y-68500000D03*
D14*
X155122500Y-63800000D03*
X155122500Y-59100000D03*
X145592500Y-70405000D03*
X145592500Y-57195000D03*
%TD*%
D15*
%TO.C,J3*%
X173505000Y-80215000D03*
D16*
X173195000Y-77215000D03*
D15*
X168045000Y-80215000D03*
D16*
X168355000Y-77215000D03*
%TD*%
D17*
%TO.C,J2*%
X173800000Y-56600000D03*
D18*
X172800000Y-56600000D03*
%TD*%
M02*
